<svg width="93" height="70" viewBox="0 0 93 70" fill="none" xmlns="http://www.w3.org/2000/svg">
<path d="M45.6699 69.7282L40.8638 65.7366L42.3123 63.9933L47.1184 67.9849L47.5272 68.8662L45.6699 69.7282ZM47.1184 67.9849C47.5996 68.3839 47.6649 69.0998 47.266 69.5807C46.8667 70.0619 46.1507 70.1272 45.6699 69.7282L47.1184 67.9849ZM46.0145 2.26606V2.55678e-05L47.1475 1.12323L47.1656 3.20886L47.1837 5.29978L47.2033 7.39484L47.2241 9.4967L47.2448 11.6031L47.2671 13.7148L47.2882 15.831L47.3101 17.9483L47.3324 20.0713L47.3535 22.1969L47.3758 24.3241L47.3966 26.4539L47.4173 28.5837L47.437 30.7176L47.4562 32.8515L47.4743 34.9843L47.4924 37.1198L47.5079 39.2526L47.523 41.3865L47.5355 43.5178L47.5479 45.6476L47.5577 47.7774L47.5649 49.9019L47.5717 52.026L47.5743 54.1464L47.5758 56.2637L47.5743 58.3754L47.5717 60.4844L47.5649 62.5878L47.5551 64.6859L47.5426 66.7779L47.5272 68.8662L45.2611 68.8466L45.2762 66.764L45.2891 64.6746L45.2985 62.5795L45.3057 60.4788L45.3083 58.3728L45.3098 56.2637L45.3083 54.149L45.3057 52.0317L45.2985 49.9102L45.2917 47.7857L45.2819 45.6586L45.2694 43.5318L45.257 41.4005L45.2415 39.2692L45.2264 37.1364L45.2083 35.004L45.1902 32.8712L45.1705 30.7372L45.1513 28.6059L45.1305 26.4761L45.1094 24.346L45.0871 22.2192L45.0664 20.0932L45.0441 17.9732L45.0218 15.8532L45.0011 13.737L44.9788 11.6254L44.958 9.51897L44.9373 7.41711L44.9177 5.31902L44.8996 3.22811L44.8814 1.14286L46.0145 2.26606ZM44.8814 1.14286C44.8773 0.517093 45.3793 0.0041772 46.005 2.55678e-05C46.6304 -0.00412607 47.1433 0.497844 47.1475 1.12323L44.8814 1.14286ZM6.67885 2.26493L6.61469 0.00153525L6.64677 2.55678e-05H7.84923H9.05736H10.2711H11.4891H12.7112H13.9359H15.1663H16.3982H17.6339H18.8714H20.1113H21.353H22.5958H23.8402H25.0857H26.33H27.5755H28.8214H30.0658H31.3086H32.5499H33.7902H35.0273H36.2634H37.4953H38.7253H39.9504H41.1725H42.3901H43.6039H44.812H46.0145V2.26606H44.812H43.6039H42.3901H41.1725H39.9504H38.7253H37.4953H36.2634H35.0273H33.7902H32.5499H31.3086H30.0658H28.8214H27.5755H26.33H25.0857H23.8402H22.5958H21.353H20.1113H18.8714H17.6339H16.3982H15.1663H13.9359H12.7112H11.4891H10.2711H9.05736H7.84923H6.64677L6.67885 2.26493ZM6.64677 2.26606C6.021 2.26606 5.51375 1.75881 5.51375 1.13304C5.51375 0.50728 6.021 2.55678e-05 6.64677 2.55678e-05V2.26606ZM2.27434 6.50073H0.00830327L0.00981295 6.55244L0 6.19351L0.00264195 5.83911L0.0196259 5.49302L0.0486874 5.1522L0.0943553 4.82007L0.152856 4.49738L0.226453 4.18034L0.317034 3.86897L0.422712 3.56892L0.543487 3.2768L0.682755 2.99184L0.835611 2.72199L1.00507 2.4593L1.19152 2.20756L1.39155 1.9713L1.60593 1.749L1.83804 1.535L2.08412 1.33761L2.34114 1.1538L2.60798 0.988492L2.88463 0.835636L3.17676 0.695236L3.47982 0.5688L3.78856 0.455951L4.10974 0.357444L4.44036 0.269882L4.77702 0.197417L5.12463 0.133633L5.48469 0.0834357L5.85154 0.0445613L6.22821 0.0181418L6.61469 0.00153525L6.67885 2.26493L6.35917 2.27852L6.05195 2.3023L5.75983 2.33287L5.48318 2.37174L5.21898 2.41892L4.96611 2.47478L4.73249 2.53441L4.50868 2.60537L4.29996 2.67896L4.10559 2.76124L3.9248 2.8488L3.75383 2.94316L3.59532 3.04204L3.44925 3.1447L3.31451 3.2534L3.19072 3.36738L3.07372 3.48966L2.9654 3.61761L2.86538 3.74971L2.77367 3.89275L2.68724 4.0456L2.60949 4.20563L2.53854 4.37811L2.47475 4.55852L2.4204 4.75063L2.37172 4.95632L2.33284 5.17598L2.30076 5.40545L2.28 5.64587L2.26604 5.90025V6.1686L2.27321 6.4494L2.27434 6.50073ZM2.27321 6.4494C2.30076 7.07366 1.81691 7.60469 1.19265 7.63262C0.568774 7.66017 0.0373647 7.17669 0.00981295 6.55244L2.27321 6.4494ZM0.423844 67.9793L1.8588 69.7339L0.00830327 68.8564V66.9436V65.0222V63.0966V61.1642V59.2261V57.2828V55.3349V53.3829V51.4282V49.4694V47.5091V45.5461V43.5801V41.6145V39.6459V37.6788V35.7116V33.743V31.777V29.8114V27.8481V25.8881V23.9289V21.9743V20.0226V18.0747V16.131V14.193V12.2606V10.3353V8.41388V6.50073H2.27434V8.41388V10.3353V12.2606V14.193V16.131V18.0747V20.0226V21.9743V23.9289V25.8881V27.8481V29.8114V31.777V33.743V35.7116V37.6788V39.6459V41.6145V43.5801V45.5461V47.5091V49.4694V51.4282V53.3829V55.3349V57.2828V59.2261V61.1642V63.0966V65.0222V66.9436V68.8564L0.423844 67.9793ZM2.27434 68.8564C2.27434 69.4822 1.76709 69.9894 1.14132 69.9894C0.515935 69.9894 0.00830327 69.4822 0.00830327 68.8564H2.27434ZM6.69281 64.0016L5.22464 65.7283L6.67583 65.7408L6.56336 65.834L6.45617 65.9231L6.34936 66.0106L6.24368 66.0997L6.14065 66.1843L6.03799 66.2692L5.93495 66.3541L5.83758 66.436L5.73907 66.5179L5.63339 66.6085L5.52356 66.7002L5.41939 66.7862L5.31221 66.8768L5.19407 66.9753L5.07707 67.0742L4.95365 67.1784L4.82156 67.2897L4.68795 67.3996L4.54755 67.5162L4.39734 67.6415L4.24448 67.7694L4.07917 67.9068L3.90518 68.0502L3.72439 68.2004L3.53115 68.3601L3.32961 68.5258L3.11712 68.702L2.88878 68.89L2.64988 69.0859L2.40115 69.2889L2.13809 69.5056L1.8588 69.7339L0.423844 67.9793L0.700871 67.754L0.963557 67.5373L1.21492 67.3312L1.45156 67.138L1.67386 66.9561L1.88673 66.7794L2.09091 66.6111L2.27849 66.4568L2.4623 66.3039L2.63327 66.1635L2.79292 66.0288L2.95143 65.8982L3.09599 65.7785L3.23639 65.6589L3.37264 65.5464L3.49643 65.4434L3.62023 65.3392L3.73987 65.2403L3.8497 65.1471L3.96217 65.0512L4.07502 64.9569L4.17617 64.8735L4.27656 64.7886L4.38337 64.6983L4.48905 64.6108L4.59209 64.5259L4.6921 64.4409L4.79778 64.3534L4.90346 64.2673L5.01065 64.1768L5.12576 64.0824L5.24125 63.9892L6.69281 64.0016ZM5.24125 63.9892C5.72359 63.5944 6.43956 63.6653 6.83435 64.1477C7.22913 64.63 7.15855 65.346 6.67583 65.7408L5.24125 63.9892ZM9.93184 69.7309L5.22464 65.7283L6.69281 64.0016L11.4 68.0042L11.3596 69.763L9.93184 69.7309ZM11.4 68.0042C11.8756 68.4088 11.9341 69.1263 11.5295 69.6018C11.1249 70.077 10.4074 70.1355 9.93184 69.7309L11.4 68.0042ZM16.5163 65.7661L11.3596 69.763L9.97223 67.9721L15.1286 63.9752L16.6247 64.0711L16.5163 65.7661ZM15.1286 63.9752C15.6222 63.5929 16.3356 63.6835 16.7179 64.1768C17.1002 64.6704 17.0096 65.3837 16.5163 65.7661L15.1286 63.9752ZM18.9907 69.6558L15.0202 65.6702L16.6247 64.0711L20.5951 68.057L20.52 69.7252L18.9907 69.6558ZM20.5951 68.057C21.036 68.4994 21.0344 69.218 20.5925 69.6588C20.1501 70.0992 19.4315 70.0981 18.9907 69.6558L20.5951 68.057ZM25.2774 65.7423L20.52 69.7252L19.0658 67.9876L23.8232 64.0046L25.3167 64.0394L25.2774 65.7423ZM23.8232 64.0046C24.3029 63.6042 25.0189 63.6669 25.4193 64.1462C25.8198 64.6259 25.7571 65.3419 25.2774 65.7423L23.8232 64.0046ZM28.1179 69.6894L23.7843 65.7076L25.3167 64.0394L29.6498 68.0208L29.6125 69.7226L28.1179 69.6894ZM29.6498 68.0208C30.1099 68.4435 30.1409 69.161 29.7182 69.6211C29.2954 70.0811 28.578 70.1117 28.1179 69.6894L29.6498 68.0208ZM34.3559 65.7325L29.6125 69.7226L28.1553 67.9876L32.8991 63.9975L34.4352 64.0711L34.3559 65.7325ZM32.8991 63.9975C33.3773 63.5959 34.0932 63.6582 34.4948 64.1367C34.8968 64.6149 34.8341 65.3309 34.3559 65.7325L32.8991 63.9975ZM36.7431 69.6505L32.8198 65.6589L34.4352 64.0711L38.3585 68.0627L38.3475 69.6614L36.7431 69.6505ZM38.3585 68.0627C38.7963 68.5077 38.7895 69.2263 38.3445 69.6641C37.8995 70.1023 37.1809 70.0951 36.7431 69.6505L38.3585 68.0627ZM42.3848 65.6702L38.3475 69.6614L36.754 68.0514L40.7913 64.0601L42.3123 63.9933L42.3848 65.6702ZM40.7913 64.0601C41.2348 63.6208 41.9538 63.625 42.3931 64.0684C42.8324 64.5119 42.8283 65.2309 42.3848 65.6702L40.7913 64.0601Z" fill="#7B3F2B"/>
<path d="M10.6424 21.7607C10.0208 21.7607 9.51465 21.2534 9.51465 20.6276C9.51465 20.0019 10.0208 19.4946 10.6424 19.4946V21.7607ZM27.8479 21.7607H10.6424V19.4946H27.8479V21.7607ZM27.8479 19.4946C28.4695 19.4946 28.9756 20.0019 28.9756 20.6276C28.9756 21.2534 28.4695 21.7607 27.8479 21.7607V19.4946Z" fill="#7B3F2B"/>
<path d="M10.6424 30.3456C10.0208 30.3456 9.51465 29.8384 9.51465 29.2126C9.51465 28.5868 10.0208 28.0796 10.6424 28.0796V30.3456ZM27.8479 30.3456H10.6424V28.0796H27.8479V30.3456ZM27.8479 28.0796C28.4695 28.0796 28.9756 28.5868 28.9756 29.2126C28.9756 29.8384 28.4695 30.3456 27.8479 30.3456V28.0796Z" fill="#7B3F2B"/>
<path d="M10.6424 38.9296C10.0208 38.9296 9.51465 38.422 9.51465 37.7966C9.51465 37.1708 10.0208 36.6636 10.6424 36.6636V38.9296ZM27.8479 38.9296H10.6424V36.6636H27.8479V38.9296ZM27.8479 36.6636C28.4695 36.6636 28.9756 37.1708 28.9756 37.7966C28.9756 38.422 28.4695 38.9296 27.8479 38.9296V36.6636Z" fill="#7B3F2B"/>
<path d="M10.6424 47.5131C10.0208 47.5131 9.51465 47.0059 9.51465 46.3801C9.51465 45.7547 10.0208 45.2471 10.6424 45.2471V47.5131ZM27.8479 47.5131H10.6424V45.2471H27.8479V47.5131ZM27.8479 45.2471C28.4695 45.2471 28.9756 45.7547 28.9756 46.3801C28.9756 47.0059 28.4695 47.5131 27.8479 47.5131V45.2471Z" fill="#7B3F2B"/>
<path d="M38.171 21.7519V19.5024C38.7968 19.5024 39.3044 20.0071 39.3044 20.6272C39.3044 21.2473 38.7968 21.7519 38.171 21.7519ZM33.009 21.7519V19.5024H38.171V21.7519H33.009ZM33.009 19.5024V21.7519C32.3836 21.7519 31.876 21.2473 31.876 20.6272C31.876 20.0071 32.3836 19.5024 33.009 19.5024Z" fill="#7B3F2B"/>
<path d="M38.171 30.3368V28.0874C38.7968 28.0874 39.3044 28.592 39.3044 29.2121C39.3044 29.8322 38.7968 30.3368 38.171 30.3368ZM33.009 30.3368V28.0874H38.171V30.3368H33.009ZM33.009 28.0874V30.3368C32.3836 30.3368 31.876 29.8322 31.876 29.2121C31.876 28.592 32.3836 28.0874 33.009 28.0874Z" fill="#7B3F2B"/>
<path d="M38.171 38.9213V36.6719C38.7968 36.6719 39.3044 37.1765 39.3044 37.7966C39.3044 38.4167 38.7968 38.9213 38.171 38.9213ZM33.009 38.9213V36.6719H38.171V38.9213H33.009ZM33.009 36.6719V38.9213C32.3836 38.9213 31.876 38.4167 31.876 37.7966C31.876 37.1765 32.3836 36.6719 33.009 36.6719Z" fill="#7B3F2B"/>
<path d="M38.171 47.5058V45.2563C38.7968 45.2563 39.3044 45.761 39.3044 46.3811C39.3044 47.0012 38.7968 47.5058 38.171 47.5058ZM33.009 47.5058V45.2563H38.171V47.5058H33.009ZM33.009 45.2563V47.5058C32.3836 47.5058 31.876 47.0012 31.876 46.3811C31.876 45.761 32.3836 45.2563 33.009 45.2563Z" fill="#7B3F2B"/>
<path d="M82.5078 13.1424H46.1164V10.876H82.5078V13.1424ZM92.5608 20.929H90.2947L90.2849 20.5285L90.2543 20.1353L90.2056 19.7473L90.1362 19.3664L90.0486 18.9898L89.943 18.6214L89.8207 18.2614L89.6814 17.9081L89.5244 17.5631L89.3519 17.2268L89.1659 16.903L88.9613 16.586L88.7431 16.2788L88.511 15.9855L88.2649 15.7017L88.0064 15.4307L87.735 15.1722L87.4516 14.9261L87.1583 14.694L86.8511 14.4754L86.5341 14.2713L86.2099 14.0848L85.8736 13.9123L85.5286 13.7553L85.1758 13.6164L84.8157 13.4941L84.4473 13.3885L84.0703 13.3009L83.6895 13.2311L83.3015 13.1824L82.9082 13.1518L82.5078 13.1424V10.876L83.0222 10.8888L83.5325 10.9277L84.0344 10.993L84.5292 11.082L85.0146 11.1945L85.4913 11.3308L85.957 11.4893L86.4129 11.6701L86.8579 11.8716L87.2916 12.0939L87.7158 12.3389L88.1215 12.6015L88.5152 12.8808L88.8945 13.1798L89.2587 13.4953L89.6078 13.8289L89.9415 14.178L90.257 14.5422L90.5559 14.9219L90.8356 15.3152L91.0982 15.7213L91.3428 16.1452L91.5651 16.5788L91.767 17.0238L91.9474 17.4797L92.106 17.9455L92.2422 18.4225L92.3551 18.9075L92.4438 19.4027L92.5094 19.9043L92.5483 20.4145L92.5608 20.929ZM90.2947 47.6304V20.929H92.5608V47.6304H90.2947ZM82.5078 57.683V55.417L82.9082 55.4072L83.3015 55.3766L83.6895 55.3283L84.0703 55.2585L84.4473 55.1709L84.8157 55.0652L85.1758 54.9429L85.5286 54.804L85.8736 54.647L86.2099 54.4746L86.5341 54.2881L86.8511 54.0839L87.1583 53.8654L87.4516 53.6333L87.735 53.3872L88.0064 53.1287L88.2649 52.8577L88.511 52.5739L88.7431 52.2806L88.9613 51.9734L89.1659 51.6564L89.3519 51.3325L89.5244 50.9962L89.6814 50.6513L89.8207 50.298L89.943 49.938L90.0486 49.5696L90.1362 49.1929L90.2056 48.8121L90.2543 48.4241L90.2849 48.0308L90.2947 47.6304H92.5608L92.5483 48.1448L92.5094 48.6547L92.4438 49.1567L92.3551 49.6519L92.2422 50.1369L92.106 50.6139L91.9474 51.0797L91.767 51.5356L91.5651 51.9806L91.3428 52.4142L91.0982 52.8381L90.8356 53.2442L90.5559 53.6374L90.257 54.0171L89.9415 54.3813L89.6078 54.7304L89.2587 55.0641L88.8945 55.3796L88.5152 55.6785L88.1215 55.9578L87.7158 56.2205L87.2916 56.4655L86.8579 56.6878L86.4129 56.8893L85.957 57.0701L85.4913 57.2286L85.0146 57.3649L84.5292 57.4773L84.0344 57.5664L83.5325 57.6317L83.0222 57.6706L82.5078 57.683ZM46.1164 55.417H82.5078V57.683H46.1164L44.9834 56.55L46.1164 55.417ZM46.1164 57.683C45.491 57.683 44.9834 57.1758 44.9834 56.55C44.9834 55.9246 45.491 55.417 46.1164 55.417V57.683ZM47.2494 12.0094V56.55H44.9834V12.0094L46.1164 10.876L47.2494 12.0094ZM44.9834 12.0094C44.9834 11.3836 45.491 10.876 46.1164 10.876C46.7422 10.876 47.2494 11.3836 47.2494 12.0094H44.9834Z" fill="#7B3F2B"/>
<path d="M91.4283 24.0155H46.2287V21.7495H91.4283L92.5617 22.8825L91.4283 24.0155ZM91.4283 21.7495C92.0541 21.7495 92.5617 22.2571 92.5617 22.8825C92.5617 23.5083 92.0541 24.0155 91.4283 24.0155V21.7495ZM90.2953 30.725V22.8825H92.5617V30.725L91.4283 31.858L90.2953 30.725ZM92.5617 30.725C92.5617 31.3507 92.0541 31.858 91.4283 31.858C90.8029 31.858 90.2953 31.3507 90.2953 30.725H92.5617ZM46.2287 29.5919H91.4283V31.858H46.2287L45.0957 30.725L46.2287 29.5919ZM46.2287 31.858C45.603 31.858 45.0957 31.3507 45.0957 30.725C45.0957 30.0996 45.603 29.5919 46.2287 29.5919V31.858ZM47.3617 22.8825V30.725H45.0957V22.8825L46.2287 21.7495L47.3617 22.8825ZM45.0957 22.8825C45.0957 22.2571 45.603 21.7495 46.2287 21.7495C46.8541 21.7495 47.3617 22.2571 47.3617 22.8825H45.0957Z" fill="#7B3F2B"/>
</svg>
