<svg width="83" height="65" viewBox="0 0 83 65" fill="none" xmlns="http://www.w3.org/2000/svg">
<path d="M17.6787 0H44.5495V2.51725H17.6787L16.5543 0.693485L17.6787 0ZM17.6787 2.51725C16.9837 2.51725 16.4201 1.95366 16.4201 1.25863C16.4201 0.563592 16.9837 0 17.6787 0V2.51725ZM0.134192 33.322L16.5543 0.693485L18.8031 1.82408L2.38298 34.4523L1.25859 35.1458L0.134192 33.322ZM2.38298 34.4523C2.07111 35.0732 1.31439 35.3234 0.693444 35.0115C0.0725002 34.6994 -0.177675 33.9426 0.134192 33.322L2.38298 34.4523ZM13.6279 35.1458H1.25859V32.6285H13.6279L14.8229 34.2793L13.6279 35.1458ZM13.6279 32.6285C14.3226 32.6285 14.8865 33.1921 14.8865 33.8871C14.8865 34.5822 14.3226 35.1458 13.6279 35.1458V32.6285ZM2.62231 63.3496L12.4325 33.495L14.8229 34.2793L5.01308 64.1342L4.71206 64.6268L2.62231 63.3496ZM5.01308 64.1342C4.797 64.7936 4.08492 65.1535 3.42553 64.9371C2.76584 64.721 2.40623 64.0089 2.62231 63.3496L5.01308 64.1342ZM43.0977 25.8146L4.71206 64.6268L2.92363 62.857L41.3096 24.0447L42.2036 23.6709L43.0977 25.8146ZM41.3096 24.0447C41.7975 23.5521 42.5958 23.5475 43.0887 24.0354C43.5813 24.5234 43.586 25.322 43.0977 25.8146L41.3096 24.0447ZM25.1443 23.6709H42.2036V26.1884H25.1443L24.1712 24.1312L25.1443 23.6709ZM25.1443 26.1884C24.4493 26.1884 23.8857 25.6245 23.8857 24.9295C23.8857 24.2348 24.4493 23.6709 25.1443 23.6709V26.1884ZM45.5226 2.0572L26.1171 25.7281L24.1712 24.1312L43.5767 0.46036L44.5495 0L45.5226 2.0572ZM43.5767 0.46036C44.0169 -0.0756416 44.812 -0.154383 45.348 0.285826C45.884 0.725726 45.9628 1.5212 45.5226 2.0572L43.5767 0.46036Z" fill="#7B3F2B"/>
<path d="M57.9823 8.91618C57.2872 8.91618 56.7236 8.35259 56.7236 7.65755C56.7236 6.96252 57.2872 6.39893 57.9823 6.39893V8.91618ZM78.6681 8.91618H57.9823V6.39893H78.6681V8.91618ZM78.6681 6.39893C79.3628 6.39893 79.9267 6.96252 79.9267 7.65755C79.9267 8.35259 79.3628 8.91618 78.6681 8.91618V6.39893Z" fill="#7B3F2B"/>
<path d="M55.6385 32.0047C54.9435 32.0047 54.3799 31.4442 54.3799 30.7538C54.3799 30.0634 54.9435 29.5029 55.6385 29.5029V32.0047ZM81.3263 32.0047H55.6385V29.5029H81.3263V32.0047ZM81.3263 29.5029C82.0213 29.5029 82.5849 30.0634 82.5849 30.7538C82.5849 31.4442 82.0213 32.0047 81.3263 32.0047V29.5029Z" fill="#7B3F2B"/>
<path d="M44.5496 50.4074C43.8549 50.4074 43.291 49.8438 43.291 49.1488C43.291 48.4537 43.8549 47.8901 44.5496 47.8901V50.4074ZM73.765 50.4074H44.5496V47.8901H73.765V50.4074ZM73.765 47.8901C74.46 47.8901 75.0236 48.4537 75.0236 49.1488C75.0236 49.8438 74.46 50.4074 73.765 50.4074V47.8901Z" fill="#7B3F2B"/>
<path d="M55.6385 15.7112C54.9435 15.7112 54.3799 15.1492 54.3799 14.4557C54.3799 13.7622 54.9435 13.2002 55.6385 13.2002V15.7112ZM62.5789 15.7112H55.6385V13.2002H62.5789V15.7112ZM62.5789 13.2002C63.274 13.2002 63.8376 13.7622 63.8376 14.4557C63.8376 15.1492 63.274 15.7112 62.5789 15.7112V13.2002Z" fill="#7B3F2B"/>
<path d="M38.0658 44.049C37.3739 44.049 36.8115 43.4854 36.8115 42.7904C36.8115 42.0953 37.3739 41.5317 38.0658 41.5317V44.049ZM62.5783 44.049H38.0658V41.5317H62.5783V44.049ZM62.5783 41.5317C63.2703 41.5317 63.8323 42.0953 63.8323 42.7904C63.8323 43.4854 63.2703 44.049 62.5783 44.049V41.5317Z" fill="#7B3F2B"/>
<path d="M16.4863 10.4297C16.7982 9.80872 17.5549 9.55854 18.1759 9.87072C18.7968 10.1826 19.047 10.9393 18.7348 11.5603L16.4863 10.4297ZM8.44787 26.4003L16.4863 10.4297L18.7348 11.5603L10.6963 27.5309L8.44787 26.4003ZM10.6963 27.5309C10.3845 28.1515 9.62775 28.402 9.00681 28.0898C8.38587 27.7779 8.13569 27.0212 8.44787 26.4003L10.6963 27.5309Z" fill="#7B3F2B"/>
</svg>
