<svg width="84" height="65" viewBox="0 0 84 65" fill="none" xmlns="http://www.w3.org/2000/svg">
<path d="M62.3785 19.6138V13.7979M7.66309 14.4593V53.6427V14.4593Z" stroke="#7B3F2B" stroke-width="1.99035" stroke-linecap="round" stroke-linejoin="round"/>
<path d="M7.66309 53.6426C7.66309 59.0936 19.9108 63.4955 35.0322 63.4955C38.9551 63.4955 42.6955 63.199 46.0939 62.6516C46.8465 62.5375 47.5764 62.4007 48.3062 62.2638" stroke="#7B3F2B" stroke-width="1.99035" stroke-linecap="round" stroke-linejoin="round"/>
<path fill-rule="evenodd" clip-rule="evenodd" d="M35.0322 1.50439C50.1308 1.50439 62.3785 7.00102 62.3785 13.7977C62.3785 20.5943 50.1308 26.1138 35.0322 26.1138C32.5233 26.1138 30.1057 25.9541 27.825 25.6804V34.0508C27.825 36.0807 26.16 37.7456 24.1302 37.7456C22.1003 37.7456 20.4353 36.0807 20.4353 34.0508V26.798C20.4353 28.3489 19.1581 29.6261 17.6072 29.6261C16.0563 29.6261 14.7791 28.3489 14.7791 26.798V22.0768C10.3544 19.9101 7.66309 16.9907 7.66309 13.7977C7.66309 7.00102 19.9108 1.50439 35.0322 1.50439Z" stroke="#7B3F2B" stroke-width="1.99035" stroke-linecap="round" stroke-linejoin="round"/>
<path d="M54.4412 11.8132C41.0532 5.13061 27.6423 5.13061 14.2314 11.8132" stroke="#7B3F2B" stroke-width="1.99035" stroke-linecap="round" stroke-linejoin="round"/>
<path d="M40.4603 35.0088C38.5901 35.0088 36.7198 35.0088 34.8496 35.0088" stroke="#7B3F2B" stroke-width="1.99035" stroke-linecap="round" stroke-linejoin="round"/>
<path d="M37.655 35.0088C30.1057 45.9792 8.30165 54.2356 2.14361 44.9301C0.273387 42.1019 1.23131 38.7264 3.83137 35.4649" stroke="#7B3F2B" stroke-width="1.99035" stroke-linecap="round" stroke-linejoin="round"/>
<path d="M59.6574 33.3768C59.908 32.7912 60.4836 32.4115 61.1205 32.4115C61.8007 32.4115 62.4058 32.8439 62.6261 33.4874L67.021 46.3233C68.5341 50.7424 65.2499 55.3382 60.579 55.3382C55.692 55.3382 52.3962 50.3426 54.3191 45.8498L59.6574 33.3768Z" stroke="#7B3F2B" stroke-width="1.99"/>
</svg>
