<svg width="116" height="70" viewBox="0 0 116 70" fill="none" xmlns="http://www.w3.org/2000/svg">
<path d="M46.4276 23.8097L47.3247 25.9348L47.3232 25.936L46.6268 26.2287L45.9301 26.5217L45.2334 26.8144L44.5355 27.1071L43.8391 27.3998L43.1424 27.6937L42.4445 27.9864L41.7478 28.2794L41.0499 28.5733L40.3535 28.8661L39.6568 29.1603L38.9589 29.453L38.2622 29.7469L37.5643 30.0396L36.8691 30.3326L36.1712 30.6265L35.4732 30.922L34.7766 31.2147L34.0814 31.5074L33.3835 31.8016L32.6868 32.0956L31.9901 32.3898L31.2937 32.6837L30.597 32.9779L29.9018 33.2706L29.2052 33.5646L28.5085 33.8588L27.8133 34.1528L27.1169 34.447L26.423 34.7409L25.7276 35.0351L25.0324 35.3291L24.1325 33.2042L24.8279 32.91L25.5231 32.6161L26.2197 32.3219L26.9162 32.0279L27.6113 31.7337L28.308 31.4397L29.0047 31.1455L29.6999 30.8528L30.3965 30.5589L31.093 30.2647L31.7896 29.9707L32.4863 29.6765L33.1842 29.3825L33.8822 29.0871L34.5786 28.7944L35.274 28.5014L35.9719 28.2075L36.6699 27.912L37.3678 27.6193L38.0645 27.3251L38.7624 27.0324L39.4588 26.7384L40.1555 26.4457L40.8534 26.1515L41.5501 25.8588L42.248 25.5661L42.9444 25.2719L43.6411 24.9792L44.339 24.6865L45.0357 24.3938L45.7321 24.1011L46.4288 23.8084L46.4276 23.8097ZM46.4288 23.8084C47.0157 23.5618 47.6933 23.8382 47.9399 24.4251C48.1865 25.0118 47.9101 25.6894 47.3232 25.936L46.4288 23.8084ZM69.6506 14.4003L68.7535 16.5254H69.6494L68.9527 16.8194L68.2548 17.1136L67.5556 17.409L66.8561 17.703L66.1597 17.9957L65.4618 18.2899L64.7639 18.5838L64.0657 18.878L63.3678 19.1723L62.6698 19.4662L61.9719 19.7604L61.274 20.0544L60.5761 20.3486L59.8781 20.6425L59.1802 20.9367L58.4823 21.2307L57.7843 21.5249L57.0864 21.8189L56.3885 22.1131L55.6918 22.407L54.9939 22.7012L54.296 22.9952L53.5965 23.2907L52.9001 23.5834L52.2034 23.8761L51.5068 24.1703L50.8088 24.4642L50.1124 24.7584L49.4157 25.0524L48.7178 25.3466L48.0211 25.6406L47.3247 25.9348L46.4276 23.8097L47.124 23.5157L47.8207 23.2215L48.5186 22.9275L49.2153 22.6333L49.9117 22.3394L50.6096 22.0452L51.3063 21.7512L52.0057 21.4557L52.7021 21.163L53.3988 20.8703L54.0967 20.5761L54.7947 20.2822L55.4913 19.988L56.1893 19.694L56.8872 19.3998L57.5851 19.1058L58.283 18.8116L58.981 18.5174L59.6789 18.2235L60.3768 17.9293L61.0748 17.6353L61.7727 17.3411L62.4706 17.0471L63.1685 16.7529L63.8667 16.459L64.5646 16.1648L65.2626 15.8708L65.9618 15.5754L66.6612 15.2812L67.3576 14.9885L68.0555 14.6945L68.755 14.4003H69.6506ZM68.755 14.4003C69.3404 14.1537 70.018 14.4301 70.2646 15.0155C70.5112 15.6012 70.2348 16.2788 69.6494 16.5254L68.755 14.4003ZM91.9294 23.7949L91.0322 25.9197H91.0307L90.3356 25.6258L89.6404 25.3316L88.9452 25.0376L88.2513 24.7434L87.5546 24.4507L86.858 24.1567L86.1643 23.8625L85.4676 23.5698L84.7725 23.2759L84.0758 22.9832L83.3806 22.689L82.6854 22.3975L81.9873 22.102L81.2921 21.8093L80.5969 21.5166L79.9002 21.2239L79.2038 20.9312L78.5071 20.637L77.8092 20.3431L77.1141 20.0489L76.4186 19.7577L75.7222 19.4635L75.0255 19.1708L74.3289 18.8768L73.6324 18.5838L72.9345 18.2886L72.2391 17.9957L71.5412 17.703L70.8432 17.4075L70.1468 17.1136L69.4501 16.8194L68.7535 16.5254L69.6506 14.4003L70.3473 14.6945L71.044 14.9885L71.7404 15.2827L72.4358 15.5754L73.1337 15.8681L73.8317 16.1635L74.5268 16.4562L75.2235 16.7489L75.9199 17.0431L76.6166 17.3358L77.3133 17.6298L78.0112 17.924L78.7064 18.218L79.4015 18.5094L80.0982 18.8036L80.7949 19.0963L81.4913 19.389L82.1892 19.6845L82.8847 19.9772L83.5798 20.2699L84.2778 20.5638L84.9729 20.8581L85.6696 21.1508L86.3648 21.445L87.0615 21.7377L87.7579 22.0316L88.4518 22.3258L89.1485 22.6185L89.8449 22.9125L90.5403 23.2067L91.2355 23.5007L91.9307 23.7949H91.9294ZM91.9307 23.7949C92.5161 24.0427 92.7912 24.7218 92.5434 25.3072C92.2953 25.8927 91.6164 26.1678 91.0307 25.9197L91.9307 23.7949ZM114.221 35.313L113.327 33.1879L113.326 35.313L112.629 35.0188L111.932 34.7249L111.237 34.4319L110.541 34.1392L109.843 33.8438L109.148 33.5511L108.451 33.2584L107.754 32.9644L107.058 32.6717L106.36 32.3775L105.663 32.0848L104.967 31.7906L104.27 31.4979L103.573 31.2039L102.877 30.9112L102.18 30.6185L101.484 30.3243L100.787 30.0316L100.091 29.7374L99.3938 29.4447L98.6974 29.1507L98.0007 28.858L97.3028 28.5638L96.6061 28.2711L95.9097 27.9772L95.213 27.6842L94.5151 27.389L93.8199 27.096L93.1233 26.8033L92.4253 26.5079L91.7287 26.2139L91.0322 25.9197L91.9294 23.7949L92.6258 24.0888L93.3225 24.383L94.0177 24.6757L94.7143 24.9684L95.4123 25.2639L96.1074 25.5566L96.8041 25.8493L97.5008 26.1435L98.1972 26.4362L98.8951 26.7302L99.5918 27.0229L100.288 27.3171L100.985 27.6098L101.682 27.904L102.378 28.1967L103.075 28.4906L103.771 28.7834L104.468 29.0761L105.164 29.3703L105.861 29.663L106.558 29.9572L107.254 30.2499L107.952 30.5438L108.649 30.8365L109.346 31.1307L110.042 31.4234L110.74 31.7189L111.435 32.0116L112.132 32.3043L112.83 32.5998L113.526 32.8937L114.223 33.1879L114.221 35.313ZM114.223 33.1879C114.808 33.4345 115.084 34.1137 114.837 34.6991C114.59 35.2845 113.911 35.5596 113.326 35.313L114.223 33.1879ZM91.8968 44.7074L90.9997 42.5823L91.0009 42.581L91.6976 42.2883L92.3943 41.9956L93.0907 41.7029L93.7886 41.4102L94.4853 41.1175L95.182 40.8233L95.8799 40.5306L96.5763 40.2379L97.2745 39.9437L97.9724 39.651L98.6689 39.3583L99.3655 39.0656L100.065 38.7701L100.763 38.4774L101.461 38.1832L102.157 37.8905L102.854 37.5978L103.552 37.3038L104.25 37.0096L104.949 36.7142L105.647 36.4215L106.346 36.1275L107.043 35.8348L107.741 35.5406L108.439 35.2466L109.137 34.9524L109.835 34.6585L110.534 34.363L111.233 34.0688L111.93 33.7761L112.628 33.4819L113.327 33.1879L114.221 35.313L113.525 35.607L112.827 35.9012L112.128 36.1964L111.429 36.4906L110.732 36.7833L110.034 37.0775L109.336 37.3715L108.638 37.6657L107.94 37.9597L107.241 38.2551L106.542 38.5493L105.844 38.842L105.147 39.1347L104.449 39.4287L103.751 39.7229L103.052 40.0184L102.355 40.3111L101.657 40.605L100.959 40.8977L100.263 41.1907L99.5632 41.4861L98.8668 41.7788L98.1689 42.0715L97.471 42.3655L96.7743 42.6582L96.0764 42.9509L95.3797 43.2451L94.6833 43.5378L93.9853 43.8305L93.2887 44.1232L92.592 44.4159L91.8956 44.7086L91.8968 44.7074ZM91.8956 44.7086C91.3087 44.9555 90.631 44.6791 90.3844 44.0921C90.1378 43.5052 90.4143 42.8276 91.0009 42.581L91.8956 44.7086ZM68.7061 54.1167L69.6032 51.9919H68.7061L69.4028 51.6977L70.0992 51.4035L70.7959 51.1095L71.4925 50.8153L72.189 50.5213L72.8856 50.2271L73.5823 49.9332L74.2787 49.639L74.9754 49.345L75.6721 49.0508L76.3685 48.7569L77.0652 48.4626L77.7619 48.1687L78.4598 47.8745L79.1577 47.579L79.8541 47.2863L80.5496 46.9936L81.246 46.6997L81.9427 46.4055L82.6393 46.1115L83.3358 45.8173L84.0324 45.5233L84.7291 45.2291L85.4255 44.9352L86.1222 44.641L86.8189 44.347L87.5153 44.0528L88.2132 43.7588L88.9099 43.4646L89.6066 43.1707L90.303 42.8765L90.9997 42.5823L91.8968 44.7074L91.2001 45.0016L90.5037 45.2955L89.8071 45.5897L89.1104 45.8837L88.4125 46.1779L87.716 46.4719L87.0194 46.7661L86.3227 47.06L85.6263 47.3542L84.9296 47.6482L84.2329 47.9424L83.5365 48.2364L82.8398 48.5306L82.1431 48.8245L81.4467 49.1187L80.7488 49.4142L80.0521 49.7069L79.3569 49.9996L78.659 50.2935L77.9623 50.5878L77.2657 50.8817L76.5692 51.1759L75.8726 51.4699L75.1759 51.7641L74.4795 52.0583L73.7828 52.3522L73.0861 52.6465L72.3897 52.9404L71.693 53.2346L70.9963 53.5286L70.2999 53.8228L69.6032 54.1167H68.7061ZM69.6032 54.1167C69.0178 54.3633 68.339 54.0884 68.0921 53.5028C67.8455 52.9174 68.1207 52.2385 68.7061 51.9919L69.6032 54.1167ZM46.4113 44.7237L47.3084 42.5986L48.0048 42.8928L48.7015 43.1867L49.3967 43.4797L50.0934 43.7724L50.7928 44.0678L51.488 44.3605L52.1844 44.6532L52.8811 44.9472L53.5777 45.2399L54.2742 45.5341L54.9708 45.8268L55.6675 46.121L56.3639 46.4137L57.0606 46.7077L57.7573 47.0004L58.4537 47.2946L59.1516 47.5873L59.8483 47.88L60.545 48.174L61.2414 48.4669L61.9381 48.7609L62.6348 49.0536L63.3312 49.3478L64.0279 49.6405L64.7245 49.9344L65.4209 50.2271L66.1189 50.5226L66.8156 50.8153L67.5122 51.1083L68.2102 51.4035L68.9066 51.6977L69.6032 51.9919L68.7061 54.1167L68.0094 53.8228L67.313 53.5286L66.6178 53.2359L65.9212 52.9432L65.2217 52.6477L64.5266 52.355L63.8299 52.0623L63.1334 51.7681L62.4368 51.4754L61.7404 51.1814L61.0437 50.8885L60.347 50.5945L59.6506 50.3018L58.9539 50.0076L58.2572 49.7149L57.5593 49.4222L56.8626 49.1282L56.1662 48.8355L55.4695 48.5413L54.7731 48.2486L54.0764 47.9544L53.3798 47.6617L52.6833 47.3678L51.9867 47.0751L51.29 46.7809L50.5936 46.4882L49.8956 46.1927L49.199 45.9L48.5023 45.6073L47.8044 45.3118L47.1077 45.0176L46.4113 44.7237ZM46.4113 44.7237C45.8259 44.4771 45.5507 43.7979 45.7973 43.2125C46.0439 42.6271 46.723 42.352 47.3084 42.5986L46.4113 44.7237ZM24.1325 33.2042L25.0324 35.3291V33.2042L25.7276 33.4982L26.423 33.7924L27.1181 34.0863L27.8121 34.3806L28.5072 34.6733L29.2039 34.9675L29.8991 35.2614L30.5943 35.5541L31.2909 35.8483L31.9861 36.141L32.6813 36.4337L33.3792 36.7277L34.0746 37.0219L34.7698 37.3134L35.4677 37.6088L36.1616 37.9L36.8583 38.1927L37.5547 38.4869L38.2514 38.7796L38.9481 39.0736L39.6445 39.3665L40.3412 39.6605L41.0376 39.9532L41.7343 40.2474L42.4309 40.5401L43.1289 40.8356L43.824 41.1283L44.5207 41.421L45.2186 41.7164L45.9153 42.0104L46.6117 42.3046L47.3084 42.5986L46.4113 44.7237L45.7146 44.4295L45.0179 44.1355L44.3215 43.8413L43.6263 43.5486L42.9296 43.2559L42.2317 42.9604L41.5365 42.6677L40.8399 42.375L40.1432 42.0811L39.4468 41.7881L38.7501 41.4942L38.0534 41.2014L37.357 40.9072L36.6603 40.6145L35.9637 40.3206L35.2672 40.0279L34.5706 39.7337L33.8754 39.441L33.1775 39.1468L32.482 38.8528L31.7869 38.5614L31.0889 38.2659L30.3938 37.9732L29.6971 37.6792L29.0019 37.3865L28.3068 37.0923L27.6101 36.7984L26.9149 36.5054L26.2182 36.2115L25.5231 35.9172L24.8279 35.6233L24.1325 35.3291V33.2042ZM24.1325 35.3291C23.5471 35.0812 23.2719 34.4021 23.52 33.8167C23.7681 33.2313 24.447 32.9561 25.0324 33.2042L24.1325 35.3291Z" fill="#7B3F2B"/>
<path d="M31.7603 30.7068C31.7809 30.0713 32.3162 29.5711 32.9517 29.5914C33.5872 29.612 34.0874 30.1473 34.0671 30.7828L31.7603 30.7068ZM35.372 33.9514L33.7052 35.5477H33.7065L33.586 35.4204L33.4679 35.2889L33.3582 35.1616L33.2459 35.0287L33.1374 34.8876L33.0399 34.7591L32.9394 34.6208L32.8432 34.4784L32.7512 34.3388L32.6617 34.1925L32.579 34.0501L32.4976 33.9025L32.4219 33.7534L32.3512 33.6098L32.2836 33.4607L32.2159 33.3021L32.1563 33.149L32.1006 32.9946L32.049 32.8387L32.0004 32.6801L31.9555 32.5162L31.9177 32.3563L31.8839 32.2017L31.8525 32.0403L31.8255 31.8696L31.8039 31.707L31.7861 31.5444L31.7726 31.3777L31.7631 31.2123L31.7578 31.0417V30.8735L31.7603 30.7068L34.0671 30.7828L34.0644 30.8953V31.0063L34.0671 31.1093L34.0739 31.2178L34.0819 31.3248L34.0942 31.4306L34.1077 31.5363L34.124 31.6338L34.1443 31.7356L34.1674 31.8438L34.1917 31.9443L34.2175 32.0403L34.2473 32.1393L34.2799 32.2383L34.3165 32.3358L34.3543 32.4348L34.3924 32.5257L34.4383 32.6232L34.4871 32.7262L34.536 32.8209L34.5874 32.9147L34.643 33.0109L34.6999 33.1029L34.7623 33.1991L34.8259 33.2926L34.8938 33.3848L34.9695 33.4865L35.0402 33.576L35.1174 33.668L35.2001 33.7657L35.2828 33.8564L35.3707 33.9514H35.372ZM35.3707 33.9514C35.8113 34.4107 35.7963 35.1413 35.3369 35.5816C34.8776 36.0221 34.1471 36.0071 33.7065 35.5477L35.3707 33.9514ZM40.1467 36.7729L39.1924 38.8735L39.2616 38.902L39.0366 38.8166L38.817 38.7299L38.6018 38.6432L38.3847 38.5522L38.1747 38.4627L37.9675 38.3708L37.764 38.2785L37.5623 38.1851L37.3658 38.0901L37.1691 37.9939L36.9766 37.8951L36.7924 37.7974L36.604 37.6971L36.421 37.5942L36.2489 37.4952L36.0714 37.3909L35.8953 37.2824L35.7314 37.1794L35.566 37.0736L35.4018 36.9639L35.2407 36.8516L35.0861 36.7403L34.9357 36.6306L34.7813 36.5128L34.635 36.3948L34.4979 36.2838L34.3558 36.1645L34.2175 36.0412L34.0847 35.9204L33.9558 35.7986L33.8298 35.675L33.7052 35.5477L35.372 33.9514L35.4615 34.0434L35.5577 34.1368L35.6567 34.2318L35.7597 34.3253L35.8627 34.4163L35.9697 34.5055L36.0877 34.6032L36.2015 34.6939L36.318 34.7821L36.4441 34.8756L36.5714 34.9678L36.7002 35.0558L36.8318 35.144L36.9698 35.2332L37.1149 35.3254L37.2558 35.4122L37.4036 35.4976L37.5623 35.5883L37.7154 35.675L37.8713 35.7592L38.0392 35.8459L38.2046 35.9314L38.374 36.0139L38.5489 36.0981L38.7263 36.1808L38.9108 36.2647L39.0962 36.3459L39.2847 36.4273L39.4744 36.5073L39.6736 36.586L39.8743 36.6672L40.0776 36.7444L40.1467 36.7729ZM40.0776 36.7444C40.6725 36.9694 40.9732 37.6363 40.7484 38.2312C40.5234 38.8261 39.8565 39.1268 39.2616 38.902L40.0776 36.7444ZM61.0171 41.897L60.6269 44.1712L59.9152 44.0492L59.2038 43.9271L58.4896 43.8038L57.7753 43.6805L57.0599 43.5545L56.3469 43.4284L55.6329 43.3011L54.92 43.1711L54.2085 43.0407L53.4998 42.9067L52.7924 42.7698L52.0874 42.6315L51.387 42.4892L50.6876 42.3443L49.9936 42.1952L49.3052 42.0433L48.6196 41.8862L47.9392 41.7248L47.2671 41.5597L46.599 41.3903L45.9361 41.2154L45.2803 41.0337L44.6338 40.848L43.9942 40.6555L43.3612 40.459L42.7377 40.253L42.1225 40.0418L41.5168 39.8248L40.9191 39.5972L40.3337 39.3642L39.759 39.1228L39.1924 38.8735L40.1467 36.7729L40.6697 37.0032L41.2063 37.2283L41.7566 37.4478L42.3164 37.6593L42.8868 37.8653L43.4722 38.0658L44.0659 38.261L44.6691 38.4492L45.2843 38.6336L45.9063 38.8138L46.5378 38.9872L47.1761 39.1567L47.8254 39.3208L48.4813 39.4834L49.1426 39.6393L49.8094 39.7909L50.4843 39.94L51.1647 40.0864L51.8503 40.2287L52.5403 40.3683L53.2342 40.5066L53.9306 40.6407L54.6313 40.7723L55.3347 40.9024L56.0422 41.0297L56.7509 41.157L57.4611 41.283L58.1713 41.4063L58.8827 41.5299L59.5942 41.6532L60.3057 41.7749L61.0171 41.897ZM61.0171 41.897C61.6446 42.004 62.0662 42.6017 61.9591 43.2292C61.8519 43.8567 61.2542 44.2782 60.6269 44.1712L61.0171 41.897ZM80.9811 47.3057L79.8454 49.3143L79.4254 49.0838L78.9888 48.8602L78.5375 48.642L78.0701 48.4307L77.5849 48.2247L77.0875 48.0227L76.5765 47.8275L76.052 47.6378L75.5127 47.4521L74.9624 47.2719L74.4 47.0957L73.8269 46.9263L73.2413 46.7597L72.6436 46.5983L72.0394 46.4397L71.4226 46.2865L70.7964 46.1349L70.1636 45.9886L69.5213 45.8447L68.872 45.7051L68.2122 45.5671L67.5508 45.4315L66.88 45.2987L66.2023 45.1671L65.5207 45.0398L64.832 44.911L64.1409 44.7864L63.4445 44.6616L62.745 44.5371L62.0403 44.4163L61.3344 44.293L60.6269 44.1712L61.0171 41.897L61.7273 42.019L62.436 42.1423L63.1435 42.2656L63.8482 42.3904L64.5501 42.515L65.2495 42.6423L65.9435 42.7711L66.6359 42.9012L67.3218 43.0355L68.0034 43.1683L68.681 43.3064L69.3519 43.4475L70.0173 43.5923L70.6758 43.7387L71.3277 43.8905L71.9702 44.0452L72.6085 44.2035L73.2372 44.3677L73.8567 44.5371L74.4692 44.709L75.0722 44.8894L75.6646 45.0736L76.2472 45.2648L76.8191 45.4613L77.3815 45.6645L77.933 45.8761L78.4711 46.0941L78.9971 46.3191L79.5133 46.5522L80.016 46.7948L80.504 47.0456L80.9811 47.3057ZM80.9811 47.3057C81.5354 47.6187 81.7304 48.3234 81.4174 48.8778C81.1044 49.4321 80.3997 49.6273 79.8454 49.3143L80.9811 47.3057Z" fill="#7B3F2B"/>
<path d="M40.8098 29.1961C40.3151 28.7951 40.2391 28.0686 40.6404 27.5739C41.0416 27.0792 41.7678 27.0033 42.2625 27.4045L40.8098 29.1961ZM49.9861 31.5693L49.1403 33.7159H49.139L48.8097 33.5844L48.4872 33.453L48.1659 33.3215L47.8514 33.1874L47.5424 33.0558L47.235 32.9218L46.9312 32.7874L46.6318 32.6506L46.3406 32.515L46.0519 32.3795L45.7659 32.2414L45.4852 32.1031L45.2116 31.965L44.9432 31.8279L44.6735 31.6883L44.4079 31.5462L44.1518 31.4051L43.8997 31.2655L43.6476 31.1207L43.4037 30.9784L43.1637 30.8345L42.9266 30.6882L42.6948 30.5433L42.4685 30.397L42.2462 30.2506L42.0282 30.1027L41.8112 29.9536L41.6027 29.8033L41.3992 29.6542L41.1959 29.5023L40.9995 29.3479L40.8098 29.1961L42.2625 27.4045L42.4307 27.5373L42.6001 27.6702L42.7735 27.8002L42.9577 27.9358L43.1421 28.0674L43.3318 28.1999L43.5255 28.3315L43.729 28.4643L43.9335 28.5971L44.1435 28.7287L44.359 28.8615L44.5801 28.9916L44.8049 29.1256L45.0327 29.2545L45.2685 29.3858L45.5083 29.5186L45.7496 29.6474L45.9975 29.7762L46.2551 29.9075L46.5152 30.0378L46.7769 30.1679L47.0437 30.2952L47.3189 30.4253L47.5968 30.5553L47.8772 30.6814L48.1647 30.8102L48.4559 30.9363L48.7541 31.0651L49.0551 31.1911L49.3598 31.3172L49.6716 31.4432L49.9873 31.5693H49.9861ZM49.9873 31.5693C50.5795 31.8023 50.8697 32.4744 50.6366 33.0666C50.4033 33.659 49.7312 33.949 49.139 33.7159L49.9873 31.5693ZM62.7009 35.4057L62.0964 37.6338L62.1315 37.6419L61.6531 37.5268L61.1815 37.4128L60.7126 37.2978L60.2492 37.1813L59.7899 37.066L59.3345 36.9479L58.8832 36.8302L58.4399 36.7109L57.9981 36.5943L57.5618 36.4723L57.1322 36.3545L56.7025 36.234L56.2824 36.1119L55.8649 35.9911L55.4502 35.8694L55.041 35.7446L54.64 35.6228L54.2415 35.4992L53.8471 35.3747L53.4567 35.2499L53.0705 35.1253L52.6911 34.9993L52.3169 34.8745L51.9443 34.7472L51.5756 34.6183L51.2138 34.491L50.8589 34.3637L50.5063 34.2349L50.1582 34.1076L49.8126 33.9761L49.4751 33.846L49.1403 33.7159L49.9861 31.5693L50.3073 31.6938L50.6366 31.8211L50.9659 31.9447L51.3005 32.0692L51.642 32.1925L51.9891 32.3173L52.34 32.4419L52.6951 32.5652L53.0542 32.6872L53.4201 32.8093L53.7915 32.9325L54.1641 33.0546L54.5438 33.1764L54.9272 33.2957L55.3174 33.4162L55.7133 33.5383L56.1118 33.6575L56.5127 33.7768L56.922 33.8946L57.3367 34.0139L57.7527 34.1319L58.177 34.2497L58.6025 34.3662L59.0363 34.483L59.4741 34.5996L59.9144 34.7146L60.3617 34.8299L60.8131 34.9451L61.2684 35.0589L61.729 35.1714L62.1954 35.2852L62.6655 35.3977L62.7009 35.4057ZM62.6655 35.3977C63.285 35.5441 63.6672 36.1676 63.5206 36.7868C63.3742 37.406 62.751 37.7882 62.1315 37.6419L62.6655 35.3977ZM77.748 40.1043L76.9348 42.2647L76.5797 42.1319L76.2179 41.9976L75.8507 41.8635L75.4738 41.7294L75.0904 41.5911L74.7 41.4555L74.303 41.3174L73.9005 41.1791L73.4885 41.0408L73.0698 40.8999L72.6455 40.7604L72.2117 40.6168L71.7727 40.4744L71.3269 40.3321L70.8728 40.1885L70.4122 40.0449L69.9445 39.8983L69.4701 39.7519L68.989 39.6056L68.5013 39.458L68.0039 39.3101L67.5024 39.1598L66.9954 39.0107L66.4779 38.8615L65.9534 38.7099L65.4234 38.5581L64.8869 38.4049L64.3433 38.2531L63.7917 38.0987L63.2321 37.9428L62.6695 37.7882L62.0964 37.6338L62.7009 35.4057L63.2768 35.5631L63.8474 35.7202L64.4097 35.8761L64.9641 36.0305L65.5129 36.1851L66.0577 36.3382L66.593 36.4926L67.1202 36.6445L67.6405 36.7963L68.1582 36.9479L68.6652 37.0986L69.1652 37.2489L69.6586 37.3965L70.1478 37.5456L70.6274 37.6947L71.1006 37.8411L71.5667 37.9874L72.026 38.1338L72.4801 38.2789L72.9274 38.424L73.3665 38.5676L73.7988 38.7099L74.2256 38.8535L74.6431 38.9944L75.0566 39.1355L75.4615 39.2763L75.86 39.4174L76.2489 39.5555L76.6339 39.6923L77.0148 39.8319L77.3847 39.969L77.748 40.1043ZM77.748 40.1043C78.3442 40.3281 78.6452 40.9947 78.4214 41.5911C78.1979 42.1873 77.531 42.4883 76.9348 42.2647L77.748 40.1043ZM85.9565 44.2174L84.4902 46.001L84.3709 45.9035L84.2449 45.8072L84.1081 45.707L83.9617 45.6025L83.8114 45.4982L83.6567 45.3953L83.4886 45.2895L83.3124 45.1797L83.131 45.07L82.9413 44.959L82.7445 44.8464L82.5428 44.7339L82.33 44.6214L82.1105 44.5049L81.8827 44.3883L81.6497 44.2703L81.4083 44.151L81.1605 44.032L80.9044 43.9112L80.6427 43.7906L80.3731 43.6686L80.0952 43.5453L79.8105 43.4208L79.5193 43.2972L79.2198 43.1699L78.9133 43.0426L78.6031 42.915L78.2833 42.7877L77.9553 42.6577L77.622 42.5276L77.2817 42.396L76.9348 42.2647L77.748 40.1043L78.1056 40.2414L78.4567 40.3754L78.8011 40.511L79.1371 40.6438L79.4677 40.7766L79.7944 40.9095L80.1115 41.0423L80.4217 41.1723L80.7267 41.3037L81.0249 41.434L81.3164 41.5625L81.6023 41.6929L81.88 41.8214L82.1524 41.9502L82.4168 42.0775L82.6769 42.2051L82.929 42.3311L83.1756 42.4584L83.4142 42.583L83.646 42.709L83.875 42.8351L84.0958 42.9611L84.3101 43.0859L84.5186 43.212L84.7165 43.3353L84.9117 43.4598L85.1042 43.5874L85.2872 43.7135L85.4606 43.8368L85.63 43.9613L85.7966 44.0901L85.9565 44.2174ZM85.9565 44.2174C86.4484 44.6214 86.5189 45.3504 86.1151 45.8423C85.7112 46.3345 84.9822 46.4049 84.4902 46.001L85.9565 44.2174Z" fill="#7B3F2B"/>
<path d="M38.5073 33.1056C38.0925 32.6232 38.1466 31.8939 38.6293 31.4795C39.1117 31.0647 39.8407 31.1188 40.2555 31.6012L38.5073 33.1056ZM51.2018 36.3474L50.6597 38.5888V38.5903L50.1826 38.4738L49.7069 38.3545L49.2338 38.2339L48.7664 38.1104L48.3056 37.9858L47.849 37.8598L47.3949 37.7297L46.9475 37.5969L46.5057 37.4626L46.0694 37.3245L45.6399 37.1822L45.2169 37.0386L44.7996 36.8895L44.3917 36.7376L43.9877 36.5832L43.5935 36.4233L43.2058 36.2592L42.8251 36.0913L42.455 35.9176L42.0919 35.7402L41.7368 35.556L41.3939 35.3675L41.0579 35.1738L40.7311 34.9731L40.4141 34.7658L40.1079 34.5516L39.8124 34.3321L39.5265 34.1018L39.2541 33.8659L38.9924 33.6206L38.7431 33.3685L38.5073 33.1056L40.2555 31.6012L40.4236 31.7857L40.6025 31.9699L40.7963 32.1503L41.0035 32.329L41.2245 32.5052L41.4604 32.6813L41.7069 32.855L41.9671 33.0244L42.2395 33.1923L42.5242 33.3565L42.8236 33.5204L43.1299 33.6802L43.4499 33.8361L43.7817 33.9905L44.122 34.1423L44.4743 34.2902L44.8362 34.4366L45.2076 34.5802L45.5883 34.721L45.976 34.8593L46.3744 34.9949L46.7796 35.129L47.1916 35.259L47.6116 35.3878L48.0399 35.5151L48.4722 35.6372L48.9155 35.7605L49.3626 35.8825L49.8139 36.0003L50.2705 36.1183L50.7329 36.2321L51.2018 36.3459V36.3474ZM51.2018 36.3459C51.8198 36.495 52.2004 37.1198 52.0513 37.7392C51.9025 38.3585 51.2777 38.7394 50.6597 38.5903L51.2018 36.3459ZM66.7409 39.9142L66.0983 42.1315L65.662 42.0055L65.223 41.8835L64.7729 41.7642L64.3175 41.6449L63.8609 41.5271L63.3973 41.4131L62.93 41.2993L62.4568 41.1868L61.9799 41.0745L61.4988 40.9645L61.0164 40.8547L60.5312 40.7465L60.0405 40.6395L59.5498 40.5322L59.0551 40.4252L58.562 40.3209L58.0645 40.2152L57.5673 40.1094L57.0699 40.0037L56.5712 39.8994L56.071 39.7937L55.571 39.6879L55.0748 39.5822L54.5761 39.4752L54.0802 39.3682L53.5842 39.2612L53.0896 39.1514L52.5989 39.0401L52.111 38.9304L51.6233 38.8178L51.1406 38.7041L50.6597 38.5888L51.2018 36.3474L51.6719 36.4599L52.1463 36.5709L52.6234 36.6807L53.1058 36.7905L53.591 36.899L54.0774 37.006L54.5681 37.113L55.0613 37.22L55.5547 37.3245L56.0507 37.4303L56.5481 37.5358L57.0456 37.6415L57.5443 37.746L58.0442 37.8518L58.5444 37.9573L59.0416 38.063L59.5406 38.17L60.0378 38.2773L60.5337 38.3843L61.0271 38.4941L61.5231 38.6026L62.0138 38.7148L62.5002 38.8274L62.9853 38.9399L63.4692 39.0552L63.9476 39.1717L64.4248 39.291L64.8977 39.4115L65.3638 39.5336L65.8274 39.6581L66.288 39.7857L66.7409 39.9142ZM66.7409 39.9142C67.3521 40.0904 67.7044 40.7329 67.5283 41.3442C67.3521 41.9554 66.7095 42.3077 66.0983 42.1315L66.7409 39.9142Z" fill="#7B3F2B"/>
<path d="M47.1637 26.7888C46.578 26.5407 46.3044 25.8603 46.5525 25.2749C46.8003 24.6895 47.4807 24.4158 48.0661 24.6636L47.1637 26.7888ZM61.4803 30.2215L60.613 32.3601H60.6155L60.2145 32.1988L59.8118 32.0361L59.4081 31.8735L59.0029 31.7083L58.5977 31.5429L58.1912 31.3775L57.7817 31.2109L57.374 31.0442L56.9632 30.8761L56.55 30.7082L56.1365 30.5373L55.7217 30.3666L55.3057 30.1957L54.8897 30.0238L54.4722 29.8516L54.0522 29.6782L53.6295 29.5033L53.208 29.3271L52.7852 29.1522L52.3609 28.9748L51.9366 28.7986L51.5071 28.6184L51.0788 28.4395L50.6493 28.259L50.2195 28.0789L49.7845 27.8959L49.3522 27.713L48.9171 27.53L48.4808 27.3458L48.0445 27.1614L47.6027 26.9757L47.1637 26.7888L48.0661 24.6636L48.5052 24.8508L48.9417 25.0363L49.378 25.2207L49.8143 25.4049L50.2493 25.5879L50.6816 25.7711L51.1114 25.9512L51.5409 26.1314L51.9705 26.3116L52.3988 26.4905L52.823 26.6682L53.2498 26.8444L53.6713 27.0218L54.0943 27.1967L54.5156 27.3729L54.9331 27.5448L55.3534 27.7185L55.7706 27.8904L56.1866 28.0626L56.6001 28.2335L57.0149 28.4041L57.4253 28.5723L57.8361 28.7402L58.2466 28.9083L58.6545 29.075L59.0613 29.2416L59.4677 29.407L59.873 29.5724L60.2754 29.7351L60.6767 29.8977L61.0791 30.0604L61.4776 30.2215H61.4803ZM61.4776 30.2215C62.067 30.4586 62.3529 31.1322 62.1159 31.7219C61.8788 32.3113 61.2052 32.5972 60.6155 32.3601L61.4776 30.2215ZM73.5864 34.992L72.7624 37.1466L72.4021 37.0086L72.0415 36.8702L71.6783 36.7321L71.3137 36.5911L70.9466 36.4502L70.5807 36.3079L70.2146 36.1655L69.8447 36.0232L69.4733 35.8783L69.1021 35.7332L68.7308 35.5897L68.3539 35.4433L67.9785 35.2954L67.6018 35.1491L67.2224 34.9987L66.8442 34.8496L66.4648 34.7005L66.0826 34.5502L65.699 34.3983L65.3143 34.2452L64.9294 34.0921L64.5444 33.9389L64.1555 33.7843L63.7678 33.6299L63.3749 33.4728L62.9832 33.3154L62.5928 33.1583L62.1998 33.0012L61.8029 32.8413L61.4084 32.6812L61.0112 32.5213L60.613 32.3601L61.4803 30.2215L61.876 30.3829L62.273 30.5428L62.6674 30.7027L63.0591 30.8598L63.4521 31.0172L63.845 31.1743L64.234 31.3314L64.6216 31.486L65.0093 31.6404L65.3955 31.795L65.7832 31.9482L66.1653 32.1013L66.5475 32.2516L66.9309 32.4035L67.3103 32.5539L67.69 32.703L68.0679 32.8521L68.4448 32.9997L68.8187 33.146L69.1941 33.2939L69.5655 33.4375L69.9397 33.5838L70.3108 33.7289L70.6769 33.8713L71.0468 34.0134L71.4155 34.1557L71.7813 34.298L72.1432 34.4389L72.5051 34.5772L72.8654 34.7156L73.2288 34.8536L73.5864 34.992ZM73.5864 34.992C74.1814 35.2183 74.4783 35.8864 74.252 36.4813C74.0257 37.0762 73.3574 37.3732 72.7624 37.1466L73.5864 34.992Z" fill="#7B3F2B"/>
<path d="M53.6295 24.2109C53.0101 24.0686 52.6226 23.4478 52.7647 22.8286C52.9071 22.2093 53.5278 21.8217 54.147 21.964L53.6295 24.2109ZM66.2832 25.7316L65.4294 27.8755L65.4281 27.8742L65.0786 27.7359L64.7262 27.5975L64.3751 27.4622L64.0228 27.3294L63.6677 27.1966L63.3126 27.0663L62.9534 26.9362L62.5943 26.8076L62.2352 26.6816L61.8761 26.5583L61.5127 26.4348L61.1484 26.313L60.7825 26.1922L60.4179 26.0744L60.052 25.9579L59.6806 25.8426L59.3092 25.7273L58.9421 25.6163L58.5692 25.5065L58.1953 25.3968L57.8226 25.2898L57.4457 25.184L57.0676 25.0797L56.6909 24.9767L56.3127 24.875L55.9333 24.776L55.5499 24.6785L55.169 24.5808L54.7856 24.4873L54.3991 24.3926L54.0157 24.3016L53.6295 24.2109L54.147 21.964L54.5442 22.0547L54.9414 22.151L55.3329 22.2459L55.7273 22.3422L56.1218 22.4424L56.5107 22.5426L56.9009 22.6444L57.2926 22.7486L57.6803 22.8544L58.0665 22.9614L58.4514 23.0699L58.8376 23.1797L59.2197 23.2922L59.6034 23.4045L59.9868 23.521L60.3662 23.639L60.7431 23.7568L61.1225 23.8761L61.5007 23.9994L61.8746 24.1229L62.2472 24.2475L62.6214 24.3735L62.994 24.5024L63.3667 24.6337L63.7341 24.7652L64.1012 24.8981L64.4698 25.0336L64.8332 25.169L65.1991 25.3073L65.5637 25.4481L65.9241 25.5892L66.2847 25.7328L66.2832 25.7316ZM66.2847 25.7328C66.8754 25.9686 67.1628 26.6407 66.927 27.2317C66.6912 27.8226 66.0191 28.11 65.4281 27.8742L66.2847 25.7328ZM77.2673 31.212L75.9988 33.1391L76.0354 33.1622L75.7211 32.9725L75.4066 32.7855L75.0909 32.5998L74.7739 32.4141L74.4553 32.2312L74.1356 32.0495L73.8156 31.8693L73.493 31.6904L73.1705 31.513L72.848 31.338L72.5214 31.1634L72.1947 30.9897L71.8681 30.8203L71.5416 30.6509L71.2108 30.4842L70.8787 30.3163L70.5482 30.1522L70.2146 29.9895L69.8813 29.8269L69.544 29.667L69.2092 29.5086L68.8732 29.3528L68.5329 29.1981L68.1928 29.045L67.8512 28.8919L67.5084 28.7415L67.1656 28.5937L66.8185 28.4461L66.4757 28.301L66.1273 28.1586L65.7777 28.015L65.4294 27.8755L66.2832 25.7316L66.6451 25.8764L67.0029 26.0228L67.362 26.1706L67.7212 26.321L68.0763 26.4741L68.4299 26.6272L68.7837 26.7831L69.1361 26.939L69.4869 27.0976L69.8352 27.2575L70.1851 27.4189L70.5332 27.5828L70.8787 27.7482L71.2231 27.9133L71.5674 28.0815L71.9115 28.2536L72.2518 28.4243L72.5906 28.5964L72.9307 28.7714L73.2707 28.9488L73.6055 29.1277L73.9404 29.3052L74.2764 29.4881L74.6097 29.671L74.9405 29.8555L75.271 30.0412L75.5991 30.2281L75.9284 30.4166L76.2564 30.6075L76.583 30.7987L76.9082 30.994L77.2308 31.1889L77.2673 31.212ZM77.2308 31.1889C77.7756 31.5182 77.949 32.2284 77.6197 32.7732C77.2904 33.318 76.5802 33.4915 76.0354 33.1622L77.2308 31.1889ZM86.1266 36.1005L85.1563 38.1928L85.1631 38.1955L84.8634 38.0599L84.5654 37.9204L84.2684 37.7808L83.9717 37.6384L83.6762 37.4976L83.3808 37.3525L83.0896 37.2089L82.7941 37.0613L82.5027 36.9122L82.2112 36.7643L81.9198 36.614L81.6286 36.4621L81.3399 36.3077L81.0539 36.1546L80.7653 35.9987L80.4793 35.8416L80.1919 35.683L79.9059 35.5216L79.6215 35.3605L79.3381 35.1978L79.0549 35.0339L78.773 34.8685L78.4925 34.7019L78.2106 34.5337L77.9314 34.3631L77.6535 34.1936L77.3759 34.0215L77.0979 33.8466L76.8215 33.6719L76.5479 33.4957L76.2727 33.3195L75.9988 33.1391L77.2673 31.212L77.5302 31.3841L77.7946 31.5548L78.063 31.7257L78.3286 31.8951L78.5955 32.0618L78.8652 32.2284L79.1348 32.3951L79.4032 32.5577L79.6744 32.7204L79.9468 32.8817L80.2177 33.0416L80.4901 33.2003L80.7653 33.3574L81.0389 33.5133L81.3141 33.6664L81.5905 33.8195L81.8684 33.9714L82.1463 34.1217L82.4267 34.2721L82.7072 34.4212L82.9851 34.5675L83.2658 34.7126L83.5489 34.8575L83.8321 35.0013L84.1141 35.1409L84.4 35.2818L84.6847 35.4213L84.9691 35.5597L85.255 35.6965L85.5437 35.8306L85.8312 35.9649L86.1199 36.0977L86.1266 36.1005ZM86.1199 36.0977C86.6985 36.3606 86.9531 37.0463 86.6902 37.6249C86.4274 38.2038 85.7417 38.4584 85.1631 38.1955L86.1199 36.0977ZM95.7608 39.6904L95.113 41.9049L94.7877 41.81L94.4639 41.7125L94.1442 41.6147L93.8229 41.5157L93.5004 41.4155L93.1818 41.3125L92.8621 41.2095L92.5436 41.1053L92.2265 40.9995L91.9093 40.891L91.5948 40.784L91.2805 40.6742L90.9648 40.5632L90.653 40.4519L90.34 40.3369L90.0283 40.2229L89.718 40.1064L89.4063 39.9886L89.0985 39.8693L88.7895 39.7487L88.482 39.6252L88.1756 39.5034L87.8708 39.3774L87.5671 39.2541L87.2609 39.1253L86.9574 38.9964L86.6552 38.8664L86.3542 38.7336L86.052 38.6007L85.7537 38.4667L85.4543 38.3311L85.1563 38.1928L86.1266 36.1005L86.4138 36.2333L86.7025 36.3634L86.9925 36.4947L87.2812 36.6222L87.5739 36.7495L87.8653 36.8741L88.158 37.0001L88.4507 37.1209L88.7462 37.2442L89.0429 37.3648L89.3384 37.4841L89.6353 37.6018L89.9333 37.7171L90.233 37.8336L90.531 37.9462L90.8332 38.0599L91.1342 38.1712L91.4364 38.281L91.7399 38.3892L92.0421 38.4977L92.3483 38.6022L92.6546 38.7093L92.9611 38.8122L93.2701 38.9152L93.5775 39.0167L93.8865 39.1172L94.197 39.2147L94.506 39.3122L94.819 39.4084L95.1333 39.5034L95.4465 39.5981L95.7608 39.6904ZM95.7608 39.6904C96.372 39.8678 96.7219 40.5103 96.5442 41.1215C96.3667 41.7328 95.7242 42.0824 95.113 41.9049L95.7608 39.6904Z" fill="#7B3F2B"/>
<path d="M85.5329 42.6968C84.9472 42.4502 84.6708 41.7726 84.9174 41.1869C85.1642 40.6015 85.8418 40.3251 86.4273 40.5717L85.5329 42.6968ZM90.2271 42.0232L89.5821 44.2377L89.5036 44.2159L89.4114 44.1874L89.3192 44.1575L89.2325 44.1292L89.1403 44.0994L89.0483 44.0696L88.9521 44.037L88.8448 44.0004L88.7378 43.9626L88.6336 43.926L88.5238 43.8866L88.414 43.846L88.2947 43.8039L88.1714 43.7566L88.0562 43.7132L87.9301 43.6656L87.8001 43.6155L87.6768 43.5681L87.5384 43.5152L87.3988 43.4596L87.2633 43.4067L87.1212 43.3499L86.9773 43.293L86.8257 43.2321L86.6711 43.1697L86.5192 43.1073L86.3621 43.0424L86.205 42.9772L86.0436 42.9108L85.8729 42.8404L85.7023 42.7685L85.5329 42.6968L86.4273 40.5717L86.5994 40.6436L86.7618 40.7128L86.9192 40.7777L87.0831 40.8441L87.2402 40.9092L87.3948 40.9716L87.5467 41.0338L87.6903 41.0934L87.8311 41.1491L87.9722 41.2059L88.1118 41.2601L88.2499 41.3157L88.3759 41.3658L88.5007 41.4132L88.6321 41.4636L88.7513 41.5109L88.8666 41.5528L88.9872 41.5989L89.0942 41.6382L89.1999 41.6776L89.3072 41.7154L89.4087 41.752L89.5104 41.7886L89.6011 41.8212L89.6866 41.8497L89.7773 41.8796L89.864 41.9094L89.9455 41.9365L90.0267 41.9623L90.0946 41.9838L90.1567 42.0016L90.2271 42.0232ZM90.2271 42.0232C90.8384 42.2006 91.1894 42.8416 91.012 43.4528C90.8343 44.0641 90.1933 44.4152 89.5821 44.2377L90.2271 42.0232Z" fill="#7B3F2B"/>
<path d="M86.8914 32.6529C86.8235 32.0199 87.2816 31.4508 87.9146 31.3831C88.5474 31.3152 89.1165 31.7733 89.1845 32.4063L86.8914 32.6529ZM94.7897 36.2659L94.2504 38.5103L93.8559 38.4113L93.4697 38.3095L93.0943 38.2013L92.7297 38.09L92.3759 37.9735L92.0318 37.8529L91.697 37.7269L91.3745 37.5968L91.0587 37.4612L90.7537 37.3189L90.4638 37.1741L90.1791 37.0234L89.9054 36.8651L89.641 36.7024L89.3877 36.533L89.1464 36.3581L88.9133 36.1779L88.691 35.9895L88.4783 35.793L88.2778 35.5882L88.0908 35.3797L87.9131 35.1627L87.7493 34.9392L87.5974 34.7089L87.4593 34.4716L87.3345 34.2262L87.2235 33.9756L87.1273 33.7223L87.0446 33.4579L86.9794 33.191L86.928 32.9238L86.8914 32.6529L89.1845 32.4063L89.2047 32.5527L89.2318 32.6975L89.2671 32.8346L89.309 32.9687L89.3591 33.1028L89.4163 33.2343L89.4839 33.3631L89.5599 33.4945L89.6438 33.6218L89.7373 33.7506L89.8418 33.8781L89.9583 34.0082L90.0829 34.1343L90.2197 34.2603L90.3688 34.3864L90.5287 34.5122L90.7049 34.6382L90.888 34.7618L91.0873 34.8836L91.2958 35.0043L91.5181 35.1221L91.7566 35.2402L92.002 35.3552L92.2608 35.4665L92.5345 35.5775L92.8204 35.6845L93.1159 35.789L93.4264 35.8892L93.7502 35.9895L94.085 36.0844L94.4306 36.1779L94.7897 36.2659ZM94.7897 36.2659C95.4089 36.4137 95.7898 37.0385 95.642 37.6577C95.4944 38.2772 94.8696 38.6579 94.2504 38.5103L94.7897 36.2659Z" fill="#7B3F2B"/>
<path d="M98.4611 36.9466C97.8348 36.8313 97.4216 36.2284 97.5369 35.6021C97.6519 34.9761 98.2551 34.5629 98.8811 34.6779L98.4611 36.9466ZM105.163 35.3503L105.209 37.6568L105.038 37.6596H104.868H104.697L104.518 37.6568L104.339 37.6528L104.159 37.6473L103.976 37.639L103.79 37.631L103.597 37.6215L103.405 37.6079L103.211 37.5957L103.011 37.5796L102.811 37.5633L102.609 37.5455L102.403 37.5252L102.196 37.5049L101.982 37.4819L101.764 37.4561L101.547 37.4305L101.327 37.402L101.105 37.3736L100.881 37.3423L100.65 37.3097L100.419 37.2759L100.185 37.2408L99.9464 37.2042L99.7066 37.1649L99.4612 37.124L99.2159 37.0822L98.9678 37.0388L98.7144 36.9927L98.4611 36.9466L98.8811 34.6779L99.1292 34.724L99.369 34.7674L99.6088 34.808L99.8462 34.8501L100.078 34.8879L100.31 34.9245L100.535 34.9611L100.758 34.9937L100.98 35.0275L101.196 35.0573L101.411 35.0859L101.623 35.1145L101.831 35.14L102.037 35.1658L102.237 35.1889L102.432 35.2092L102.628 35.2295L102.821 35.2473L103.012 35.2648L103.197 35.2811L103.376 35.2946L103.557 35.3069L103.733 35.3177L103.904 35.3272L104.073 35.3352L104.24 35.3407L104.404 35.346L104.564 35.3503L104.715 35.3528H104.868H105.019L105.163 35.3503ZM105.163 35.3503C105.798 35.338 106.327 35.8447 106.339 36.4805C106.351 37.116 105.844 37.6445 105.209 37.6568L105.163 35.3503Z" fill="#7B3F2B"/>
<path d="M62.829 47.9372C62.2002 47.8382 61.7707 47.2461 61.8697 46.6173C61.9684 45.9885 62.5608 45.5587 63.1896 45.6577L62.829 47.9372ZM74.9949 48.5823L74.0246 50.6748L73.8269 50.5853L73.6209 50.4959L73.4066 50.4092L73.1803 50.3197L72.939 50.2302L72.6924 50.1408L72.4335 50.0513L72.1639 49.9618L71.8887 49.8726L71.6015 49.7857L71.3006 49.6964L70.9943 49.6082L70.6773 49.5215L70.352 49.4348L70.0145 49.3481L69.6661 49.2599L69.3125 49.1747L68.9467 49.0905L68.5698 49.0053L68.1848 48.9198L67.7919 48.8359L67.3867 48.7517L66.9719 48.6677L66.5519 48.585L66.1181 48.5038L65.6763 48.4196L65.2265 48.3384L64.7656 48.2585L64.2955 48.177L63.8143 48.0971L63.3279 48.0159L62.829 47.9372L63.1896 45.6577L63.6965 45.7389L64.1937 45.8204L64.6804 45.9031L65.1588 45.9843L65.6304 46.067L66.0938 46.1509L66.5464 46.2351L66.9882 46.3191L67.4248 46.4045L67.8503 46.4912L68.2663 46.5779L68.6755 46.6647L69.074 46.7529L69.4617 46.8408L69.8438 46.9303L70.2192 47.021L70.5811 47.112L70.9347 47.2014L71.2818 47.2934L71.6203 47.3884L71.9484 47.4819L72.2656 47.5768L72.5771 47.6716L72.8821 47.7693L73.1736 47.8668L73.4595 47.9643L73.7359 48.0645L74.0016 48.165L74.2632 48.2653L74.5181 48.371L74.7619 48.4765L74.9949 48.5823ZM74.9949 48.5823C75.5723 48.8494 75.8229 49.5363 75.556 50.1137C75.2892 50.6911 74.602 50.9417 74.0246 50.6748L74.9949 48.5823Z" fill="#7B3F2B"/>
<path d="M103.869 32.7369C104.491 32.8712 104.886 33.4877 104.751 34.1097C104.617 34.732 104 35.1262 103.378 34.9921L103.869 32.7369ZM92.8416 31.524L93.7849 29.4179L93.7874 29.4194L94.0856 29.5535L94.3826 29.6836L94.6846 29.8124L94.9883 29.9412L95.289 30.0672L95.5912 30.189L95.8977 30.3123L96.2025 30.4331L96.5102 30.5497L96.8205 30.6674L97.1294 30.7827L97.4372 30.8952L97.7474 31.005L98.0619 31.1133L98.3764 31.2205L98.6907 31.3263L99.0052 31.4293L99.3237 31.5295L99.6407 31.6297L99.9592 31.726L100.279 31.8207L100.6 31.9144L100.926 32.0064L101.245 32.0959L101.569 32.1813L101.896 32.268L102.221 32.3507L102.55 32.4319L102.877 32.5119L103.208 32.5893L103.537 32.6637L103.869 32.7369L103.378 34.9921L103.033 34.9161L102.687 34.8362L102.343 34.7563L102 34.6736L101.66 34.5896L101.316 34.5014L100.978 34.4119L100.638 34.3212L100.299 34.2262L99.966 34.1315L99.6285 34.0353L99.2952 33.935L98.9603 33.8333L98.6298 33.7303L98.2978 33.6245L97.967 33.5163L97.6392 33.4078L97.3111 33.2952L96.9859 33.1815L96.6593 33.0662L96.3325 32.9484L96.01 32.8276L95.689 32.7071L95.3677 32.5825L95.0464 32.4565L94.7294 32.3304L94.4109 32.2004L94.0939 32.0688L93.7794 31.9347L93.4664 31.8004L93.1506 31.6623L92.8389 31.5227L92.8416 31.524ZM92.8389 31.5227C92.2587 31.2611 91.9999 30.5767 92.2615 29.9966C92.5231 29.4167 93.2075 29.1578 93.7874 29.4194L92.8389 31.5227ZM83.4661 26.0325L84.7264 24.1002L84.782 24.138L85.0477 24.3332L85.3161 24.5284L85.5817 24.7181L85.8513 24.9063L86.1222 25.096L86.3906 25.2805L86.6603 25.4634L86.9354 25.6451L87.2094 25.8253L87.483 26.0027L87.7567 26.1789L88.0333 26.3511L88.3125 26.5245L88.5902 26.6939L88.8693 26.862L89.15 27.0274L89.4304 27.1913L89.7124 27.3527L89.9983 27.5139L90.2815 27.6725L90.5674 27.8284L90.8549 27.9827L91.1408 28.1346L91.4308 28.2837L91.7222 28.4328L92.0137 28.5804L92.3049 28.7255L92.5991 28.8664L92.8945 29.0087L93.1885 29.147L93.4867 29.2824L93.7849 29.4179L92.8416 31.524L92.5299 31.3832L92.2181 31.2393L91.9051 31.093L91.5961 30.9454L91.2912 30.7962L90.9809 30.6431L90.6759 30.49L90.3737 30.3354L90.0727 30.1783L89.768 30.0184L89.467 29.8557L89.1676 29.6918L88.8681 29.5249L88.5739 29.3583L88.2759 29.1889L87.9817 29.0167L87.6878 28.8433L87.3948 28.6671L87.1036 28.4897L86.8134 28.3108L86.5235 28.1278L86.2335 27.9434L85.9461 27.7579L85.6616 27.5695L85.3782 27.3798L85.0923 27.1886L84.8078 26.9934L84.5287 26.7984L84.248 26.6019L83.9661 26.3984L83.6896 26.1979L83.4105 25.9947L83.4661 26.0325ZM83.4105 25.9947C82.8982 25.6165 82.7897 24.8928 83.1679 24.3806C83.5461 23.8683 84.2698 23.7598 84.782 24.138L83.4105 25.9947ZM74.4687 20.7541L75.515 18.6967L75.7859 18.8363L76.0583 18.9758L76.3322 19.1197L76.6086 19.2645L76.8823 19.4109L77.1602 19.56L77.4394 19.7119L77.7173 19.8637L77.995 20.0168L78.2769 20.174L78.5588 20.3326L78.8435 20.4937L79.1267 20.6564L79.4086 20.819L79.6973 20.9857L79.9845 21.1551L80.2704 21.3232L80.5604 21.4954L80.8506 21.6688L81.1433 21.845L81.4345 22.0224L81.7274 22.2013L82.0226 22.383L82.3196 22.5672L82.6151 22.7517L82.913 22.9386L83.214 23.1283L83.5122 23.318L83.8144 23.5105L84.1167 23.7045L84.4214 23.9022L84.7264 24.1002L83.4661 26.0325L83.1666 25.8376L82.8672 25.6451L82.5702 25.4539L82.2735 25.2642L81.978 25.0773L81.6853 24.8901L81.3926 24.7086L81.0999 24.5242L80.8112 24.3452L80.5238 24.1691L80.2338 23.9929L79.9479 23.8182L79.6632 23.6473L79.3788 23.4767L79.0969 23.31L78.8137 23.1418L78.5345 22.978L78.2566 22.8166L77.9774 22.6567L77.6995 22.4968L77.4258 22.3409L77.1522 22.1878L76.8783 22.0359L76.6059 21.8856L76.3335 21.7365L76.0651 21.5901L75.7954 21.4465L75.527 21.3029L75.2616 21.1633L74.996 21.025L74.7316 20.8882L74.4687 20.7541ZM74.4687 20.7541C73.9009 20.4654 73.6746 19.77 73.9633 19.2021C74.252 18.6345 74.9471 18.408 75.515 18.6967L74.4687 20.7541ZM66.6572 17.4459L67.3699 15.2504L67.61 15.3291L67.8498 15.4103L68.0909 15.4917L68.3335 15.5769L68.5748 15.6611L68.8202 15.7506L69.0612 15.8385L69.3121 15.9308L69.5614 16.027L69.8053 16.1205L70.0521 16.2167L70.3027 16.3157L70.5561 16.4187L70.8082 16.5217L71.0603 16.6272L71.3124 16.7329L71.5673 16.8402L71.8259 16.9525L72.0823 17.0665L72.3384 17.1788L72.5972 17.2955L72.8574 17.4133L73.119 17.5326L73.3804 17.6547L73.6448 17.7792L73.9089 17.904L74.1745 18.0326L74.4402 18.1614L74.7073 18.2929L74.977 18.427L75.2426 18.5598L75.515 18.6967L74.4687 20.7541L74.2071 20.6225L73.9442 20.4897L73.6854 20.3609L73.4265 20.2349L73.1691 20.1088L72.9115 19.9855L72.6581 19.8637L72.4048 19.7444L72.1512 19.6279L71.9006 19.5111L71.6512 19.3989L71.4004 19.2876L71.1498 19.1751L70.9017 19.0668L70.6591 18.9623L70.4152 18.8581L70.1712 18.7551L69.9273 18.6548L69.686 18.5546L69.4489 18.4596L69.2119 18.3661L68.9705 18.2726L68.732 18.1792L68.4989 18.091L68.2671 18.0043L68.0313 17.9188L67.7997 17.8348L67.5692 17.7534L67.3401 17.6735L67.1098 17.595L66.8835 17.5191L66.6572 17.4459ZM66.6572 17.4459C66.0513 17.2494 65.7195 16.5976 65.9159 15.9917C66.1124 15.386 66.7642 15.0539 67.3699 15.2504L66.6572 17.4459Z" fill="#7B3F2B"/>
<path d="M85.3632 29.4072C85.9498 29.6526 86.2262 30.3302 85.9812 30.9169C85.7358 31.5038 85.0582 31.7802 84.4713 31.5348L85.3632 29.4072ZM71.2823 25.8823L72.2065 23.7682L72.2093 23.7694L72.5927 23.9388L72.9761 24.107L73.3651 24.2764L73.7528 24.4471L74.1445 24.6177L74.5361 24.7899L74.9306 24.9608L75.3275 25.1327L75.7248 25.3064L76.1245 25.4783L76.5257 25.652L76.9294 25.8254L77.3361 26L77.7426 26.1765L78.1506 26.3499L78.5626 26.5273L78.9731 26.7035L79.3893 26.8797L79.8038 27.0586L80.2213 27.236L80.6413 27.4149L81.0616 27.5926L81.4843 27.7715L81.9086 27.9517L82.3354 28.1319L82.7637 28.3136L83.1919 28.495L83.623 28.6755L84.0553 28.8569L84.4903 29.0398L84.9266 29.2228L85.3632 29.4072L84.4713 31.5348L84.0322 31.3506L83.5959 31.1677L83.1609 30.9848L82.7286 30.8031L82.2948 30.6201L81.8638 30.4385L81.4355 30.257L81.0087 30.0766L80.5844 29.8964L80.1617 29.7175L79.7389 29.5373L79.3186 29.3584L78.8986 29.1809L78.4811 29.002L78.0679 28.8258L77.6519 28.6469L77.2424 28.472L76.8319 28.2958L76.4227 28.1196L76.0187 27.945L75.6122 27.7715L75.2083 27.5954L74.8086 27.4232L74.4088 27.2498L74.0116 27.0776L73.6147 26.9042L73.2202 26.732L72.8285 26.5611L72.4381 26.3905L72.0519 26.2211L71.663 26.0504L71.2796 25.881L71.2823 25.8823ZM71.2796 25.881C70.6967 25.6246 70.4325 24.943 70.6887 24.3603C70.9448 23.7777 71.6264 23.5133 72.2093 23.7694L71.2796 25.881ZM59.905 20.7567L60.8701 18.6617L61.1993 18.8133L61.5259 18.9639L61.8579 19.1155L62.1912 19.2686L62.5248 19.422L62.8648 19.5776L63.1997 19.7322L63.5385 19.8853L63.8813 20.0425L64.2241 20.1983L64.5697 20.3557L64.9153 20.5141L65.2636 20.6715L65.6132 20.8314L65.963 20.9885L66.3179 21.1484L66.6745 21.3098L67.0296 21.4709L67.386 21.6308L67.7478 21.7922L68.111 21.9561L68.4728 22.1187L68.8375 22.2801L69.2046 22.444L69.576 22.6081L69.9474 22.7733L70.3173 22.9374L70.6927 23.1026L71.0681 23.2695L71.4447 23.4346L71.8256 23.6015L72.2065 23.7682L71.2823 25.8823L70.8987 25.7156L70.5177 25.5462L70.1383 25.3808L69.7602 25.2142L69.3848 25.0488L69.0094 24.8821L68.6382 24.7167L68.2696 24.5528L67.8994 24.3887L67.5323 24.2248L67.1649 24.0594L66.8046 23.8982L66.4427 23.7368L66.0808 23.5742L65.723 23.4131L65.3666 23.2517L65.0143 23.0918L64.6592 22.9319L64.3096 22.772L63.9612 22.6149L63.6129 22.4563L63.2673 22.2991L62.9217 22.1405L62.5817 21.9859L62.2401 21.83L61.9 21.6729L61.5652 21.5198L61.2292 21.3667L60.8956 21.2135L60.5636 21.0617L60.2318 20.9086L59.905 20.7567ZM59.905 20.7567C59.3276 20.491 59.0742 19.8041 59.3399 19.2268C59.6055 18.6494 60.2927 18.396 60.8701 18.6617L59.905 20.7567Z" fill="#7B3F2B"/>
<path d="M114.223 35.3137L69.6018 54.1174L68.7047 51.9925L113.326 33.1886L114.928 34.2388L114.223 35.3137ZM113.326 33.1886C113.911 32.942 114.59 33.2171 114.837 33.8025C115.083 34.3879 114.808 35.0668 114.223 35.3137L113.326 33.1886ZM112.788 49.58L112.621 34.2631L114.928 34.2388L115.094 49.5557L114.398 50.6277L112.788 49.58ZM115.094 49.5557C115.1 50.1912 114.589 50.7157 113.953 50.7212C113.317 50.7267 112.793 50.2157 112.788 49.58L115.094 49.5557ZM68.6979 67.7862L113.484 48.5081L114.398 50.6277L69.6114 69.9058L68.0013 68.846L68.6979 67.7862ZM69.6114 69.9058C69.0272 70.1579 68.3468 69.8868 68.0947 69.3029C67.8426 68.7187 68.1138 68.0383 68.6979 67.7862L69.6114 69.9058ZM70.3065 53.0548L70.3078 68.846H68.0013L68 53.0548L68.7047 51.9925L70.3065 53.0548ZM68 53.0548C68 52.4193 68.5175 51.9015 69.1533 51.9015C69.7888 51.9015 70.3065 52.4193 70.3065 53.0548H68Z" fill="#7B3F2B"/>
<path d="M24.9817 33.1886L69.6027 51.9925L68.7056 54.1174L24.0846 35.3137L23.3799 34.2511L24.9817 33.1886ZM24.0846 35.3137C23.4992 35.0668 23.224 34.3879 23.4706 33.8025C23.7174 33.2171 24.3963 32.942 24.9817 33.1886L24.0846 35.3137ZM23.3799 49.6288V34.2511H25.6864V49.6288L24.0766 50.6886L23.3799 49.6288ZM25.6864 49.6288C25.6864 50.2644 25.1687 50.7821 24.5332 50.7821C23.8976 50.7821 23.3799 50.2644 23.3799 49.6288H25.6864ZM68.6975 69.9058L24.0766 50.6886L24.99 48.569L69.611 67.7862L70.3074 68.846L68.6975 69.9058ZM69.611 67.7862C70.1949 68.0383 70.466 68.7187 70.2139 69.3029C69.9618 69.8868 69.2814 70.1579 68.6975 69.9058L69.611 67.7862ZM70.3074 53.0548V68.846H68.0009V53.0548L69.6027 51.9925L70.3074 53.0548ZM68.0009 53.0548C68.0009 52.4193 68.5186 51.9015 69.1541 51.9015C69.7897 51.9015 70.3074 52.4193 70.3074 53.0548H68.0009Z" fill="#7B3F2B"/>
<path fill-rule="evenodd" clip-rule="evenodd" d="M0.0902246 25.4146C-0.156368 26.0015 0.120046 26.6751 0.705704 26.9202L10.2531 30.9236C10.8386 31.1704 11.5122 30.8938 11.7575 30.3084C12.0041 29.723 11.7277 29.0481 11.1423 28.8028L2.65564 25.244L6.21469 16.7576C6.46129 16.1719 6.18487 15.497 5.59921 15.2517C5.01255 15.0066 4.33894 15.2815 4.0936 15.8672L0.0902246 25.4146ZM52.8237 5.59975C53.069 5.01309 52.7939 4.33947 52.207 4.09413L42.6608 0.0895045C42.0754 -0.155835 41.4005 0.120579 41.1552 0.706237C40.9098 1.29164 41.185 1.96501 41.7704 2.21185L50.2568 5.77066L46.6995 14.2571C46.4527 14.8425 46.7293 15.5161 47.3147 15.7627C47.9001 16.008 48.5737 15.7328 48.8203 15.1462L52.8237 5.59975ZM4.156 25.8727L49.628 7.26951L50.2568 5.77066L48.7579 5.14039L3.28465 23.7436L2.65564 25.244L4.156 25.8727Z" fill="#7B3F2B"/>
</svg>
