<svg width="60" height="70" viewBox="0 0 60 70" fill="none" xmlns="http://www.w3.org/2000/svg">
<path d="M0.369385 7.03038C-0.0981465 6.59783 -0.125092 5.86557 0.306984 5.39804C0.739533 4.93051 1.47179 4.90356 1.93932 5.33564L0.369385 7.03038ZM7.34642 13.4983L0.369385 7.03038L1.93932 5.33564L8.91636 11.8035L9.00713 13.4033L7.34642 13.4983ZM8.91636 11.8035C9.38389 12.2361 9.41084 12.9684 8.97876 13.4359C8.54669 13.9034 7.81395 13.9304 7.34642 13.4983L8.91636 11.8035ZM18.0268 2.91525L9.00713 13.4033L7.25566 11.8986L16.2758 1.41055L18.0268 2.91525ZM16.2758 1.41055C16.6909 0.927419 17.4208 0.87211 17.9039 1.28764C18.3871 1.7027 18.4424 2.43212 18.0268 2.91525L16.2758 1.41055Z" fill="#7B3F2B"/>
<path d="M0.369385 35.128C-0.0981465 34.6955 -0.125092 33.9632 0.306984 33.4957C0.739533 33.0282 1.47179 33.0012 1.93932 33.4333L0.369385 35.128ZM7.34642 41.5959L0.369385 35.128L1.93932 33.4333L8.91636 39.9012L9.00713 41.5009L7.34642 41.5959ZM8.91636 39.9012C9.38389 40.3337 9.41084 41.066 8.97876 41.5335C8.54669 42.0011 7.81395 42.028 7.34642 41.5959L8.91636 39.9012ZM18.0268 31.0129L9.00713 41.5009L7.25566 39.9962L16.2758 29.5082L18.0268 31.0129ZM16.2758 29.5082C16.6909 29.0251 17.4208 28.9698 17.9039 29.3853C18.3871 29.8004 18.4424 30.5298 18.0268 31.0129L16.2758 29.5082Z" fill="#7B3F2B"/>
<path d="M0.369095 63.2238C-0.0970176 62.7912 -0.123963 62.059 0.308113 61.5929C0.740662 61.1267 1.47292 61.0998 1.93904 61.5319L0.369095 63.2238ZM7.34613 69.6931L0.369095 63.2238L1.93904 61.5319L8.91607 68.0012L9.00684 69.5995L7.34613 69.6931ZM8.91607 68.0012C9.38219 68.4338 9.40913 69.166 8.97706 69.6321C8.54498 70.0982 7.81225 70.1252 7.34613 69.6931L8.91607 68.0012ZM18.0265 59.1101L9.00684 69.5995L7.25537 68.0948L16.2756 57.6054L18.0265 59.1101ZM16.2756 57.6054C16.6906 57.1222 17.4205 57.0669 17.9036 57.4825C18.3868 57.8975 18.4421 58.6269 18.0265 59.1101L16.2756 57.6054Z" fill="#7B3F2B"/>
<path d="M26.2125 5.17306C25.5748 5.17306 25.0576 4.65589 25.0576 4.01818C25.0576 3.38094 25.5748 2.86377 26.2125 2.86377V5.17306ZM57.9625 5.17306H26.2125V2.86377H57.9625V5.17306ZM57.9625 2.86377C58.5998 2.86377 59.1169 3.38094 59.1169 4.01818C59.1169 4.65589 58.5998 5.17306 57.9625 5.17306V2.86377Z" fill="#7B3F2B"/>
<path d="M26.2125 11.9473C25.5748 11.9473 25.0576 11.4315 25.0576 10.7966C25.0576 10.1617 25.5748 9.646 26.2125 9.646V11.9473ZM38.9602 11.9473H26.2125V9.646H38.9602V11.9473ZM38.9602 9.646C39.5979 9.646 40.115 10.1617 40.115 10.7966C40.115 11.4315 39.5979 11.9473 38.9602 11.9473V9.646Z" fill="#7B3F2B"/>
<path d="M26.2125 33.2697C25.5748 33.2697 25.0576 32.7526 25.0576 32.1149C25.0576 31.4776 25.5748 30.9604 26.2125 30.9604V33.2697ZM57.9625 33.2697H26.2125V30.9604H57.9625V33.2697ZM57.9625 30.9604C58.5998 30.9604 59.1169 31.4776 59.1169 32.1149C59.1169 32.7526 58.5998 33.2697 57.9625 33.2697V30.9604Z" fill="#7B3F2B"/>
<path d="M26.2125 40.0444C25.5748 40.0444 25.0576 39.5287 25.0576 38.8938C25.0576 38.2594 25.5748 37.7437 26.2125 37.7437V40.0444ZM38.9602 40.0444H26.2125V37.7437H38.9602V40.0444ZM38.9602 37.7437C39.5979 37.7437 40.115 38.2594 40.115 38.8938C40.115 39.5287 39.5979 40.0444 38.9602 40.0444V37.7437Z" fill="#7B3F2B"/>
<path d="M26.2125 61.3689C25.5748 61.3689 25.0576 60.8517 25.0576 60.214C25.0576 59.5767 25.5748 59.0596 26.2125 59.0596V61.3689ZM57.9625 61.3689H26.2125V59.0596H57.9625V61.3689ZM57.9625 59.0596C58.5998 59.0596 59.1169 59.5767 59.1169 60.214C59.1169 60.8517 58.5998 61.3689 57.9625 61.3689V59.0596Z" fill="#7B3F2B"/>
<path d="M26.2125 68.1411C25.5748 68.1411 25.0576 67.6254 25.0576 66.9905C25.0576 66.3561 25.5748 65.8403 26.2125 65.8403V68.1411ZM38.9602 68.1411H26.2125V65.8403H38.9602V68.1411ZM38.9602 65.8403C39.5979 65.8403 40.115 66.3561 40.115 66.9905C40.115 67.6254 39.5979 68.1411 38.9602 68.1411V65.8403Z" fill="#7B3F2B"/>
<path d="M3.85754 61.2128C3.39096 60.7807 3.36449 60.0485 3.79656 59.5824C4.22864 59.1158 4.9609 59.0893 5.42748 59.5214L3.85754 61.2128ZM7.34583 64.4477L3.85754 61.2128L5.42748 59.5214L8.91577 62.7558L9.00653 64.3541L7.34583 64.4477ZM8.91577 62.7558C9.38188 63.1883 9.40883 63.9206 8.97675 64.3867C8.54467 64.8528 7.81194 64.8798 7.34583 64.4477L8.91577 62.7558ZM14.2605 58.2474L9.00653 64.3541L7.25506 62.8494L12.509 56.7427L14.2605 58.2474ZM12.509 56.7427C12.9241 56.2595 13.654 56.2042 14.1371 56.6193C14.6202 57.0343 14.6755 57.7642 14.2605 58.2474L12.509 56.7427Z" fill="#7B3F2B"/>
<path d="M3.85754 33.1151C3.39096 32.683 3.36449 31.9508 3.79656 31.4847C4.22864 31.0181 4.9609 30.9911 5.42748 31.4237L3.85754 33.1151ZM7.34583 36.35L3.85754 33.1151L5.42748 31.4237L8.91577 34.6581L9.00653 36.2564L7.34583 36.35ZM8.91577 34.6581C9.38188 35.0906 9.40883 35.8229 8.97675 36.289C8.54467 36.7551 7.81194 36.7821 7.34583 36.35L8.91577 34.6581ZM14.2605 30.1482L9.00653 36.2564L7.25506 34.7517L12.509 28.6435L14.2605 30.1482ZM12.509 28.6435C12.9241 28.1604 13.654 28.1051 14.1371 28.5202C14.6202 28.9352 14.6755 29.6651 14.2605 30.1482L12.509 28.6435Z" fill="#7B3F2B"/>
<path d="M3.85754 4.87388C3.39096 4.44133 3.36449 3.70907 3.79656 3.24295C4.22864 2.77684 4.9609 2.7499 5.42748 3.18197L3.85754 4.87388ZM7.34583 8.1083L3.85754 4.87388L5.42748 3.18197L8.91577 6.41687L9.00653 8.01517L7.34583 8.1083ZM8.91577 6.41687C9.38188 6.84895 9.40883 7.58121 8.97675 8.04779C8.54467 8.51391 7.81194 8.54085 7.34583 8.1083L8.91577 6.41687ZM14.2605 1.90654L9.00653 8.01517L7.25506 6.51047L12.509 0.40184L14.2605 1.90654ZM12.509 0.40184C12.9241 -0.0812912 13.654 -0.136601 14.1371 0.278457C14.6202 0.693988 14.6755 1.42341 14.2605 1.90654L12.509 0.40184Z" fill="#7B3F2B"/>
</svg>
