<svg width="212" height="116" viewBox="0 0 212 116" fill="none" xmlns="http://www.w3.org/2000/svg">
<path d="M70.8424 23.7793C68.4195 23.9209 66.0386 24.0612 63.6365 24.2013C63.6659 19.0984 63.6953 13.9953 63.7251 8.8769C62.4184 8.95423 61.1541 9.03029 59.8685 9.10661C59.8354 14.8928 59.8022 20.6713 59.7691 26.4575C59.7362 32.2359 59.7031 38.0143 59.6699 43.7925C60.9548 43.7192 62.2188 43.6457 63.5248 43.5706C63.5542 38.4677 63.5838 33.3649 63.6132 28.2542C66.015 28.1144 68.3957 27.9748 70.8186 27.8337C70.789 32.9466 70.7591 38.0515 70.7292 43.1566C72.0141 43.0828 73.3203 43.008 74.6263 42.9332C74.6604 37.1497 74.6948 31.3665 74.7287 25.5831C74.7626 19.7921 74.7967 14.0086 74.8309 8.21764C73.5244 8.29522 72.2177 8.37254 70.9323 8.44861C70.9022 13.5693 70.8723 18.6742 70.8424 23.7793ZM84.4833 7.54884C83.6478 13.4061 82.8125 19.2548 81.9979 25.1096C81.1842 30.9563 80.3485 36.8035 79.5346 42.649C80.8408 42.5739 82.1467 42.4989 83.4527 42.4241C83.871 39.3793 84.3105 36.3333 84.7501 33.2871C86.9621 33.159 89.1952 33.0295 91.4286 32.9002C91.8104 35.8997 92.1923 38.8998 92.5741 41.8986C93.8801 41.8238 95.1863 41.7485 96.5134 41.6722C95.7484 35.9123 94.9827 30.1532 94.2393 24.3931C93.4947 18.6262 92.73 12.8684 92.0068 7.10197C89.4988 7.25085 86.991 7.39997 84.4833 7.54884ZM85.3441 29.025C86.1585 23.2084 86.9727 17.3986 87.7874 11.5888C88.0612 11.5724 88.3351 11.5564 88.6093 11.54C89.3539 17.2587 90.1199 22.9764 90.8853 28.7026C89.0313 28.8106 87.1773 28.9183 85.3441 29.025ZM116.09 19.5031C116.108 16.6632 116.126 13.8234 116.144 10.9832C114.554 9.32302 112.963 7.65529 111.394 5.99409C108.254 6.18112 105.114 6.36815 101.974 6.55493C101.938 12.3627 101.902 18.1628 101.866 23.9703C101.831 29.7703 101.794 35.5704 101.759 41.3704C105.171 41.1741 108.584 40.9772 112.018 40.7797C113.608 38.949 115.22 37.1168 116.832 35.2844C116.852 32.187 116.872 29.0815 116.892 25.9762C115.824 24.8922 114.757 23.8081 113.711 22.7075C114.497 21.6398 115.283 20.5721 116.09 19.5031ZM105.888 10.6558C107.152 10.5808 108.438 10.5045 109.723 10.4284C110.539 11.2842 111.355 12.1325 112.193 12.9798C112.182 14.6724 112.171 16.365 112.161 18.0576C111.396 19.0851 110.631 20.1046 109.888 21.1229C108.518 21.2032 107.17 21.2823 105.821 21.3617C105.843 17.7982 105.866 14.227 105.888 10.6558ZM112.925 33.7485C112.077 34.702 111.249 35.6467 110.422 36.5911C108.842 36.6825 107.283 36.7729 105.724 36.8628C105.748 33.1279 105.771 29.393 105.794 25.6501C107.269 25.564 108.744 25.4779 110.24 25.3903C111.14 26.3202 112.039 27.2423 112.96 28.1631C112.949 30.0274 112.937 31.8917 112.925 33.7485ZM126.61 5.04185C125.771 10.9129 124.934 16.776 124.116 22.6448C123.299 28.5053 122.461 34.3666 121.644 40.2259C122.951 40.1508 124.256 40.0755 125.584 39.9987C126.003 36.9469 126.444 33.8933 126.885 30.8401C129.097 30.7113 131.309 30.5825 133.564 30.4524C133.944 33.4593 134.345 36.4651 134.747 39.4709C136.053 39.3956 137.359 39.3201 138.686 39.2435C137.924 33.4701 137.14 27.6984 136.4 21.9248C135.658 16.1441 134.896 10.3727 134.154 4.59297C131.625 4.7426 129.118 4.89222 126.61 5.04185ZM127.46 26.5689C128.278 20.738 129.094 14.9147 129.933 9.08954C130.186 9.07448 130.46 9.05816 130.734 9.04209C131.497 14.7728 132.281 20.5043 133.043 26.2438C131.168 26.3523 129.314 26.4605 127.46 26.5689ZM145.137 34.9593C144.295 35.007 143.473 35.0547 142.651 35.1024C142.643 36.4071 142.634 37.7121 142.626 39.017C144.606 38.9026 146.607 38.7881 148.587 38.6736C149.274 33.508 150.005 28.3331 150.692 23.167C151.38 17.9926 152.109 12.8151 152.819 7.63872C154.125 7.56215 155.41 7.48558 156.696 7.40901C156.661 12.5465 156.626 17.6843 156.591 22.8215C156.556 27.9515 156.522 33.089 156.487 38.219C157.771 38.1444 159.078 38.0701 160.384 37.9945C160.423 32.1674 160.464 26.3402 160.503 20.5134C160.543 14.6787 160.583 8.85154 160.623 3.01663C156.893 3.2388 153.163 3.46048 149.454 3.68116C148.723 8.90502 147.993 14.1206 147.285 19.3266C146.575 24.54 145.846 29.7545 145.137 34.9593ZM171.985 1.88087C170.329 3.73865 168.694 5.60295 167.08 7.45144C167.052 11.5749 167.023 15.6907 166.995 19.8139C166.966 23.9296 166.938 28.0451 166.91 32.1609C168.477 33.9388 170.086 35.716 171.695 37.4859C173.738 37.3671 175.782 37.2486 177.867 37.1289C179.502 35.1725 181.138 33.2077 182.773 31.2418C182.802 27.1225 182.831 23.003 182.861 18.8838C182.89 14.757 182.919 10.6373 182.948 6.51025C181.338 4.85306 179.728 3.17956 178.118 1.51409C176.052 1.6366 174.008 1.75936 171.985 1.88087ZM178.845 29.8329C177.974 30.9011 177.103 31.9613 176.232 33.0217C175.263 33.0769 174.315 33.1319 173.388 33.1859C172.511 32.2279 171.654 31.2686 170.776 30.3016C170.801 26.7487 170.826 23.1878 170.85 19.6347C170.875 16.074 170.9 12.5131 170.925 8.95222C171.795 7.97061 172.666 6.98775 173.536 5.99685C174.506 5.93885 175.475 5.88086 176.465 5.82312C177.301 6.71209 178.138 7.59353 178.995 8.47371C178.97 12.0361 178.945 15.5988 178.92 19.1609C178.895 22.7156 178.87 26.2782 178.845 29.8329ZM203.466 0.466703C202.821 5.14478 202.197 9.81332 201.573 14.4819C201.163 18.7532 200.753 23.0156 200.364 27.2777C200.301 27.2812 200.259 27.2837 200.216 27.2862C199.868 23.0048 199.52 18.7236 199.173 14.4349C198.595 9.90144 198.017 5.36721 197.46 0.825455C194.847 0.981106 192.213 1.13701 189.621 1.2914C189.579 7.12783 189.537 12.9567 189.495 18.7932C189.454 24.6218 189.412 30.4504 189.37 36.2791C190.676 36.2045 191.982 36.1285 193.309 36.0526C193.346 30.9202 193.383 25.7794 193.42 20.6472C193.457 15.5069 193.494 10.3664 193.531 5.22587C193.679 5.21708 193.826 5.2083 193.995 5.198C194.635 9.85299 195.265 14.5165 195.895 19.1705C196.524 23.8199 197.175 28.4817 197.816 33.1294C199.459 33.0348 201.123 32.9389 202.766 32.843C203.453 28.1174 204.142 23.3748 204.807 18.6488C205.474 13.9147 206.183 9.17063 206.87 4.43431C207.018 4.42552 207.187 4.41674 207.355 4.40669C207.317 9.55097 207.279 14.6953 207.242 19.8398C207.204 24.9763 207.166 30.1206 207.128 35.2573C208.413 35.1825 209.741 35.1064 211.068 35.0304C211.111 29.1944 211.154 23.3585 211.197 17.5231C211.24 11.6794 211.283 5.84346 211.327 0C208.713 0.155902 206.079 0.311804 203.466 0.466703Z" fill="#FCFCFC"/>
<path d="M65.9215 62.488C65.9436 58.6914 65.9656 54.887 65.9875 51.0825C64.3024 51.1784 62.6385 51.2731 60.9956 51.3675C60.9738 55.1709 60.9517 58.9743 60.9301 62.77C60.4245 62.7983 59.9191 62.8267 59.4346 62.8538C59.4592 58.5842 59.4838 54.307 59.5081 50.0294C62.1411 49.8783 64.8163 49.7261 67.4702 49.5737C67.4453 53.8529 67.4205 58.1323 67.3959 62.4039C66.8903 62.4323 66.3849 62.4607 65.9215 62.488Z" fill="#FCFCFC"/>
<path d="M77.8844 61.8122C77.9037 58.5423 77.923 55.2651 77.9426 51.9873C77.9215 51.9886 77.9004 51.9896 77.8796 51.9909C77.0709 53.4065 76.2626 54.822 75.475 56.2364C74.3684 58.2064 73.262 60.1754 72.1559 62.1361C71.6713 62.1634 71.1871 62.1905 70.7236 62.2167C70.7485 57.9598 70.7733 53.6952 70.7984 49.4306C71.283 49.403 71.7886 49.3742 72.294 49.3455C72.2744 52.6843 72.2548 56.023 72.2355 59.3542C72.2355 59.3542 72.2355 59.3542 72.2563 59.3529C73.086 57.8823 73.916 56.4036 74.7457 54.9236C75.3844 53.7824 76.0015 52.6815 76.5972 51.6203C77.193 50.5669 77.6825 49.6985 78.0654 49.0152C78.5291 48.9885 78.9922 48.9622 79.4557 48.9346C79.4303 53.2012 79.405 57.468 79.3799 61.7269C78.8953 61.7552 78.3897 61.7838 77.8844 61.8122Z" fill="#FCFCFC"/>
<path d="M82.0092 61.9679C81.9263 61.7857 81.8432 61.5803 81.7393 61.3526C81.6564 61.1236 81.5733 60.9105 81.4902 60.7282C81.913 60.4631 82.2517 60.1872 82.5268 59.9148C82.8022 59.6422 83.0149 59.2799 83.1861 58.8265C83.357 58.3731 83.4658 57.8065 83.5333 57.1176C83.6003 56.4287 83.6478 55.523 83.6545 54.4171C83.6661 52.5013 83.6776 50.5855 83.6889 48.6698C86.0061 48.5375 88.3231 48.4052 90.6611 48.2716C90.6353 52.5488 90.6091 56.8259 90.5833 61.0953C90.0779 61.1239 89.5723 61.1523 89.088 61.1796C89.1111 57.378 89.134 53.5685 89.1573 49.7591C87.7881 49.8374 86.4399 49.9142 85.0918 49.991C85.0815 51.7278 85.071 53.4648 85.0607 55.1938C85.0541 56.2372 84.9859 57.1289 84.8551 57.8758C84.7454 58.6139 84.552 59.2553 84.3171 59.7903C84.0615 60.3185 83.764 60.7556 83.3829 61.1041C82.9807 61.446 82.5369 61.7357 82.0092 61.9679Z" fill="#FCFCFC"/>
<path d="M97.7195 47.6801C98.5198 47.6342 99.1929 47.7672 99.7171 48.08C100.242 48.3851 100.681 48.7963 100.994 49.3162C101.286 49.7515 101.493 50.402 101.593 51.2613C101.714 52.1194 101.75 53.0604 101.744 54.0661C101.742 54.3779 101.74 54.7208 101.716 55.0964C101.693 55.4715 101.67 55.8393 101.625 56.2158C101.581 56.5924 101.536 56.9456 101.471 57.2843C101.427 57.6142 101.362 57.8984 101.297 58.1281C100.976 59.0813 100.487 59.7634 99.7899 60.1847C99.0925 60.606 98.3122 60.845 97.4486 60.8937C96.6482 60.9389 95.9754 60.8133 95.451 60.5078C94.9474 60.209 94.55 59.8031 94.2582 59.3053C93.9452 58.8556 93.7386 58.221 93.6171 57.402C93.4958 56.5834 93.4383 55.6439 93.4448 54.592C93.4499 53.7583 93.4968 52.9768 93.5643 52.2563C93.6321 51.528 93.7619 50.9207 93.9334 50.4201C94.2334 49.5929 94.7217 48.9421 95.3561 48.4694C96.0118 47.9957 96.7926 47.7331 97.7195 47.6801ZM97.6891 49.1932C97.1624 49.2233 96.7193 49.3732 96.3176 49.6456C95.9157 49.9255 95.6187 50.3164 95.3837 50.8283C95.2132 51.1808 95.1048 51.6934 95.0375 52.3592C94.9913 53.032 94.9657 53.8045 94.9602 54.6852C94.9546 55.5659 94.9926 56.2959 95.0729 56.8912C95.1326 57.4799 95.2773 57.9468 95.5067 58.2767C95.923 59.0632 96.6153 59.429 97.5633 59.3756C98.0898 59.3457 98.5751 59.1782 98.9981 58.8659C99.4211 58.5616 99.7397 58.0995 99.933 57.4806C100.062 57.1304 100.149 56.6424 100.173 56.0331C100.219 55.415 100.245 54.7434 100.249 54.0186C100.254 53.2469 100.216 52.5711 100.178 51.9886C100.118 51.4155 100.036 50.9762 99.9119 50.6716C99.7256 50.1522 99.4331 49.7636 99.0556 49.5203C98.6571 49.2703 98.1945 49.1643 97.6891 49.1932Z" fill="#FCFCFC"/>
<path d="M113.561 59.7961C113.58 56.6522 113.601 53.5088 113.62 50.3649C113.236 51.229 112.851 52.0931 112.467 52.9572C112.254 53.4059 112.04 53.8548 111.827 54.2956C111.614 54.7445 111.421 55.1685 111.229 55.585C111.037 55.9937 110.866 56.3698 110.696 56.7225C110.546 57.0662 110.418 57.3464 110.333 57.5618C109.996 57.5808 109.659 57.5999 109.322 57.619C109.051 57.0808 108.802 56.5259 108.532 55.9721C108.283 55.4093 108.013 54.8635 107.743 54.3252C107.202 53.1789 106.662 52.0248 106.143 50.8695C106.121 50.8708 106.121 50.8708 106.121 50.8708C106.102 53.9898 106.083 57.1086 106.063 60.2199C105.558 60.2488 105.052 60.2771 104.547 60.3058C104.573 56.0331 104.6 51.7525 104.627 47.472C105.111 47.4444 105.596 47.4166 106.101 47.3877C106.454 48.1469 106.808 48.8983 107.161 49.6421C107.514 50.3857 107.868 51.1374 108.242 51.8958C108.782 53.0577 109.322 54.2198 109.862 55.3741C110.46 54.038 111.058 52.7022 111.677 51.3646C112.061 50.5085 112.446 49.6833 112.83 48.8895C113.193 48.0967 113.491 47.4479 113.726 46.9509C114.189 46.9245 114.674 46.8966 115.159 46.869C115.131 51.1519 115.104 55.4351 115.077 59.7105C114.572 59.7389 114.066 59.7675 113.561 59.7961Z" fill="#FCFCFC"/>
<path d="M124.141 58.1063C123.822 58.5926 123.378 58.9453 122.829 59.1559C122.301 59.3731 121.711 59.4923 121.1 59.5267C119.963 59.5912 119.101 59.289 118.537 58.6189C117.931 57.9501 117.642 57.085 117.649 56.0238C117.652 55.4853 117.739 54.9656 117.89 54.4736C118.04 53.9813 118.275 53.5467 118.614 53.1854C118.953 52.8151 119.355 52.5191 119.841 52.2809C120.348 52.0414 120.938 51.9063 121.612 51.8679C122.476 51.8185 123.36 51.7682 124.245 51.7178C124.249 51.1245 124.253 50.5313 124.256 49.9303C124.261 49.2354 124.075 48.6921 123.677 48.3168C123.301 47.9327 122.712 47.7637 121.912 47.8094C121.364 47.8408 120.879 47.9701 120.414 48.1993C119.971 48.42 119.632 48.7669 119.397 49.2329C119.208 49.142 119.02 49.0202 118.81 48.8764C118.621 48.731 118.39 48.6027 118.223 48.4875C118.585 47.8519 119.072 47.3402 119.685 46.9541C120.319 46.5667 121.058 46.345 121.922 46.2953C122.469 46.264 122.974 46.2973 123.437 46.3958C123.921 46.4851 124.341 46.6717 124.676 46.9488C125.032 47.2252 125.282 47.6008 125.49 48.0728C125.676 48.5538 125.778 49.1568 125.773 49.8826C125.753 52.9582 125.733 56.0341 125.713 59.1095C125.208 59.1383 124.702 59.167 124.197 59.1956C124.199 58.8444 124.201 58.4854 124.204 58.1261C124.183 58.1196 124.162 58.1128 124.141 58.1063ZM124.236 53.154C123.33 53.2055 122.445 53.256 121.561 53.3062C120.845 53.3471 120.254 53.568 119.788 53.9767C119.322 54.3854 119.087 55.0073 119.081 55.8423C119.077 56.5211 119.284 57.0554 119.703 57.4606C120.1 57.8595 120.709 58.0433 121.531 57.9968C121.889 57.9765 122.226 57.9107 122.543 57.8068C122.859 57.7031 123.134 57.5547 123.388 57.3531C123.642 57.1593 123.833 56.9065 123.982 56.5937C124.153 56.2799 124.218 55.8938 124.221 55.4411C124.226 54.6837 124.231 53.9187 124.236 53.154Z" fill="#FCFCFC"/>
<path d="M132.253 47.2962C132.229 51.115 132.203 54.9337 132.179 58.7446C131.652 58.7733 131.147 58.8019 130.662 58.8292C130.687 55.0188 130.712 51.2003 130.737 47.3821C129.663 47.4436 128.588 47.5051 127.535 47.5654C127.538 47.0969 127.541 46.6287 127.544 46.1602C130.177 46.0091 132.831 45.858 135.485 45.7056C135.482 46.1743 135.479 46.643 135.476 47.1114C134.402 47.1732 133.328 47.2347 132.253 47.2962Z" fill="#FCFCFC"/>
<path d="M144.093 55.8596C143.793 56.6187 143.325 57.231 142.691 57.6809C142.077 58.1376 141.381 58.3801 140.602 58.4243C139.717 58.4732 139.023 58.3798 138.477 58.1454C137.91 57.9041 137.471 57.5152 137.138 56.98C136.804 56.4443 136.577 55.7624 136.435 54.9349C136.293 54.1075 136.237 53.1269 136.244 51.9944C136.249 51.1822 136.296 50.3751 136.428 49.5868C136.539 48.7995 136.754 48.0925 137.074 47.4649C137.394 46.8378 137.818 46.3214 138.347 45.9162C138.876 45.511 139.573 45.2835 140.415 45.2351C141.153 45.1939 141.783 45.2984 142.287 45.5348C142.812 45.7784 143.231 46.1291 143.544 46.5878C143.877 47.0449 144.105 47.6022 144.248 48.2577C144.412 48.9047 144.471 49.6277 144.466 50.4092C144.462 50.9485 144.458 51.4878 144.455 52.027C142.222 52.1543 139.969 52.2816 137.736 52.4091C137.731 53.1198 137.769 53.7658 137.849 54.3312C137.93 54.9046 138.074 55.3883 138.282 55.7903C138.49 56.2002 138.783 56.5038 139.139 56.7099C139.496 56.9162 139.958 56.9991 140.548 56.9669C141.054 56.9383 141.518 56.7556 141.92 56.4204C142.344 56.084 142.641 55.6843 142.834 55.2204C143.253 55.4385 143.673 55.6492 144.093 55.8596ZM142.969 50.7291C142.972 50.1353 142.934 49.5828 142.874 49.0787C142.793 48.5756 142.67 48.1453 142.504 47.7875C142.317 47.4313 142.066 47.1644 141.73 46.9806C141.416 46.7956 140.995 46.718 140.447 46.7484C139.942 46.7773 139.52 46.9109 139.181 47.1413C138.843 47.3715 138.588 47.6751 138.375 48.0619C138.183 48.4478 138.033 48.9017 137.945 49.4141C137.879 49.9255 137.812 50.476 137.808 51.0775C139.514 50.9801 141.241 50.8825 142.968 50.7838C142.968 50.7682 142.968 50.7524 142.969 50.7291Z" fill="#FCFCFC"/>
<path d="M148.599 46.4394C148.982 45.808 149.427 45.3539 149.913 45.076C150.42 44.7965 150.948 44.6336 151.517 44.6007C152.338 44.5535 152.969 44.7047 153.451 45.0443C153.954 45.3762 154.33 45.8392 154.557 46.4279C154.806 47.0156 154.97 47.7017 155.028 48.4877C155.106 49.2803 155.143 50.099 155.137 50.9513C155.132 51.7645 155.084 52.5723 154.994 53.3749C154.905 54.1693 154.711 54.8918 154.433 55.5327C154.176 56.1727 153.772 56.7036 153.264 57.1143C152.756 57.5261 152.081 57.752 151.259 57.7987C150.67 57.8321 150.144 57.7292 149.724 57.4949C149.263 57.2622 148.886 56.9087 148.532 56.4365C148.511 56.4375 148.489 56.439 148.489 56.439C148.475 58.651 148.46 60.8553 148.445 63.067C147.939 63.0956 147.434 63.1242 146.929 63.1529C146.969 57.1269 147.01 51.0854 147.05 45.0438C147.555 45.0147 148.061 44.9858 148.567 44.9567C148.563 45.449 148.56 45.9338 148.557 46.4183C148.578 46.4171 148.599 46.4236 148.599 46.4394ZM150.975 56.252C151.565 56.2183 152.029 56.0512 152.389 55.7494C152.728 55.4489 152.983 55.067 153.155 54.5805C153.348 54.1005 153.457 53.5552 153.524 52.9494C153.57 52.3451 153.616 51.717 153.62 51.0761C153.625 50.3957 153.588 49.7493 153.55 49.1262C153.491 48.5121 153.389 47.9786 153.202 47.5282C153.037 47.0766 152.787 46.7236 152.452 46.4695C152.116 46.223 151.675 46.1075 151.106 46.1404C150.474 46.1768 150.01 46.3674 149.65 46.7085C149.289 47.0485 149.034 47.477 148.883 47.9856C148.711 48.4877 148.623 49.0398 148.577 49.6363C148.552 50.2315 148.527 50.7954 148.524 51.3347C148.52 51.8664 148.537 52.4199 148.555 53.0129C148.593 53.6047 148.673 54.1391 148.838 54.6297C149.004 55.1205 149.254 55.5204 149.588 55.8305C149.923 56.1478 150.385 56.2854 150.975 56.252Z" fill="#FCFCFC"/>
<path d="M165.35 56.8699C165.373 53.5839 165.395 50.2898 165.418 46.9963C165.376 46.9985 165.355 46.9998 165.334 47.0008C164.524 48.424 163.714 49.8465 162.904 51.2682C161.775 53.2482 160.645 55.2272 159.537 57.198C159.053 57.2253 158.569 57.253 158.084 57.2793C158.113 53.0014 158.142 48.7157 158.171 44.43C158.698 44.4012 159.204 44.3721 159.709 44.3427C159.686 47.6982 159.663 51.0535 159.64 54.401C159.64 54.401 159.641 54.401 159.662 54.3998C160.493 52.9216 161.345 51.4354 162.176 49.9491C162.816 48.8021 163.455 47.6942 164.052 46.6288C164.649 45.5701 165.139 44.6972 165.523 44.0103C165.986 43.9837 166.471 43.9571 166.955 43.9292C166.925 48.2169 166.896 52.5048 166.866 56.7845C166.361 56.8134 165.834 56.842 165.35 56.8699Z" fill="#FCFCFC"/>
<path d="M176.225 55.1599C175.884 55.6487 175.44 56.0017 174.891 56.2128C174.363 56.4307 173.773 56.5502 173.141 56.5864C172.025 56.6499 171.143 56.3469 170.558 55.6761C169.994 55.0043 169.706 54.1366 169.713 53.0724C169.717 52.5324 169.804 52.0112 169.955 51.5174C170.106 51.0238 170.341 50.588 170.659 50.2255C170.977 49.8552 171.401 49.5572 171.907 49.3182C172.415 49.078 173.005 48.9421 173.679 48.9037C174.542 48.854 175.427 48.8033 176.333 48.7526C176.337 48.1576 176.341 47.5626 176.346 46.9598C176.35 46.2632 176.165 45.7181 175.746 45.3421C175.37 44.9567 174.76 44.7885 173.981 44.8332C173.433 44.8648 172.927 44.9956 172.483 45.2246C172.04 45.4458 171.7 45.794 171.423 46.2624C171.256 46.1703 171.067 46.048 170.857 45.9037C170.648 45.7593 170.459 45.6293 170.292 45.5138C170.633 44.8761 171.121 44.363 171.755 43.9756C172.389 43.5872 173.128 43.3645 173.992 43.3148C174.518 43.2842 175.044 43.3166 175.507 43.415C176.012 43.5046 176.41 43.6929 176.766 43.9698C177.101 44.2477 177.372 44.6233 177.559 45.098C177.766 45.5791 177.846 46.1848 177.841 46.9129C177.819 49.9978 177.797 53.0825 177.776 56.1671C177.27 56.196 176.765 56.2246 176.28 56.2522C176.283 55.9 176.285 55.54 176.288 55.1797C176.267 55.173 176.246 55.1664 176.225 55.1599ZM176.323 50.1929C175.396 50.2448 174.511 50.2956 173.627 50.3463C172.911 50.3874 172.32 50.6089 171.853 51.0191C171.366 51.429 171.13 52.0527 171.125 52.8899C171.12 53.571 171.327 54.1068 171.745 54.5145C172.163 54.9131 172.773 55.0974 173.594 55.0505C173.931 55.0311 174.268 54.9651 174.606 54.8599C174.922 54.7557 175.197 54.6071 175.451 54.4045C175.705 54.2102 175.917 53.9566 176.067 53.6431C176.216 53.3292 176.304 52.9409 176.307 52.4867C176.312 51.7275 176.317 50.9601 176.323 50.1929Z" fill="#FCFCFC"/>
<path d="M180.174 56.423C180.091 56.24 180.008 56.0333 179.905 55.8044C179.822 55.5744 179.739 55.36 179.656 55.1768C180.079 54.9099 180.418 54.6322 180.694 54.3583C180.99 54.0844 181.203 53.7199 181.375 53.264C181.547 52.8078 181.656 52.2382 181.724 51.5453C181.792 50.8527 181.841 49.9419 181.849 48.8299C181.862 46.9034 181.876 44.9768 181.889 43.0505C184.227 42.9169 186.566 42.7831 188.925 42.6481C188.894 46.9488 188.863 51.2498 188.833 55.543C188.327 55.5719 187.822 55.6005 187.337 55.6281C187.365 51.8054 187.392 47.9751 187.419 44.1446C186.029 44.2234 184.66 44.3012 183.312 44.3788C183.299 46.1254 183.287 47.8717 183.275 49.6102C183.267 50.6599 183.198 51.5564 183.066 52.3072C182.956 53.0496 182.741 53.6948 182.505 54.2328C182.249 54.764 181.951 55.2036 181.57 55.5543C181.167 55.898 180.702 56.1895 180.174 56.423Z" fill="#FCFCFC"/>
<path d="M196.067 42.051C196.889 42.0048 197.561 42.1384 198.107 42.4527C198.631 42.7595 199.07 43.1727 199.382 43.6954C199.674 44.133 199.879 44.787 199.978 45.6511C200.098 46.5139 200.134 47.4602 200.126 48.4714C200.124 48.7849 200.121 49.1299 200.098 49.5072C200.074 49.8848 200.05 50.2546 200.005 50.6332C199.961 51.0118 199.916 51.367 199.85 51.7077C199.805 52.0393 199.74 52.325 199.676 52.5562C199.353 53.5147 198.864 54.2009 198.166 54.6246C197.447 55.0484 196.666 55.2889 195.782 55.3381C194.981 55.3838 194.309 55.2578 193.763 54.9508C193.26 54.6505 192.863 54.2423 192.572 53.7419C192.239 53.29 192.033 52.6516 191.912 51.8284C191.792 51.005 191.735 50.0605 191.743 49.0029C191.749 48.1643 191.797 47.3786 191.865 46.654C191.934 45.9217 192.064 45.3112 192.236 44.8078C192.558 43.9758 193.047 43.3211 193.682 42.8456C194.359 42.3691 195.14 42.1045 196.067 42.051ZM196.035 43.5726C195.509 43.603 195.065 43.7539 194.663 44.028C194.261 44.3095 193.943 44.7026 193.707 45.2175C193.536 45.5722 193.427 46.0874 193.359 46.7572C193.312 47.4335 193.286 48.2105 193.279 49.096C193.273 49.9815 193.31 50.7155 193.39 51.314C193.449 51.906 193.593 52.3757 193.822 52.7071C194.258 53.4979 194.95 53.866 195.898 53.8117C196.446 53.7816 196.931 53.6129 197.354 53.2988C197.778 52.9926 198.118 52.5279 198.312 51.9055C198.441 51.5533 198.528 51.0625 198.554 50.4499C198.601 49.8283 198.626 49.153 198.632 48.4239C198.637 47.6482 198.6 46.9686 198.562 46.3831C198.503 45.8067 198.422 45.3646 198.298 45.0586C198.113 44.5364 197.799 44.1458 197.422 43.9013C197.024 43.65 196.562 43.5435 196.035 43.5726Z" fill="#FCFCFC"/>
<path d="M211.059 50.516C211.054 51.1828 210.965 51.7522 210.751 52.2427C210.558 52.7242 210.282 53.1241 209.942 53.4493C209.582 53.7746 209.201 54.0237 208.758 54.1979C208.272 54.3734 207.808 54.4705 207.282 54.5007C205.829 54.5825 204.376 54.6643 202.943 54.7449C202.975 50.4485 203.006 46.1439 203.037 41.8397C204.512 41.7556 206.007 41.6702 207.503 41.5849C208.662 41.5193 209.523 41.7829 210.087 42.3787C210.651 42.9734 210.919 43.7891 210.911 44.8164C210.907 45.3812 210.798 45.9052 210.584 46.3955C210.349 46.8873 209.967 47.3013 209.375 47.6322C209.375 47.6322 209.375 47.6322 209.396 47.6309C209.711 47.7303 210.004 47.8872 210.213 48.0946C210.422 48.3022 210.589 48.5279 210.713 48.7872C210.838 49.0388 210.941 49.3152 210.981 49.6187C211.042 49.921 211.061 50.2258 211.059 50.516ZM209.394 44.9341C209.399 44.3067 209.192 43.8247 208.773 43.5039C208.334 43.1753 207.766 43.0357 207.029 43.0784C206.186 43.1258 205.365 43.172 204.565 43.2182C204.555 44.5749 204.545 45.9313 204.535 47.2799C205.314 47.235 206.136 47.1891 206.957 47.1429C207.61 47.1055 208.18 46.9079 208.667 46.5597C209.153 46.2102 209.389 45.6637 209.394 44.9341ZM209.585 50.5366C209.589 49.8934 209.425 49.3855 209.069 49.0217C208.714 48.6502 208.084 48.489 207.263 48.5362C206.336 48.5884 205.43 48.6404 204.524 48.6913C204.514 50.1811 204.503 51.663 204.492 53.145C205.355 53.0968 206.198 53.0486 207.061 53.0004C207.82 52.9569 208.453 52.7415 208.898 52.3632C209.363 51.9761 209.579 51.3678 209.585 50.5366Z" fill="#FCFCFC"/>
<path d="M165.243 72.29C165.432 72.4203 165.642 72.5338 165.851 72.6395C166.082 72.7369 166.292 72.8426 166.523 72.9548C166.223 73.6911 165.756 74.2871 165.143 74.7202C164.529 75.1532 163.812 75.3967 162.949 75.4437C162.064 75.4931 161.328 75.3624 160.783 75.0563C160.196 74.744 159.757 74.2994 159.445 73.7227C159.134 73.1383 158.928 72.4384 158.807 71.6084C158.686 70.7787 158.63 69.8751 158.636 68.8975C158.642 67.998 158.732 67.1487 158.885 66.3504C159.038 65.5601 159.295 64.8654 159.636 64.2754C159.998 63.6764 160.443 63.2057 161.035 62.8372C161.585 62.4777 162.281 62.2741 163.081 62.2286C163.966 62.1799 164.68 62.3429 165.267 62.7084C165.854 63.0742 166.314 63.6205 166.603 64.3314C166.18 64.6289 165.736 64.9186 165.313 65.2086C165.127 64.7341 164.856 64.3583 164.479 64.0982C164.102 63.8301 163.64 63.7076 163.092 63.7374C162.481 63.7718 161.975 63.9411 161.594 64.2285C161.213 64.5237 160.916 64.9001 160.681 65.3658C160.489 65.8302 160.359 66.3612 160.27 66.9604C160.203 67.5584 160.157 68.1788 160.152 68.8278C160.148 69.4772 160.186 70.1084 160.245 70.7305C160.303 71.3604 160.426 71.9164 160.633 72.3974C160.861 72.8862 161.132 73.2698 161.509 73.5538C161.886 73.8375 162.369 73.959 162.98 73.9251C163.549 73.8942 164.013 73.7278 164.394 73.4247C164.775 73.1142 165.051 72.7389 165.243 72.29Z" fill="#FCFCFC"/>
<path d="M168.719 74.9686C168.748 70.6726 168.778 66.3686 168.808 62.0648C169.313 62.0362 169.819 62.0076 170.324 61.979C170.311 63.8884 170.298 65.7979 170.285 67.6996C170.874 67.6665 171.485 67.6334 172.075 67.6002C172.285 67.5882 172.517 67.5596 172.749 67.4996C172.96 67.4408 173.171 67.3427 173.383 67.19C173.573 67.0384 173.764 66.8398 173.934 66.58C174.104 66.3277 174.233 65.992 174.362 65.5622C174.687 64.2761 175.033 62.9889 175.379 61.694C175.863 61.6677 176.347 61.6403 176.832 61.6127C176.486 62.8767 176.161 64.1392 175.837 65.4018C175.622 66.0465 175.407 66.583 175.152 67.0201C174.896 67.4647 174.557 67.7654 174.114 67.9311C174.661 68.0413 175.059 68.3162 175.308 68.7561C175.537 69.1894 175.764 69.7334 175.907 70.3668C176.256 71.7559 176.625 73.1281 176.994 74.5084C176.489 74.5365 175.983 74.5649 175.457 74.593C175.15 73.3505 174.843 72.1078 174.536 70.8574C174.412 70.4497 174.288 70.1122 174.164 69.8454C174.018 69.5875 173.851 69.3857 173.663 69.2476C173.474 69.1098 173.265 69.0275 173.033 68.9858C172.802 68.9441 172.55 68.9348 172.276 68.9501C171.602 68.988 170.928 69.0247 170.275 69.0613C170.261 71.01 170.248 72.9509 170.235 74.884C169.729 74.9121 169.224 74.9402 168.719 74.9686Z" fill="#FCFCFC"/>
<path d="M178.634 74.8078C178.551 74.6168 178.468 74.4102 178.385 74.18C178.282 73.951 178.199 73.7444 178.116 73.5533C178.539 73.287 178.899 73.0176 179.174 72.7439C179.45 72.47 179.663 72.106 179.835 71.6501C180.006 71.1945 180.115 70.6246 180.204 69.9309C180.272 69.2383 180.3 68.3365 180.308 67.2168C180.321 65.2905 180.335 63.3644 180.349 61.4381C182.686 61.3068 185.045 61.1755 187.404 61.043C187.373 65.3435 187.342 69.644 187.312 73.9367C186.785 73.9651 186.28 73.9934 185.796 74.0205C185.823 70.2058 185.85 66.3755 185.877 62.5453C184.487 62.6231 183.139 62.6994 181.771 62.7755C181.758 64.5218 181.746 66.2681 181.734 68.0066C181.726 69.048 181.657 69.9445 181.546 70.6944C181.415 71.4375 181.221 72.0824 180.985 72.6199C180.75 73.1499 180.41 73.5905 180.029 73.9327C179.648 74.2748 179.183 74.5671 178.634 74.8078Z" fill="#FCFCFC"/>
<path d="M196.585 72.3174C196.266 72.8132 195.821 73.1582 195.273 73.3769C194.724 73.5877 194.155 73.7138 193.502 73.7492C192.365 73.8129 191.504 73.5074 190.92 72.8273C190.356 72.162 190.068 71.2931 190.075 70.2277C190.079 69.695 190.146 69.1743 190.297 68.6724C190.469 68.1774 190.703 67.7488 191.022 67.3785C191.34 67.016 191.742 66.7115 192.27 66.4712C192.756 66.2402 193.347 66.0971 194.041 66.058C194.926 66.0093 195.81 65.9593 196.716 65.9094C196.72 65.3136 196.724 64.7181 196.729 64.1224C196.734 63.4169 196.527 62.8726 196.151 62.4943C195.733 62.1095 195.145 61.939 194.344 61.9844C193.797 62.0143 193.291 62.1449 192.847 62.3736C192.403 62.6023 192.043 62.9427 191.787 63.4114C191.619 63.319 191.431 63.1968 191.221 63.0519C191.012 62.907 190.823 62.7767 190.656 62.6688C190.997 62.0228 191.464 61.511 192.098 61.1223C192.732 60.7352 193.471 60.5211 194.355 60.4719C194.903 60.441 195.408 60.4749 195.891 60.565C196.396 60.6629 196.795 60.8439 197.15 61.1216C197.485 61.4002 197.756 61.7766 197.963 62.2596C198.17 62.7336 198.25 63.3401 198.245 64.0692C198.222 67.1654 198.2 70.2535 198.178 73.3339C197.651 73.3623 197.146 73.3907 196.662 73.4178C196.664 73.0653 196.667 72.7045 196.669 72.344C196.627 72.3385 196.606 72.332 196.585 72.3174ZM196.706 67.3516C195.779 67.4026 194.895 67.4523 193.989 67.5023C193.273 67.5427 192.682 67.7639 192.216 68.1738C191.729 68.5841 191.493 69.2082 191.487 70.0467C191.482 70.7283 191.689 71.2728 192.086 71.6735C192.525 72.0807 193.134 72.2501 193.955 72.2042C194.313 72.1851 194.65 72.1193 194.967 72.0154C195.283 71.9193 195.579 71.7694 195.833 71.5673C196.087 71.374 196.299 71.1192 196.449 70.8053C196.598 70.4913 196.686 70.1104 196.689 69.6558C196.695 68.8876 196.7 68.1196 196.706 67.3516Z" fill="#FCFCFC"/>
<path d="M201.669 76.5012C201.184 76.5283 200.7 76.5554 200.216 76.5813C200.227 75.037 200.238 73.4848 200.25 71.9326C200.566 71.869 200.861 71.7977 201.156 71.7262C201.41 71.5083 201.623 71.2612 201.793 70.9773C201.964 70.7014 202.114 70.3404 202.201 69.9121C202.309 69.475 202.397 68.9292 202.465 68.2672C202.533 67.6127 202.602 66.8018 202.673 65.8418C202.749 63.9564 202.847 62.0622 202.945 60.1678C205.367 60.0327 207.768 59.8974 210.211 59.7609C210.183 63.5886 210.154 67.4162 210.126 71.2281C210.442 71.2103 210.779 71.1915 211.137 71.1724C211.125 72.7804 211.113 74.3886 211.102 75.9807C210.596 76.0079 210.112 76.035 209.628 76.0621C209.636 74.9482 209.644 73.8267 209.653 72.6973C206.978 72.8451 204.325 72.9915 201.693 73.1378C201.685 74.2671 201.677 75.388 201.669 76.5012ZM204.304 61.5107C204.275 62.6095 204.225 63.686 204.154 64.7324C204.104 65.7856 204.034 66.7614 203.943 67.6521C203.874 68.5496 203.742 69.3407 203.589 70.0311C203.437 70.7137 203.222 71.2507 202.967 71.6245C204.82 71.5216 206.715 71.4174 208.589 71.3135C208.614 67.9725 208.638 64.6232 208.663 61.2667C207.21 61.348 205.757 61.4293 204.304 61.5107Z" fill="#FCFCFC"/>
<path d="M50.1426 71.5153C46.0789 67.8427 42.0317 64.1688 37.9717 60.4952C33.9237 56.8326 29.863 53.1464 25.8186 49.4748C26.6681 48.1073 27.4968 46.7396 28.3466 45.3716C34.3666 49.7381 40.3649 54.1074 46.3839 58.472C47.3612 56.925 48.3594 55.377 49.3367 53.8207C44.9745 50.6525 40.5916 47.4769 36.2284 44.3122C31.8656 41.1479 27.4805 37.9787 23.117 34.8104C22.1186 36.3652 21.1417 37.9122 20.1646 39.4579C20.1646 39.4657 20.1855 39.4722 20.2068 39.4787C16.9437 43.2593 13.6808 47.0313 10.4181 50.7998C7.15596 54.5676 3.8938 58.3346 0.673828 62.0996C1.8259 63.3202 2.99856 64.5398 4.17147 65.7595C7.45446 61.946 10.7746 58.1245 14.0639 54.313C17.3629 50.49 20.674 46.6743 24.0007 42.8443C20.6657 48.265 17.3446 53.6791 14.0388 59.0913C10.74 64.4924 7.43462 69.8927 4.14385 75.2944C5.50731 76.2564 6.87076 77.2187 8.25531 78.1732C10.6968 74.1837 13.133 70.182 15.5599 66.2016C17.9961 62.2056 20.4657 58.1983 22.9295 54.1946C26.8898 57.8016 30.8649 61.4251 34.8308 65.0209C38.8049 68.6239 42.7913 72.2298 46.7923 75.8361C47.916 74.3986 49.0187 72.9608 50.1426 71.5153Z" fill="#FCFCFC"/>
<path d="M27.2324 80.2338C27.2881 69.8393 27.3439 59.4368 27.3998 49.0423C27.4556 38.6478 27.5116 28.2377 27.5675 17.8274C25.9026 17.9263 24.2381 18.025 22.5734 18.1224C22.5131 29.4455 22.4531 40.7606 22.3931 52.0679C22.3329 63.3755 22.2729 74.6751 22.2129 85.9746C26.1715 85.7567 30.13 85.5373 34.1094 85.3176C34.1192 83.4927 34.1295 81.6676 34.1393 79.8505C31.8439 79.9783 29.5278 80.106 27.2324 80.2338Z" fill="#FCFCFC"/>
<path d="M44.8507 38.8285C41.8999 35.4888 38.945 32.1297 35.9972 28.797C33.0421 25.456 30.0935 22.102 27.1414 18.7603C28.7762 16.3906 30.3902 14.0126 32.0462 11.6251C30.7035 10.5868 29.382 9.54845 28.0605 8.49329C24.3658 13.913 20.649 19.3136 16.9778 24.7051C13.3042 30.1 9.61277 35.487 5.94141 40.871C7.24185 41.9194 8.56338 42.959 9.90575 43.9986C12.2403 40.5685 14.6172 37.1198 16.9517 33.688C19.2868 30.2554 21.664 26.7961 24.0203 23.3525C26.8677 26.5923 29.6943 29.8323 32.5407 33.0664C35.3879 36.3012 38.2551 39.5362 41.1224 42.772C42.3721 41.4575 43.601 40.143 44.8507 38.8285Z" fill="#FCFCFC"/>
<path fill-rule="evenodd" clip-rule="evenodd" d="M0 97.4857L212 87.5861V105.507L0 115.407V97.4857Z" fill="#FCFCFC"/>
<path d="M9.29492 109.031C9.32178 107.56 9.3489 106.088 9.37551 104.618C9.40237 103.149 9.42948 101.676 9.4561 100.205C11.6596 100.102 13.8625 99.9983 16.0853 99.8939C16.059 101.366 16.0326 102.84 16.0065 104.31C15.9802 105.782 15.954 107.255 15.9277 108.727C15.5988 108.742 15.2895 108.757 14.9802 108.771C15.0041 107.446 15.0274 106.122 15.0513 104.798C15.0749 103.475 15.0987 102.152 15.1223 100.828C13.5181 100.903 11.9335 100.977 10.3483 101.051C10.3245 102.374 10.3001 103.696 10.276 105.019C10.2522 106.342 10.2281 107.665 10.2037 108.989C9.89443 109.004 9.58489 109.018 9.29492 109.031ZM17.8419 108.64C17.86 107.625 17.8781 106.609 17.8959 105.595C17.914 104.58 17.9318 103.564 17.9499 102.549C18.2205 102.536 18.5105 102.523 18.8005 102.51C18.7866 103.295 18.7726 104.08 18.7588 104.866C18.745 105.651 18.7312 106.436 18.7174 107.222C19.2531 106.412 19.7956 105.607 20.3442 104.792C20.8864 103.987 21.435 103.171 22.0091 102.36C22.2604 102.348 22.5311 102.336 22.8017 102.324C22.7841 103.339 22.7663 104.355 22.7485 105.371C22.7309 106.386 22.7133 107.403 22.6958 108.418C22.4055 108.431 22.1156 108.444 21.8447 108.457C21.8585 107.671 21.8723 106.885 21.8859 106.099C21.8997 105.314 21.9135 104.528 21.9273 103.741C21.3529 104.553 20.8043 105.369 20.2618 106.174C19.7135 106.988 19.1708 107.794 18.6348 108.604C18.3641 108.616 18.0935 108.628 17.8419 108.64ZM24.2209 108.486C24.1097 108.223 23.9982 107.961 23.8867 107.699C24.2375 107.524 24.5249 107.297 24.7298 106.989C24.9221 106.7 25.0604 106.289 25.1566 105.772C25.252 105.261 25.2931 104.588 25.3072 103.76C25.316 103.241 25.325 102.724 25.334 102.206C26.6676 102.143 28.0208 102.081 29.3933 102.017C29.376 103.033 29.3584 104.051 29.3413 105.067C29.324 106.083 29.3069 107.101 29.2896 108.117C28.961 108.131 28.6514 108.145 28.3615 108.159C28.3765 107.279 28.3916 106.397 28.4064 105.516C28.4215 104.636 28.4365 103.755 28.4516 102.874C27.6784 102.909 26.9245 102.945 26.1899 102.979C26.1854 103.239 26.1808 103.499 26.1763 103.757C26.1603 104.711 26.0885 105.499 25.9426 106.124C25.7967 106.749 25.6079 107.244 25.3177 107.62C25.035 107.987 24.6883 108.281 24.2209 108.486ZM33.4646 108.038C32.9233 108.063 32.4395 107.96 32.0404 107.714C31.6555 107.478 31.347 107.124 31.1306 106.657C30.9182 106.198 30.8193 105.641 30.83 104.997C30.8408 104.353 30.9586 103.785 31.187 103.306C31.419 102.819 31.7394 102.439 32.1333 102.166C32.5407 101.883 33.0293 101.735 33.5705 101.71C34.1115 101.685 34.576 101.789 34.9749 102.035C35.3598 102.271 35.6721 102.629 35.8847 103.088C36.1009 103.555 36.196 104.106 36.1855 104.751C36.1749 105.395 36.0609 105.955 35.8292 106.442C35.6005 106.922 35.2767 107.312 34.8828 107.585C34.4753 107.867 34.0061 108.014 33.4646 108.038ZM33.4784 107.223C34.0003 107.199 34.4158 106.981 34.7454 106.555C35.0673 106.139 35.2257 105.547 35.2382 104.794C35.2508 104.031 35.1122 103.453 34.8032 103.07C34.4876 102.678 34.0786 102.502 33.5567 102.526C33.0348 102.55 32.6002 102.766 32.2708 103.187C31.9485 103.598 31.8094 104.191 31.7968 104.953C31.784 105.706 31.9038 106.283 32.2123 106.671C32.5279 107.068 32.9564 107.246 33.4784 107.223ZM37.6433 107.735C37.6601 106.718 37.677 105.699 37.6935 104.682C37.7103 103.665 37.7269 102.646 37.7437 101.629C37.995 101.617 38.2463 101.606 38.4976 101.593C38.8343 102.258 39.183 102.925 39.5081 103.586C39.8372 104.254 40.2013 104.914 40.5382 105.578C40.8972 104.882 41.2835 104.189 41.6348 103.488C41.982 102.795 42.3525 102.095 42.7309 101.397C42.9628 101.386 43.2141 101.375 43.4848 101.362C43.4682 102.38 43.4519 103.399 43.4356 104.417C43.4192 105.435 43.4029 106.455 43.3866 107.473C43.0964 107.486 42.8064 107.499 42.5551 107.511C42.5669 106.77 42.5792 106.027 42.5908 105.286C42.6026 104.545 42.6149 103.802 42.6269 103.06C42.3081 103.652 41.9621 104.243 41.6707 104.837C41.383 105.424 41.0528 106.021 40.7533 106.612C40.5793 106.62 40.4438 106.627 40.2891 106.634C39.9894 106.07 39.6776 105.503 39.4087 104.942C39.1361 104.375 38.8089 103.814 38.5285 103.249C38.5162 103.991 38.5042 104.733 38.4919 105.474C38.4798 106.214 38.4678 106.957 38.4557 107.698C38.1848 107.711 37.9142 107.723 37.6433 107.735ZM47.0007 107.42C46.6141 107.437 46.2694 107.368 45.98 107.222C45.6752 107.068 45.4254 106.859 45.2559 106.582C45.0865 106.305 44.9951 105.99 45.0003 105.638C45.0074 105.193 45.1294 104.836 45.3458 104.567C45.5627 104.297 45.9132 104.092 46.3987 103.959C46.9026 103.821 47.5613 103.735 48.4121 103.696C48.5279 103.691 48.6441 103.685 48.7794 103.679C48.7814 103.55 48.7837 103.42 48.7857 103.29C48.7937 102.77 48.7026 102.399 48.5133 102.177C48.3233 101.955 47.9966 101.856 47.5716 101.875C47.243 101.891 46.9124 101.955 46.5832 102.077C46.2712 102.193 45.9601 102.381 45.6084 102.632C45.4964 102.39 45.3845 102.149 45.2916 101.906C45.6044 101.666 45.9541 101.466 46.3636 101.316C46.7896 101.159 47.1978 101.075 47.5844 101.057C48.3187 101.023 48.852 101.198 49.1798 101.562C49.5163 101.936 49.7055 102.522 49.6927 103.336C49.6829 103.978 49.6727 104.62 49.6626 105.262C49.6526 105.903 49.6425 106.546 49.6325 107.187C49.3232 107.201 49.033 107.214 48.7623 107.227C48.7679 106.875 48.7734 106.522 48.7789 106.169C48.6185 106.537 48.3823 106.833 48.0694 107.057C47.7569 107.281 47.4263 107.401 47.0007 107.42ZM47.1677 106.646C47.6123 106.625 47.9969 106.429 48.2974 106.072C48.6072 105.704 48.7548 105.26 48.7631 104.724C48.7649 104.598 48.7669 104.472 48.7689 104.346C48.6529 104.352 48.5369 104.357 48.4209 104.362C47.783 104.391 47.2987 104.444 46.9307 104.525C46.5817 104.602 46.3181 104.714 46.1715 104.887C46.042 105.039 45.9722 105.262 45.9681 105.531C45.9626 105.874 46.0643 106.161 46.2641 106.359C46.4828 106.577 46.7811 106.663 47.1677 106.646ZM52.6298 107.05C52.6436 106.167 52.6571 105.282 52.671 104.399C52.6843 103.516 52.6981 102.632 52.7116 101.749C52.016 101.781 51.3391 101.813 50.6625 101.844C50.6668 101.573 50.6711 101.3 50.6754 101.027C52.3378 100.95 54.0196 100.872 55.7011 100.794C55.6969 101.067 55.6929 101.34 55.6888 101.611C55.0123 101.643 54.3163 101.675 53.6398 101.706C53.6259 102.589 53.6124 103.473 53.5988 104.356C53.5853 105.239 53.5715 106.124 53.5579 107.007C53.2486 107.022 52.9391 107.036 52.6298 107.05ZM59.1061 106.867C58.2169 106.907 57.519 106.662 57.0111 106.114C56.5113 105.574 56.2775 104.81 56.2924 103.836C56.3019 103.207 56.4345 102.649 56.6657 102.152C56.8936 101.663 57.2195 101.271 57.6297 100.988C58.0394 100.705 58.4865 100.551 59.0278 100.526C59.7815 100.491 60.384 100.739 60.794 101.243C61.2187 101.764 61.4324 102.478 61.4186 103.411C61.4166 103.541 61.4145 103.672 61.4128 103.801C60.0014 103.866 58.59 103.932 57.1786 103.997C57.2067 104.691 57.3977 105.209 57.7344 105.563C58.0635 105.909 58.5192 106.076 59.1184 106.049C59.4471 106.034 59.7764 105.961 60.0877 105.833C60.3985 105.706 60.7111 105.506 60.9664 105.231C61.0596 105.468 61.1718 105.702 61.2843 105.937C61.0289 106.208 60.7156 106.424 60.3084 106.592C59.9185 106.753 59.5123 106.848 59.1061 106.867ZM59.0549 101.28C58.5137 101.305 58.1102 101.509 57.7904 101.879C57.4615 102.26 57.275 102.738 57.2082 103.328C58.3294 103.276 59.4699 103.223 60.63 103.17C60.62 102.55 60.4663 102.079 60.1877 101.743C59.916 101.416 59.5379 101.258 59.0549 101.28ZM62.8064 108.851C62.827 107.452 62.8478 106.053 62.8686 104.654C62.8892 103.255 62.9098 101.856 62.9304 100.458C63.2399 100.443 63.5492 100.429 63.8583 100.415C63.853 100.781 63.8475 101.146 63.8422 101.51C64.0024 101.125 64.2612 100.823 64.6092 100.588C64.9441 100.362 65.3485 100.232 65.7931 100.211C66.2955 100.188 66.722 100.292 67.1018 100.535C67.4684 100.77 67.7611 101.128 67.9559 101.591C68.1532 102.06 68.2502 102.617 68.2406 103.273C68.2313 103.92 68.1181 104.483 67.907 104.97C67.6983 105.452 67.3948 105.842 67.0208 106.115C66.6331 106.397 66.2028 106.543 65.7002 106.566C65.2749 106.585 64.8725 106.494 64.5446 106.303C64.202 106.104 63.9524 105.831 63.8033 105.468C63.795 106.025 63.7867 106.582 63.7787 107.138C63.7704 107.695 63.7621 108.253 63.7541 108.808C63.4252 108.823 63.1157 108.837 62.8064 108.851ZM65.5187 105.755C66.0407 105.732 66.4559 105.513 66.7845 105.085C67.1059 104.667 67.2824 104.073 67.2934 103.316C67.3042 102.551 67.1453 101.97 66.8355 101.585C66.5192 101.193 66.1097 101.017 65.5878 101.04C65.0467 101.065 64.6237 101.29 64.3029 101.702C63.974 102.126 63.8244 102.712 63.8131 103.477C63.802 104.233 63.9353 104.803 64.2517 105.201C64.561 105.59 64.9775 105.78 65.5187 105.755ZM69.7238 106.269C69.7386 105.248 69.7534 104.225 69.768 103.204C69.7826 102.182 69.7974 101.16 69.8119 100.138C70.1019 100.125 70.3919 100.112 70.6818 100.098C70.6705 100.889 70.6592 101.679 70.6479 102.47C70.6366 103.26 70.6253 104.051 70.6141 104.841C71.1473 104.026 71.7001 103.21 72.2526 102.395C72.805 101.58 73.3769 100.764 73.9294 99.9468C74.1998 99.9345 74.4704 99.922 74.7411 99.9094C74.7268 100.931 74.7122 101.955 74.6981 102.977C74.6838 103.999 74.6693 105.022 74.655 106.044C74.365 106.057 74.075 106.07 73.7848 106.083C73.7959 105.293 73.8072 104.501 73.8182 103.71C73.8293 102.919 73.8405 102.128 73.8516 101.337C73.2993 102.154 72.7274 102.97 72.1748 103.786C71.6223 104.601 71.0888 105.417 70.5362 106.232C70.2653 106.244 69.9947 106.257 69.7238 106.269ZM78.2887 105.99C77.9214 106.007 77.5744 105.942 77.2674 105.792C76.9604 105.641 76.7191 105.423 76.5418 105.149C76.3596 104.867 76.2798 104.555 76.2845 104.202C76.2908 103.755 76.3872 103.393 76.6086 103.127C76.8391 102.851 77.1958 102.654 77.699 102.516C78.1847 102.382 78.8422 102.292 79.7121 102.252C79.8281 102.246 79.9441 102.241 80.0794 102.235C80.0812 102.105 80.0832 101.974 80.0849 101.844C80.092 101.322 80.0056 100.945 79.8103 100.727C79.6062 100.5 79.2931 100.405 78.8485 100.425C78.5199 100.44 78.1915 100.51 77.88 100.627C77.5508 100.75 77.2189 100.933 76.8868 101.184C76.7743 100.941 76.6619 100.699 76.5687 100.455C76.8617 100.215 77.2315 100.016 77.6585 99.862C78.0853 99.7078 78.4734 99.6215 78.8598 99.6037C79.5944 99.5698 80.1434 99.7294 80.4949 100.109C80.829 100.47 80.9839 101.073 80.9729 101.89C80.9641 102.535 80.9551 103.18 80.9465 103.824C80.9378 104.468 80.9287 105.113 80.9202 105.757C80.6302 105.771 80.34 105.784 80.05 105.797C80.0548 105.444 80.0596 105.09 80.0643 104.735C79.924 105.104 79.6885 105.401 79.376 105.626C79.0639 105.85 78.6944 105.971 78.2887 105.99ZM78.4539 105.213C78.9178 105.192 79.3074 105 79.6022 104.637C79.8971 104.273 80.0576 103.822 80.0651 103.283C80.0666 103.157 80.0684 103.031 80.0704 102.904C79.9348 102.91 79.8188 102.916 79.7028 102.921C79.0842 102.949 78.5816 103.007 78.2322 103.084C77.8646 103.166 77.6166 103.29 77.4738 103.447C77.3224 103.615 77.2558 103.825 77.2523 104.094C77.2476 104.439 77.3452 104.712 77.5692 104.926C77.7836 105.13 78.0866 105.23 78.4539 105.213ZM82.4651 105.825C82.3529 105.561 82.2405 105.297 82.1282 105.033C82.4782 104.857 82.7584 104.623 82.9688 104.317C83.1721 104.022 83.316 103.612 83.4104 103.091C83.5037 102.576 83.5424 101.899 83.5537 101.064C83.5605 100.542 83.5678 100.021 83.5748 99.499C84.9279 99.4354 86.3002 99.3719 87.692 99.3074C87.6785 100.331 87.6649 101.356 87.6514 102.38C87.638 103.403 87.6242 104.428 87.6109 105.452C87.2821 105.467 86.9728 105.481 86.6632 105.495C86.675 104.608 86.6868 103.72 86.6986 102.833C86.7104 101.945 86.7222 101.058 86.734 100.171C85.9608 100.207 85.1875 100.243 84.453 100.277C84.4494 100.539 84.4459 100.801 84.4424 101.061C84.4296 102.022 84.3606 102.816 84.2172 103.446C84.0734 104.076 83.8673 104.574 83.5786 104.953C83.2969 105.323 82.9319 105.619 82.4651 105.825ZM89.4672 105.367C89.4808 104.342 89.4941 103.317 89.5074 102.294C89.5207 101.27 89.5342 100.245 89.5475 99.2206C89.8568 99.2065 90.1661 99.1922 90.4948 99.1769C90.4855 99.9054 90.4759 100.635 90.4664 101.364C91.027 101.338 91.6072 101.312 92.1871 101.285C92.883 101.252 93.4371 101.401 93.8044 101.721C94.1824 102.05 94.3544 102.52 94.3464 103.144C94.3386 103.76 94.1387 104.256 93.7476 104.632C93.3562 105.009 92.8124 105.214 92.1359 105.245C91.2464 105.286 90.3567 105.326 89.4672 105.367ZM95.1718 105.106C95.1849 104.081 95.1979 103.055 95.2107 102.031C95.2238 101.006 95.2368 99.9802 95.2499 98.9557C95.5592 98.9414 95.8685 98.9268 96.1971 98.9118C96.1843 99.9365 96.171 100.962 96.1582 101.987C96.1451 103.012 96.1323 104.038 96.1193 105.063C95.7904 105.078 95.4811 105.092 95.1718 105.106ZM90.4242 104.589C90.9657 104.565 91.5072 104.54 92.0485 104.515C92.4934 104.495 92.8044 104.379 93.058 104.165C93.3123 103.95 93.4323 103.629 93.4376 103.199C93.4431 102.777 93.3271 102.474 93.0821 102.279C92.8491 102.092 92.5252 102.002 92.0806 102.022C91.5394 102.047 90.9981 102.072 90.4566 102.097C90.446 102.927 90.4352 103.758 90.4242 104.589ZM103.389 104.844C102.828 104.87 102.346 104.761 101.943 104.518C101.541 104.275 101.228 103.923 101.009 103.452C100.795 102.989 100.694 102.427 100.701 101.777C100.709 101.127 100.825 100.554 101.051 100.071C101.281 99.5801 101.603 99.2012 102.012 98.9208C102.421 98.6401 102.906 98.486 103.467 98.4601C104.008 98.435 104.49 98.5437 104.892 98.786C105.295 99.0285 105.6 99.384 105.826 99.8499C106.052 100.317 106.142 100.876 106.134 101.527C106.126 102.177 106.022 102.746 105.785 103.233C105.547 103.722 105.233 104.106 104.824 104.386C104.415 104.667 103.93 104.82 103.389 104.844ZM103.399 104.021C103.921 103.998 104.354 103.777 104.682 103.347C105.003 102.927 105.178 102.331 105.187 101.571C105.196 100.801 105.036 100.218 104.725 99.8314C104.408 99.4367 103.978 99.26 103.456 99.2841C102.915 99.3089 102.481 99.5258 102.154 99.9504C101.833 100.366 101.678 100.964 101.668 101.733C101.659 102.492 101.8 103.074 102.111 103.465C102.428 103.865 102.857 104.046 103.399 104.021ZM107.644 104.537C107.657 103.51 107.669 102.483 107.681 101.457C107.693 100.43 107.706 99.4028 107.718 98.3768C109.361 98.3002 111.004 98.2239 112.666 98.1466C112.654 99.1734 112.642 100.201 112.63 101.228C112.618 102.255 112.607 103.283 112.594 104.31C112.266 104.325 111.957 104.339 111.647 104.353C111.658 103.464 111.668 102.573 111.678 101.683C111.688 100.793 111.699 99.9029 111.71 99.0129C110.685 99.0606 109.66 99.1081 108.655 99.155C108.645 100.044 108.634 100.934 108.624 101.823C108.613 102.713 108.602 103.604 108.592 104.493C108.263 104.508 107.954 104.522 107.644 104.537ZM115.669 104.169C115.679 103.279 115.69 102.388 115.7 101.497C115.71 100.607 115.72 99.7166 115.73 98.8262C115.034 98.8585 114.339 98.8909 113.662 98.9223C113.665 98.6484 113.668 98.3735 113.672 98.0996C115.353 98.0213 117.073 97.9419 118.774 97.8626C118.771 98.1368 118.768 98.4119 118.765 98.6858C118.069 98.7184 117.373 98.7506 116.678 98.7822C116.667 99.6727 116.657 100.563 116.647 101.453C116.637 102.344 116.627 103.235 116.617 104.126C116.288 104.141 115.979 104.155 115.669 104.169ZM122.049 103.991C121.489 104.017 121.026 103.907 120.623 103.663C120.22 103.42 119.904 103.061 119.688 102.595C119.47 102.124 119.371 101.568 119.378 100.916C119.385 100.265 119.496 99.6986 119.726 99.206C119.951 98.7222 120.276 98.3326 120.685 98.0519C121.094 97.7712 121.559 97.6181 122.12 97.592C122.661 97.5669 123.14 97.6804 123.546 97.9186C123.966 98.1651 124.285 98.5206 124.5 98.9848C124.719 99.4563 124.837 100.013 124.83 100.665C124.823 101.317 124.693 101.883 124.464 102.376C124.237 102.862 123.91 103.246 123.485 103.532C123.073 103.809 122.591 103.966 122.049 103.991ZM122.058 103.166C122.6 103.141 123.022 102.912 123.341 102.49C123.669 102.06 123.836 101.471 123.844 100.71C123.852 99.9386 123.698 99.3626 123.38 98.9665C123.069 98.5799 122.652 98.3916 122.111 98.4167C121.57 98.442 121.148 98.6695 120.828 99.085C120.501 99.5113 120.334 100.102 120.325 100.872C120.317 101.634 120.471 102.207 120.789 102.608C121.1 103 121.517 103.191 122.058 103.166ZM126.324 103.682C126.335 102.653 126.346 101.624 126.357 100.595C126.368 99.5665 126.379 98.5364 126.39 97.5079C126.661 97.4961 126.932 97.4835 127.202 97.471C127.543 98.1415 127.903 98.8126 128.243 99.4847C128.584 100.156 128.944 100.828 129.324 101.499C129.679 100.795 130.034 100.09 130.389 99.3857C130.745 98.6813 131.119 97.9756 131.494 97.2711C131.745 97.2593 131.996 97.2475 132.267 97.235C132.256 98.2643 132.245 99.2949 132.235 100.324C132.224 101.354 132.213 102.384 132.203 103.414C131.913 103.427 131.642 103.439 131.371 103.452C131.379 102.703 131.387 101.951 131.395 101.202C131.402 100.453 131.41 99.7016 131.418 98.9512C131.103 99.5504 130.768 100.152 130.472 100.749C130.176 101.346 129.841 101.946 129.544 102.544C129.37 102.552 129.216 102.56 129.061 102.567C128.739 101.996 128.416 101.427 128.132 100.856C127.849 100.287 127.526 99.7156 127.242 99.1447C127.234 99.8944 127.226 100.646 127.218 101.394C127.21 102.143 127.202 102.894 127.194 103.643C126.904 103.656 126.614 103.67 126.324 103.682ZM137.134 103.188C137.144 102.158 137.155 101.127 137.165 100.097C137.175 99.0672 137.185 98.0358 137.196 97.006C137.486 96.9925 137.776 96.9787 138.066 96.9651C138.058 97.7622 138.05 98.5593 138.042 99.3564C138.034 100.153 138.026 100.951 138.018 101.748C138.567 100.925 139.136 100.103 139.685 99.2808C140.234 98.4584 140.803 97.6347 141.391 96.8112C141.661 96.7984 141.932 96.7856 142.202 96.7731C142.192 97.8036 142.182 98.8354 142.172 99.866C142.162 100.897 142.152 101.929 142.142 102.959C141.852 102.972 141.562 102.986 141.272 102.999C141.28 102.202 141.288 101.403 141.295 100.606C141.303 99.8088 141.311 99.0112 141.319 98.2126C140.731 99.0373 140.162 99.861 139.613 100.683C139.064 101.506 138.495 102.329 137.946 103.151C137.675 103.163 137.404 103.176 137.134 103.188ZM147.073 102.734C147.083 101.703 147.093 100.671 147.102 99.6393C147.112 98.608 147.122 97.5754 147.132 96.5444C148.059 96.5007 149.006 96.4565 149.934 96.4133C150.63 96.3812 151.108 96.5002 151.438 96.7562C151.78 97.0216 151.935 97.416 151.93 97.9505C151.927 98.2741 151.827 98.558 151.651 98.8033C151.475 99.0493 151.241 99.2351 150.951 99.3579C151.317 99.4344 151.592 99.5964 151.796 99.855C151.993 100.104 152.081 100.423 152.077 100.798C152.073 101.324 151.895 101.75 151.525 102.071C151.154 102.394 150.651 102.571 149.993 102.601C149.007 102.646 148.021 102.691 147.073 102.734ZM148.015 99.1877C148.633 99.1598 149.252 99.1302 149.871 99.1021C150.238 99.0852 150.529 98.9858 150.724 98.8028C150.919 98.6193 151.018 98.3662 151.021 98.0439C151.023 97.7291 150.929 97.4916 150.737 97.3314C150.545 97.1705 150.256 97.0984 149.889 97.1155C149.27 97.1439 148.652 97.1735 148.033 97.2016C148.027 97.8644 148.021 98.5261 148.015 99.1877ZM147.988 101.991C148.646 101.962 149.284 101.932 149.961 101.902C150.347 101.884 150.654 101.776 150.853 101.593C151.063 101.4 151.166 101.136 151.169 100.787C151.172 100.448 151.074 100.198 150.867 100.025C150.671 99.8605 150.367 99.7811 149.98 99.7987C149.304 99.8298 148.665 99.8592 148.008 99.8889C148.001 100.59 147.995 101.29 147.988 101.991ZM156.605 104.592C156.618 103.177 156.63 101.762 156.643 100.346C156.655 98.9306 156.668 97.5157 156.68 96.1005C156.99 96.0859 157.299 96.0714 157.628 96.0568C157.624 96.4258 157.621 96.7962 157.618 97.1652C157.795 96.7743 158.052 96.4678 158.399 96.2305C158.732 96.0026 159.156 95.8708 159.6 95.8497C160.103 95.8263 160.569 95.9298 160.95 96.1753C161.318 96.4125 161.632 96.7758 161.83 97.2443C162.03 97.719 162.13 98.2821 162.124 98.9461C162.119 99.6009 162.009 100.17 161.8 100.663C161.595 101.151 161.274 101.546 160.901 101.821C160.516 102.108 160.047 102.255 159.544 102.279C159.119 102.298 158.697 102.207 158.368 102.014C158.024 101.813 157.773 101.536 157.602 101.169C157.597 101.733 157.592 102.296 157.587 102.859C157.582 103.422 157.577 103.986 157.572 104.548C157.224 104.563 156.915 104.578 156.605 104.592ZM159.358 101.459C159.88 101.435 160.333 101.213 160.659 100.78C160.978 100.357 161.151 99.7558 161.158 98.9903C161.164 98.2158 161.002 97.6284 160.69 97.2393C160.371 96.8421 159.922 96.6633 159.4 96.6874C158.839 96.7133 158.418 96.9415 158.099 97.3593C157.773 97.7873 157.607 98.3805 157.6 99.1548C157.594 99.9197 157.749 100.496 158.068 100.899C158.38 101.292 158.798 101.484 159.358 101.459ZM166.081 101.98C165.501 102.006 165.021 101.893 164.614 101.652C164.194 101.403 163.877 101.053 163.657 100.578C163.441 100.111 163.337 99.5449 163.342 98.8902C163.348 98.2349 163.461 97.6578 163.686 97.1702C163.914 96.6757 164.237 96.2966 164.661 96.0099C165.073 95.7319 165.554 95.573 166.134 95.5462C166.675 95.5211 167.176 95.6298 167.58 95.874C167.984 96.1181 168.31 96.4756 168.538 96.9458C168.766 97.4162 168.858 97.9804 168.852 98.6356C168.847 99.2911 168.746 99.864 168.51 100.355C168.274 100.847 167.942 101.236 167.534 101.518C167.126 101.801 166.622 101.955 166.081 101.98ZM166.087 101.151C166.609 101.127 167.062 100.904 167.388 100.471C167.707 100.048 167.88 99.446 167.886 98.68C167.892 97.9048 167.729 97.3168 167.417 96.9277C167.098 96.53 166.649 96.351 166.127 96.3751C165.566 96.401 165.133 96.6207 164.807 97.0485C164.488 97.4672 164.315 98.07 164.309 98.8447C164.303 99.6104 164.466 100.197 164.778 100.591C165.097 100.994 165.527 101.176 166.087 101.151ZM172.288 101.695C171.805 101.718 171.339 101.674 170.878 101.55C170.452 101.435 170.107 101.247 169.839 101.004C169.937 100.757 170.036 100.51 170.154 100.26C170.423 100.487 170.75 100.651 171.135 100.76C171.503 100.864 171.869 100.91 172.275 100.891C172.855 100.865 173.268 100.766 173.534 100.566C173.774 100.386 173.905 100.105 173.907 99.7565C173.913 99.0827 173.509 98.7661 172.717 98.802C172.233 98.8241 171.788 98.8447 171.344 98.8656C171.346 98.6065 171.348 98.3466 171.35 98.0866C171.756 98.0675 172.162 98.0486 172.607 98.0286C172.935 98.0135 173.203 97.9101 173.401 97.7356C173.611 97.5513 173.714 97.3126 173.716 97.0063C173.718 96.7 173.617 96.4688 173.374 96.2868C173.155 96.1231 172.815 96.038 172.313 96.0613C171.559 96.0962 170.861 96.3548 170.278 96.8331C170.164 96.5968 170.069 96.3583 169.974 96.1198C170.616 95.5878 171.45 95.2989 172.455 95.2519C173.189 95.2178 173.744 95.3491 174.094 95.634C174.455 95.9283 174.649 96.346 174.645 96.8991C174.642 97.2147 174.544 97.4978 174.368 97.7489C174.192 97.9992 173.978 98.1865 173.687 98.3097C174.034 98.3876 174.304 98.5518 174.514 98.8013C174.725 99.0518 174.819 99.3702 174.816 99.7535C174.812 100.308 174.608 100.751 174.167 101.112C173.751 101.454 173.119 101.657 172.288 101.695ZM176.311 101.398C176.319 100.363 176.327 99.3265 176.335 98.2914C176.343 97.2566 176.35 96.2202 176.358 95.1852C176.668 95.1706 176.996 95.156 177.325 95.1405C177.318 96.0003 177.312 96.8612 177.305 97.722C178.349 97.6741 179.393 97.6256 180.457 97.5767C180.463 96.7153 180.469 95.8542 180.476 94.9941C180.785 94.9793 181.113 94.9647 181.442 94.9492C181.434 95.9848 181.427 97.0216 181.419 98.0572C181.412 99.0928 181.404 100.13 181.397 101.165C181.068 101.181 180.739 101.195 180.43 101.21C180.437 100.28 180.443 99.3501 180.45 98.4197C179.387 98.4687 178.343 98.5169 177.299 98.5651C177.292 99.4947 177.285 100.425 177.278 101.354C176.949 101.369 176.62 101.383 176.311 101.398ZM183.311 101.078C183.318 100.042 183.326 99.0052 183.333 97.9693C183.341 96.9332 183.348 95.8964 183.356 94.8603C183.646 94.8465 183.955 94.8327 184.245 94.8191C184.239 95.6207 184.233 96.4223 184.228 97.2239C184.222 98.0255 184.216 98.8274 184.211 99.629C184.777 98.8018 185.331 97.9791 185.89 97.1474C186.444 96.3244 187.023 95.4917 187.608 94.6632C187.879 94.6502 188.149 94.6374 188.439 94.6246C188.432 95.6612 188.425 96.699 188.418 97.7353C188.411 98.7719 188.404 99.8095 188.397 100.846C188.087 100.86 187.797 100.873 187.507 100.887C187.513 100.085 187.519 99.2816 187.524 98.4797C187.529 97.6778 187.535 96.8757 187.54 96.0726C186.955 96.9023 186.376 97.7351 185.822 98.558C185.263 99.3895 184.709 100.213 184.142 101.04C183.872 101.053 183.582 101.066 183.311 101.078ZM195.328 102.195C195.332 101.639 195.335 101.084 195.339 100.528C193.656 100.605 191.974 100.682 190.311 100.759C190.318 99.7219 190.325 98.6841 190.332 97.647C190.339 96.6104 190.346 95.5723 190.353 94.5354C190.662 94.5209 190.972 94.5061 191.319 94.4905C191.314 95.388 191.307 96.2878 191.301 97.1855C191.296 98.0828 191.29 98.9828 191.284 99.8816C192.27 99.8361 193.275 99.7902 194.281 99.744C194.287 98.8447 194.292 97.9445 194.298 97.0467C194.304 96.1489 194.31 95.2487 194.316 94.3509C194.625 94.3361 194.934 94.3216 195.282 94.306C195.277 95.2037 195.271 96.1043 195.265 97.002C195.259 97.8998 195.253 98.8003 195.247 99.6996C195.538 99.686 195.847 99.6714 196.176 99.6569C196.17 100.49 196.165 101.324 196.16 102.157C195.87 102.17 195.599 102.182 195.328 102.195ZM198.128 102.706C198.462 101.888 198.796 101.07 199.149 100.251C198.73 99.2494 198.311 98.2475 197.911 97.245C197.512 96.2426 197.112 95.2409 196.713 94.2387C197.061 94.2231 197.408 94.2066 197.776 94.19C198.08 95.0157 198.403 95.8427 198.707 96.6696C199.011 97.4968 199.354 98.323 199.678 99.1503C200.011 98.2929 200.335 97.4398 200.66 96.58C200.983 95.7267 201.327 94.8661 201.661 94.0095C202.009 93.9939 202.338 93.9784 202.705 93.9618C202.097 95.4124 201.489 96.8629 200.901 98.312C200.312 99.7621 199.742 101.211 199.153 102.66C198.805 102.675 198.476 102.691 198.128 102.706Z" fill="#3D7738"/>
</svg>
