<svg width="221" height="120" viewBox="0 0 221 120" fill="none" xmlns="http://www.w3.org/2000/svg">
<path d="M73.5625 24.6923C71.0464 24.8393 68.574 24.985 66.0799 25.1306C66.1103 19.8318 66.141 14.5328 66.1718 9.21782C64.815 9.29809 63.5021 9.37715 62.1671 9.4562C62.1328 15.4646 62.0983 21.4651 62.064 27.4732C62.0297 33.4736 61.9952 39.4739 61.9609 45.4741C63.2953 45.3978 64.6076 45.3214 65.9639 45.2436C65.9944 39.9448 66.025 34.646 66.0555 29.339C68.5497 29.1939 71.0219 29.0489 73.5378 28.9025C73.5068 34.2115 73.4758 39.5126 73.4448 44.8136C74.7791 44.737 76.1354 44.6594 77.4917 44.5815C77.527 38.5761 77.5627 32.5708 77.5979 26.5654C77.6332 20.5521 77.6686 14.5466 77.7041 8.53316C76.3473 8.61361 74.9905 8.69405 73.6557 8.77311C73.6245 14.0904 73.5935 19.3912 73.5625 24.6923ZM87.7271 7.83875C86.8594 13.9208 85.9923 19.9942 85.1462 26.0738C84.3013 32.1448 83.4335 38.2166 82.5883 44.2866C83.9446 44.2086 85.3008 44.1307 86.6569 44.0529C87.0913 40.8913 87.5477 37.7283 88.0041 34.5652C90.3012 34.4321 92.62 34.2977 94.939 34.1633C95.3355 37.2782 95.7319 40.3935 96.1286 43.5074C97.4847 43.4295 98.8409 43.3515 100.219 43.2721C99.4246 37.2913 98.6297 31.311 97.8577 25.3298C97.0845 19.3413 96.2904 13.3623 95.5394 7.37471C92.9351 7.52933 90.3311 7.68413 87.7271 7.83875ZM88.621 30.1394C89.4666 24.0994 90.3121 18.0667 91.158 12.0336C91.4424 12.0167 91.7269 12 92.0114 11.9831C92.7847 17.9213 93.5799 23.8586 94.3748 29.8046C92.4497 29.9167 90.5244 30.0287 88.621 30.1394ZM120.548 20.2519C120.566 17.303 120.585 14.354 120.604 11.405C118.952 9.68099 117.301 7.94915 115.671 6.22427C112.411 6.41842 109.15 6.61257 105.89 6.80654C105.852 12.8374 105.815 18.8602 105.778 24.8908C105.74 30.9134 105.703 36.9362 105.666 42.9589C109.209 42.755 112.753 42.5507 116.318 42.3454C117.97 40.4445 119.644 38.542 121.318 36.6392C121.339 33.4227 121.359 30.1981 121.38 26.9735C120.271 25.848 119.163 24.7222 118.077 23.5795C118.893 22.4708 119.709 21.362 120.548 20.2519ZM109.954 11.0649C111.266 10.9871 112.601 10.9079 113.936 10.8288C114.783 11.7176 115.631 12.5985 116.5 13.4781C116.489 15.2358 116.478 16.9934 116.467 18.751C115.673 19.8178 114.879 20.8767 114.107 21.934C112.685 22.0174 111.285 22.0996 109.884 22.1818C109.907 18.4816 109.93 14.7733 109.954 11.0649ZM117.261 35.0442C116.38 36.0344 115.521 37.0153 114.662 37.9961C113.021 38.091 111.403 38.1847 109.784 38.2782C109.808 34.3999 109.832 30.5215 109.856 26.635C111.388 26.5455 112.919 26.456 114.472 26.3651C115.407 27.3306 116.341 28.2882 117.297 29.2444C117.285 31.1804 117.273 33.1163 117.261 35.0442ZM131.471 5.23541C130.6 11.332 129.73 17.4201 128.881 23.5142C128.034 29.5997 127.163 35.686 126.315 41.7705C127.671 41.6923 129.027 41.6141 130.405 41.5345C130.841 38.3655 131.299 35.1948 131.757 32.0242C134.054 31.8904 136.351 31.7567 138.692 31.6216C139.087 34.744 139.504 37.8652 139.921 40.9866C141.277 40.9082 142.633 40.8298 144.011 40.7503C143.22 34.7551 142.406 28.7619 141.637 22.7667C140.867 16.764 140.075 10.771 139.305 4.76928C136.679 4.92477 134.075 5.08009 131.471 5.23541ZM132.354 27.589C133.203 21.5344 134.051 15.4874 134.922 9.43844C135.184 9.42294 135.469 9.40605 135.753 9.38916C136.545 15.3401 137.36 21.2915 138.152 27.2514C136.205 27.3641 134.279 27.4766 132.354 27.589ZM150.71 36.3017C149.835 36.3512 148.982 36.4006 148.129 36.4501C148.12 37.8051 148.111 39.1602 148.102 40.515C150.158 40.3963 152.236 40.2773 154.292 40.1584C155.006 34.7947 155.764 29.421 156.478 24.0564C157.192 18.6834 157.95 13.3071 158.686 7.93191C160.043 7.85251 161.378 7.77293 162.712 7.69336C162.676 13.0282 162.64 18.3632 162.604 23.6979C162.568 29.0247 162.531 34.3595 162.495 39.6864C163.829 39.6091 165.185 39.5317 166.542 39.4532C166.583 33.4025 166.625 27.3517 166.666 21.301C166.707 15.2422 166.749 9.19136 166.79 3.13251C162.917 3.36305 159.044 3.59341 155.192 3.82256C154.434 9.2469 153.675 14.6627 152.94 20.0686C152.203 25.4821 151.446 30.8969 150.71 36.3017ZM178.588 1.95299C176.869 3.88229 175.171 5.81821 173.495 7.73759C173.466 12.0193 173.436 16.293 173.407 20.5748C173.377 24.8483 173.348 29.1219 173.318 33.3956C174.945 35.242 176.616 37.0874 178.287 38.9251C180.409 38.802 182.531 38.6789 184.696 38.5546C186.394 36.5229 188.092 34.4828 189.791 32.4412C189.821 28.1638 189.851 23.8863 189.881 19.6089C189.912 15.3235 189.942 11.0458 189.972 6.76022C188.3 5.03952 186.628 3.30158 184.956 1.57217C182.812 1.69946 180.689 1.82692 178.588 1.95299ZM185.712 30.9782C184.807 32.0876 183.903 33.1885 182.999 34.2895C181.993 34.3468 181.008 34.4041 180.046 34.4602C179.134 33.4652 178.245 32.4692 177.333 31.4651C177.359 27.7757 177.385 24.0782 177.41 20.3886C177.436 16.6913 177.461 12.9935 177.487 9.296C178.391 8.27668 179.295 7.25596 180.199 6.22705C181.206 6.16698 182.212 6.10673 183.241 6.04666C184.109 6.96987 184.978 7.88507 185.868 8.79905C185.842 12.4982 185.816 16.1976 185.79 19.8967C185.764 23.5878 185.738 27.2871 185.712 30.9782ZM211.278 0.48459C210.608 5.34233 209.96 10.1901 209.313 15.0378C208.887 19.4733 208.461 23.8992 208.057 28.3249C207.991 28.3287 207.948 28.3312 207.904 28.3338C207.543 23.8882 207.181 19.4426 206.82 14.9892C206.22 10.2817 205.62 5.57339 205.042 0.857043C202.328 1.01881 199.593 1.18057 196.901 1.34094C196.858 7.40153 196.814 13.4543 196.771 19.5147C196.728 25.5671 196.684 31.6197 196.641 37.6721C197.997 37.5946 199.353 37.5157 200.731 37.4368C200.77 32.1072 200.808 26.7693 200.847 21.4398C200.885 16.1022 200.924 10.7644 200.962 5.4266C201.115 5.41737 201.268 5.40814 201.443 5.3977C202.108 10.2314 202.762 15.0738 203.416 19.9067C204.07 24.7346 204.746 29.5753 205.411 34.4013C207.117 34.3031 208.845 34.2035 210.551 34.1041C211.265 29.1971 211.98 24.2723 212.671 19.3648C213.364 14.4489 214.099 9.52271 214.813 4.60456C214.967 4.5955 215.142 4.58627 215.317 4.57583C215.277 9.91763 215.238 15.2596 215.199 20.6016C215.159 25.9352 215.12 31.2772 215.081 36.611C216.415 36.5333 217.793 36.4543 219.172 36.3754C219.216 30.3155 219.261 24.2554 219.306 18.1959C219.351 12.1278 219.396 6.0679 219.441 0C216.727 0.161936 213.992 0.323873 211.278 0.48459Z" fill="#7B3F2B"/>
<path d="M68.4526 64.8873C68.4755 60.9449 68.4984 56.9944 68.5212 53.044C66.7715 53.1434 65.0436 53.2416 63.3376 53.3398C63.3149 57.2893 63.2921 61.2387 63.2696 65.18C62.7447 65.2094 62.2198 65.239 61.7168 65.2672C61.7422 60.8337 61.7676 56.3921 61.7931 51.9503C64.5272 51.7934 67.305 51.6353 70.0609 51.4771C70.0351 55.9207 70.0093 60.3644 69.9836 64.7999C69.4587 64.8295 68.9338 64.8589 68.4526 64.8873Z" fill="#7B3F2B"/>
<path d="M80.8741 64.1856C80.8942 60.7901 80.9144 57.3869 80.9346 53.9834C80.9128 53.9846 80.8908 53.9859 80.8691 53.9871C80.0295 55.457 79.19 56.927 78.3723 58.3956C77.2233 60.4414 76.0744 62.4858 74.9257 64.5218C74.4226 64.5502 73.9196 64.5784 73.4385 64.6056C73.4642 60.1852 73.4902 55.7569 73.5161 51.3285C74.0192 51.3 74.5442 51.27 75.0692 51.2401C75.0488 54.7071 75.0284 58.1741 75.0082 61.6331C75.0082 61.6331 75.0082 61.6331 75.03 61.6317C75.8915 60.1046 76.7533 58.5692 77.615 57.0325C78.2781 55.8474 78.9189 54.7041 79.5376 53.6023C80.1562 52.5084 80.6645 51.6066 81.0622 50.8971C81.5435 50.8695 82.0246 50.8422 82.5059 50.8135C82.4796 55.2439 82.4531 59.6745 82.427 64.0969C81.9239 64.1264 81.3989 64.156 80.8741 64.1856Z" fill="#7B3F2B"/>
<path d="M85.159 64.3472C85.0728 64.1579 84.9867 63.9446 84.8787 63.7081C84.7927 63.4705 84.7065 63.2491 84.6201 63.0599C85.0591 62.7846 85.4106 62.498 85.6966 62.2152C85.9825 61.9322 86.2033 61.556 86.381 61.0851C86.5587 60.6143 86.6715 60.0259 86.7415 59.3106C86.8113 58.5953 86.8606 57.6547 86.8676 56.5063C86.8796 54.517 86.8914 52.5278 86.9032 50.5384C89.3093 50.401 91.7154 50.2636 94.1432 50.125C94.1162 54.5662 94.0892 59.0076 94.0624 63.441C93.5376 63.4706 93.0126 63.5002 92.5097 63.5286C92.5336 59.581 92.5574 55.6253 92.5815 51.6697C91.1597 51.7508 89.7599 51.8306 88.36 51.9105C88.3492 53.7139 88.3384 55.5175 88.3276 57.3129C88.321 58.3965 88.2499 59.3223 88.1141 60.098C88.0002 60.8643 87.7995 61.5305 87.5555 62.086C87.29 62.6345 86.9811 63.0884 86.5855 63.4503C86.1679 63.8053 85.707 64.106 85.159 64.3472Z" fill="#7B3F2B"/>
<path d="M101.471 49.5106C102.302 49.4631 103.001 49.6011 103.546 49.9259C104.091 50.2428 104.547 50.6697 104.872 51.2095C105.175 51.6616 105.39 52.3372 105.493 53.2294C105.619 54.1205 105.657 55.0976 105.65 56.1418C105.648 56.4657 105.646 56.8217 105.622 57.2116C105.597 57.6013 105.573 57.9832 105.527 58.3741C105.481 58.7652 105.435 59.1319 105.367 59.4838C105.321 59.8261 105.254 60.1212 105.187 60.3598C104.853 61.3497 104.346 62.058 103.621 62.4954C102.897 62.9328 102.087 63.181 101.19 63.2315C100.359 63.2785 99.6605 63.1481 99.1158 62.8308C98.5931 62.5207 98.1802 62.0991 97.8773 61.5823C97.5522 61.1153 97.3376 60.4563 97.2116 59.606C97.0857 58.7557 97.026 57.7803 97.0327 56.688C97.038 55.8223 97.0867 55.0107 97.1567 54.2625C97.2271 53.5062 97.362 52.8757 97.5401 52.356C97.8515 51.497 98.3585 50.8211 99.0174 50.3304C99.6983 49.8385 100.509 49.5656 101.471 49.5106ZM101.44 51.0819C100.893 51.1131 100.433 51.2689 100.016 51.5515C99.5985 51.8423 99.2899 52.2482 99.0462 52.7798C98.8691 53.1458 98.7564 53.6781 98.6866 54.3695C98.6387 55.068 98.6119 55.8703 98.6063 56.7847C98.6006 57.6992 98.6397 58.4573 98.7233 59.0754C98.7853 59.6866 98.9354 60.1716 99.1738 60.5141C99.606 61.3309 100.325 61.7108 101.309 61.6553C101.856 61.6243 102.36 61.4503 102.799 61.1261C103.238 60.8099 103.569 60.33 103.77 59.6875C103.903 59.3239 103.994 58.817 104.02 58.1844C104.067 57.5426 104.094 56.8453 104.098 56.0925C104.103 55.2912 104.064 54.5895 104.024 53.9847C103.962 53.3896 103.877 52.9332 103.748 52.617C103.555 52.0777 103.251 51.6743 102.859 51.4216C102.445 51.162 101.965 51.0519 101.44 51.0819Z" fill="#7B3F2B"/>
<path d="M117.921 62.0919C117.942 58.8274 117.963 55.5631 117.983 52.2986C117.584 53.1959 117.185 54.0931 116.786 54.9904C116.564 55.4564 116.342 55.9225 116.121 56.3803C115.899 56.8464 115.7 57.2868 115.5 57.7191C115.301 58.1435 115.124 58.534 114.947 58.9002C114.791 59.2572 114.658 59.5481 114.569 59.7717C114.219 59.7916 113.87 59.8114 113.52 59.8313C113.239 59.2723 112.98 58.6961 112.7 58.121C112.441 57.5366 112.16 56.9699 111.88 56.4109C111.319 55.2206 110.758 54.0223 110.218 52.8226C110.197 52.8238 110.197 52.8238 110.197 52.8238C110.176 56.0627 110.156 59.3014 110.136 62.5321C109.611 62.5619 109.086 62.5915 108.562 62.6211C108.589 58.1844 108.617 53.7395 108.644 49.2946C109.147 49.2659 109.651 49.237 110.175 49.207C110.542 49.9955 110.909 50.7757 111.276 51.5481C111.643 52.3204 112.01 53.1008 112.398 53.8882C112.959 55.0949 113.52 56.3016 114.081 57.5002C114.702 56.1128 115.323 54.7256 115.965 53.3367C116.364 52.4477 116.764 51.5908 117.162 50.7665C117.539 49.9432 117.849 49.2697 118.093 48.7536C118.574 48.7261 119.077 48.6972 119.58 48.6685C119.552 53.116 119.524 57.5635 119.496 62.0029C118.971 62.0325 118.446 62.0623 117.921 62.0919Z" fill="#7B3F2B"/>
<path d="M128.907 60.3372C128.576 60.8422 128.114 61.2086 127.544 61.4271C126.996 61.6526 126.383 61.7764 125.749 61.8123C124.568 61.8791 123.674 61.5653 123.088 60.8695C122.458 60.175 122.158 59.2767 122.165 58.1748C122.169 57.6157 122.26 57.0761 122.416 56.565C122.572 56.0539 122.816 55.6026 123.168 55.2276C123.52 54.8429 123.937 54.5356 124.442 54.2881C124.968 54.0395 125.581 53.8992 126.281 53.8593C127.178 53.8081 128.096 53.7558 129.015 53.7034C129.019 53.0874 129.023 52.4713 129.027 51.8473C129.032 51.1259 128.838 50.5617 128.425 50.172C128.035 49.7731 127.423 49.5976 126.592 49.6451C126.024 49.6777 125.52 49.8117 125.037 50.05C124.577 50.2789 124.225 50.6392 123.981 51.1231C123.785 51.0289 123.589 50.9025 123.371 50.7529C123.175 50.6021 122.936 50.4687 122.762 50.3491C123.137 49.689 123.644 49.1577 124.28 48.7569C124.939 48.3545 125.706 48.1243 126.602 48.0729C127.171 48.0402 127.696 48.075 128.176 48.1771C128.678 48.2699 129.114 48.4637 129.462 48.7515C129.832 49.0383 130.092 49.4285 130.307 49.9185C130.501 50.4179 130.606 51.044 130.602 51.7978C130.581 54.9916 130.56 58.1854 130.54 61.379C130.015 61.4088 129.49 61.4386 128.965 61.4684C128.967 61.1036 128.97 60.7308 128.972 60.3578C128.95 60.351 128.929 60.344 128.907 60.3372ZM129.005 55.1948C128.065 55.2483 127.146 55.3007 126.228 55.3529C125.484 55.3952 124.871 55.6247 124.387 56.0491C123.903 56.4736 123.658 57.1192 123.653 57.9862C123.649 58.6912 123.864 59.246 124.298 59.6669C124.711 60.0809 125.344 60.2718 126.197 60.2235C126.568 60.2025 126.919 60.134 127.247 60.0263C127.576 59.9185 127.861 59.7645 128.125 59.5551C128.388 59.3538 128.587 59.0914 128.742 58.7666C128.919 58.4407 128.987 58.0397 128.99 57.5697C128.995 56.7834 129 55.989 129.005 55.1948Z" fill="#7B3F2B"/>
<path d="M137.332 49.1122C137.306 53.0775 137.28 57.0429 137.254 61.0001C136.708 61.0298 136.183 61.0594 135.68 61.088C135.706 57.1312 135.731 53.1662 135.757 49.2012C134.642 49.2651 133.526 49.329 132.433 49.3917C132.436 48.9052 132.439 48.4188 132.442 47.9325C135.176 47.7756 137.932 47.6187 140.688 47.4604C140.685 47.9471 140.682 48.4338 140.678 48.9203C139.563 48.9844 138.447 49.0483 137.332 49.1122Z" fill="#7B3F2B"/>
<path d="M149.625 58.0043C149.314 58.7926 148.829 59.4285 148.17 59.8957C147.533 60.3698 146.81 60.6218 146 60.6676C145.082 60.7184 144.361 60.6214 143.794 60.3778C143.206 60.1275 142.749 59.7237 142.403 59.1677C142.057 58.6115 141.821 57.9034 141.674 57.0442C141.526 56.1851 141.468 55.1668 141.475 53.9908C141.481 53.1473 141.53 52.3094 141.667 51.4907C141.781 50.6733 142.005 49.9391 142.337 49.2875C142.669 48.6361 143.11 48.1 143.659 47.6793C144.209 47.2584 144.932 47.0223 145.807 46.972C146.572 46.9293 147.228 47.0376 147.751 47.2833C148.296 47.536 148.731 47.9002 149.055 48.3765C149.402 48.8513 149.639 49.4299 149.787 50.1107C149.958 50.7823 150.018 51.5333 150.013 52.3448C150.009 52.9048 150.005 53.4646 150.002 54.0246C147.683 54.1567 145.343 54.289 143.025 54.4214C143.02 55.1595 143.059 55.8302 143.143 56.4174C143.226 57.0127 143.376 57.5151 143.592 57.9324C143.808 58.358 144.112 58.6733 144.482 58.8873C144.852 59.1015 145.332 59.1877 145.945 59.1543C146.47 59.1245 146.952 58.9349 147.37 58.5866C147.809 58.2373 148.118 57.8224 148.318 57.3406C148.754 57.5671 149.19 57.7858 149.625 58.0043ZM148.458 52.677C148.462 52.0602 148.423 51.4867 148.36 50.9631C148.276 50.4407 148.148 49.9937 147.976 49.6225C147.781 49.2525 147.521 48.9755 147.172 48.7844C146.846 48.5924 146.409 48.5119 145.84 48.5434C145.315 48.5734 144.877 48.7122 144.526 48.9512C144.174 49.1903 143.91 49.5055 143.689 49.9074C143.489 50.308 143.333 50.7792 143.242 51.3115C143.173 51.8424 143.104 52.4141 143.1 53.0387C144.871 52.9375 146.665 52.8361 148.458 52.7338C148.458 52.7176 148.458 52.7012 148.458 52.677Z" fill="#7B3F2B"/>
<path d="M154.304 48.2221C154.702 47.5665 155.165 47.095 155.669 46.8063C156.196 46.5164 156.744 46.3469 157.335 46.313C158.188 46.2639 158.842 46.4209 159.343 46.7735C159.865 47.1181 160.256 47.5989 160.492 48.2103C160.75 48.8204 160.92 49.5329 160.98 50.3492C161.062 51.1723 161.1 52.0224 161.094 52.9074C161.088 53.7518 161.039 54.5907 160.946 55.4239C160.853 56.2489 160.651 56.999 160.362 57.6647C160.095 58.3292 159.677 58.8805 159.149 59.3069C158.621 59.7345 157.92 59.9691 157.067 60.0177C156.455 60.0523 155.909 59.9454 155.473 59.7023C154.994 59.4606 154.603 59.0934 154.235 58.6031C154.213 58.6043 154.191 58.6057 154.191 58.6057C154.176 60.9026 154.16 63.1914 154.145 65.4883C153.62 65.5179 153.095 65.5477 152.57 65.5773C152.612 59.3201 152.654 53.0466 152.696 46.773C153.221 46.7429 153.746 46.7128 154.271 46.6825C154.268 47.1939 154.264 47.6971 154.261 48.2003C154.283 48.1991 154.304 48.2059 154.304 48.2221ZM156.772 58.4115C157.384 58.3767 157.866 58.2031 158.24 57.8897C158.592 57.5775 158.857 57.181 159.035 56.6759C159.236 56.1775 159.349 55.6111 159.419 54.9821C159.467 54.3546 159.515 53.7025 159.519 53.0368C159.524 52.3304 159.485 51.6591 159.445 51.0121C159.384 50.3745 159.279 49.8206 159.085 49.3529C158.913 48.8839 158.653 48.5174 158.305 48.2534C157.957 47.9975 157.499 47.8777 156.908 47.9116C156.252 47.9494 155.77 48.1474 155.396 48.5016C155.022 48.8545 154.756 49.2997 154.6 49.8279C154.421 50.3492 154.33 50.9224 154.282 51.5418C154.256 52.1599 154.23 52.7455 154.227 53.3055C154.223 53.8575 154.241 54.4324 154.259 55.0481C154.298 55.6624 154.382 56.2176 154.553 56.727C154.725 57.2365 154.985 57.6518 155.332 57.974C155.68 58.3032 156.16 58.4462 156.772 58.4115Z" fill="#7B3F2B"/>
<path d="M171.698 59.0533C171.722 55.6411 171.745 52.2208 171.769 48.8006C171.725 48.8031 171.703 48.8043 171.681 48.8055C170.84 50.2831 170 51.7604 169.159 53.2365C167.986 55.2927 166.813 57.3476 165.662 59.3941C165.159 59.4226 164.656 59.4512 164.153 59.4785C164.183 55.0364 164.214 50.5863 164.244 46.136C164.791 46.1059 165.316 46.0756 165.841 46.0453C165.817 49.5295 165.793 53.0136 165.77 56.4896C165.77 56.4896 165.77 56.4896 165.791 56.4884C166.654 54.9535 167.54 53.4103 168.403 51.867C169.067 50.6758 169.731 49.5254 170.35 48.4191C170.97 47.3197 171.479 46.4134 171.878 45.7002C172.359 45.6725 172.862 45.6448 173.365 45.6157C173.334 50.0683 173.304 54.5206 173.273 58.9648C172.748 58.9948 172.201 59.0246 171.698 59.0533Z" fill="#7B3F2B"/>
<path d="M182.991 57.2776C182.638 57.7854 182.177 58.1517 181.607 58.3711C181.058 58.5973 180.446 58.7215 179.789 58.7589C178.63 58.8249 177.714 58.5103 177.107 57.8138C176.522 57.116 176.222 56.2151 176.23 55.11C176.233 54.5493 176.325 54.0081 176.481 53.4955C176.638 52.9828 176.881 52.5303 177.212 52.1538C177.543 51.7694 177.982 51.4599 178.508 51.2116C179.035 50.9621 179.648 50.8213 180.348 50.7812C181.245 50.7297 182.163 50.6771 183.104 50.6243C183.108 50.0065 183.112 49.3887 183.117 48.7627C183.122 48.0393 182.929 47.4735 182.494 47.0828C182.104 46.6828 181.471 46.508 180.662 46.5545C180.093 46.5872 179.567 46.7232 179.107 46.9609C178.646 47.1906 178.293 47.5521 178.006 48.0386C177.832 47.943 177.636 47.816 177.418 47.6661C177.201 47.5162 177.005 47.3812 176.831 47.2613C177.185 46.5991 177.692 46.0663 178.35 45.664C179.009 45.2606 179.776 45.0295 180.673 44.9778C181.22 44.9461 181.766 44.9797 182.246 45.0819C182.77 45.1749 183.184 45.3704 183.554 45.6579C183.902 45.9466 184.183 46.3367 184.377 46.8294C184.592 47.329 184.675 47.9581 184.669 48.7142C184.647 51.9174 184.624 55.1204 184.602 58.3236C184.077 58.3535 183.552 58.3833 183.049 58.4121C183.052 58.0462 183.054 57.6724 183.057 57.2984C183.035 57.2914 183.013 57.2846 182.991 57.2776ZM183.093 52.12C182.131 52.174 181.212 52.2266 180.294 52.2792C179.55 52.3219 178.936 52.5519 178.453 52.9778C177.947 53.4035 177.702 54.0511 177.696 54.9207C177.691 55.6278 177.905 56.1841 178.34 56.6074C178.774 57.0213 179.407 57.2127 180.26 57.1641C180.61 57.1441 180.96 57.0755 181.31 56.9661C181.639 56.858 181.924 56.7035 182.188 56.4934C182.452 56.2916 182.672 56.0283 182.828 55.7025C182.983 55.3767 183.073 54.9734 183.077 54.5019C183.082 53.7135 183.088 52.9167 183.093 52.12Z" fill="#7B3F2B"/>
<path d="M187.092 58.5895C187.006 58.3993 186.92 58.1848 186.812 57.9471C186.727 57.7082 186.641 57.4855 186.555 57.2954C186.994 57.0184 187.346 56.73 187.632 56.4455C187.94 56.161 188.161 55.7826 188.339 55.3091C188.518 54.8355 188.631 54.2438 188.702 53.5245C188.773 52.8052 188.823 51.8594 188.831 50.7048C188.845 48.7044 188.859 46.7039 188.874 44.7035C191.301 44.5648 193.729 44.4258 196.179 44.2856C196.147 48.7516 196.115 53.2177 196.083 57.6757C195.559 57.7056 195.034 57.7354 194.531 57.7641C194.559 53.7946 194.587 49.8171 194.616 45.8395C193.172 45.9214 191.75 46.0022 190.35 46.0828C190.338 47.8963 190.325 49.7098 190.312 51.5151C190.304 52.605 190.232 53.5359 190.095 54.3158C189.981 55.0864 189.757 55.7565 189.513 56.3151C189.247 56.8667 188.937 57.3232 188.541 57.6873C188.123 58.0443 187.64 58.3469 187.092 58.5895Z" fill="#7B3F2B"/>
<path d="M203.595 43.6655C204.448 43.6175 205.147 43.7561 205.713 44.0826C206.257 44.401 206.713 44.8303 207.037 45.373C207.34 45.8273 207.554 46.5065 207.657 47.4038C207.781 48.2999 207.818 49.2823 207.81 50.3322C207.808 50.6579 207.805 51.016 207.781 51.408C207.756 51.7999 207.731 52.1839 207.685 52.5771C207.638 52.9702 207.592 53.339 207.524 53.6929C207.477 54.0373 207.41 54.334 207.342 54.5739C207.007 55.5694 206.499 56.2819 205.775 56.7219C205.028 57.1619 204.218 57.4116 203.299 57.4627C202.468 57.5102 201.769 57.3793 201.203 57.0604C200.681 56.7487 200.269 56.3249 199.966 55.8053C199.62 55.3359 199.406 54.6732 199.281 53.8182C199.156 52.9633 199.097 51.9826 199.105 50.8842C199.111 50.0136 199.161 49.1975 199.232 48.4451C199.303 47.6847 199.439 47.0507 199.617 46.528C199.952 45.6641 200.459 44.9842 201.119 44.4905C201.822 43.9957 202.633 43.7211 203.595 43.6655ZM203.562 45.2455C203.015 45.2771 202.555 45.4338 202.138 45.7183C201.72 46.0106 201.389 46.419 201.145 46.9535C200.967 47.3218 200.854 47.8569 200.784 48.5523C200.735 49.2546 200.707 50.0615 200.701 50.9809C200.694 51.9004 200.732 52.6627 200.815 53.2842C200.876 53.8988 201.026 54.3866 201.264 54.7308C201.717 55.552 202.436 55.934 203.42 55.8778C203.988 55.8464 204.492 55.6713 204.932 55.3451C205.372 55.0272 205.725 54.5445 205.926 53.8983C206.06 53.5327 206.151 53.023 206.178 52.3869C206.226 51.7414 206.253 51.0401 206.259 50.2831C206.264 49.4775 206.226 48.7717 206.186 48.1639C206.125 47.5654 206.041 47.1064 205.912 46.7885C205.719 46.2464 205.394 45.8407 205.003 45.5868C204.589 45.3258 204.109 45.2152 203.562 45.2455Z" fill="#7B3F2B"/>
<path d="M219.162 52.4555C219.157 53.1478 219.065 53.7391 218.843 54.2486C218.643 54.7485 218.355 55.1638 218.003 55.5015C217.629 55.8393 217.234 56.0978 216.773 56.2789C216.269 56.4611 215.787 56.5619 215.24 56.5932C213.732 56.6782 212.223 56.7632 210.735 56.8467C210.768 52.3853 210.8 47.9157 210.833 43.4461C212.364 43.3589 213.917 43.2702 215.47 43.1816C216.673 43.1133 217.567 43.3872 218.153 44.0059C218.739 44.6234 219.017 45.4703 219.009 46.5372C219.005 47.1236 218.892 47.6676 218.669 48.1769C218.425 48.6876 218.028 49.1175 217.414 49.4609C217.414 49.4609 217.414 49.4609 217.435 49.4597C217.763 49.5629 218.067 49.7259 218.284 49.9413C218.502 50.1567 218.675 50.3911 218.804 50.6604C218.933 50.9216 219.04 51.2086 219.082 51.5237C219.145 51.8377 219.164 52.1541 219.162 52.4555ZM217.434 46.6594C217.439 46.0078 217.224 45.5074 216.789 45.1743C216.333 44.833 215.743 44.6881 214.978 44.7324C214.103 44.7816 213.25 44.8297 212.419 44.8776C212.408 46.2862 212.398 47.6947 212.388 49.0952C213.197 49.0486 214.05 49.0008 214.903 48.953C215.581 48.914 216.173 48.7088 216.678 48.3474C217.184 47.9845 217.429 47.4168 217.434 46.6594ZM217.632 52.4769C217.637 51.809 217.466 51.2815 217.097 50.9039C216.728 50.518 216.073 50.3508 215.22 50.3998C214.258 50.4539 213.318 50.5079 212.377 50.5608C212.366 52.1078 212.355 53.6467 212.343 55.1854C213.24 55.1354 214.115 55.0853 215.012 55.0353C215.799 54.9902 216.456 54.7666 216.918 54.3738C217.402 53.9716 217.625 53.34 217.632 52.4769Z" fill="#7B3F2B"/>
<path d="M171.588 75.0653C171.784 75.2006 172.002 75.3183 172.22 75.428C172.459 75.5294 172.677 75.6391 172.917 75.7556C172.605 76.5201 172.12 77.139 171.483 77.5888C170.846 78.0385 170.101 78.2912 169.205 78.3401C168.287 78.3913 167.523 78.2555 166.957 77.9379C166.347 77.6135 165.891 77.1519 165.567 76.5531C165.244 75.9461 165.03 75.2193 164.905 74.3575C164.779 73.4959 164.72 72.5576 164.727 71.5424C164.733 70.6086 164.827 69.7265 164.986 68.8977C165.144 68.0768 165.411 67.3556 165.765 66.7429C166.141 66.1209 166.603 65.6321 167.218 65.2494C167.789 64.8761 168.512 64.6647 169.343 64.6177C170.262 64.567 171.003 64.7361 171.613 65.1158C172.222 65.4956 172.699 66.0627 173 66.801C172.561 67.1099 172.1 67.411 171.661 67.7119C171.467 67.2193 171.186 66.8291 170.794 66.5588C170.403 66.2806 169.923 66.1533 169.354 66.1843C168.72 66.2201 168.194 66.3958 167.799 66.6943C167.403 67.0007 167.094 67.3917 166.851 67.8752C166.65 68.3573 166.516 68.9088 166.424 69.5311C166.354 70.1521 166.306 70.7961 166.301 71.4702C166.297 72.1444 166.336 72.7998 166.397 73.4458C166.458 74.1 166.586 74.6774 166.801 75.1768C167.038 75.6843 167.319 76.0827 167.71 76.3775C168.102 76.6722 168.604 76.7984 169.238 76.763C169.828 76.7312 170.31 76.5581 170.706 76.2436C171.101 75.921 171.388 75.5313 171.588 75.0653Z" fill="#7B3F2B"/>
<path d="M175.197 77.8467C175.228 73.3856 175.259 68.9166 175.29 64.4475C175.815 64.4177 176.34 64.3879 176.865 64.3583C176.851 66.3411 176.837 68.324 176.823 70.2988C177.436 70.2643 178.07 70.2298 178.682 70.1953C178.901 70.183 179.141 70.1532 179.382 70.0909C179.601 70.0297 179.82 69.9281 180.04 69.7694C180.238 69.612 180.436 69.4059 180.613 69.136C180.79 68.8741 180.923 68.5253 181.057 68.079C181.395 66.7437 181.754 65.4071 182.113 64.0623C182.616 64.035 183.119 64.0066 183.622 63.978C183.263 65.2904 182.926 66.6016 182.589 67.9126C182.365 68.5821 182.143 69.1391 181.878 69.5929C181.612 70.0546 181.26 70.367 180.8 70.5391C181.367 70.6535 181.781 70.9388 182.04 71.3956C182.277 71.8455 182.513 72.4104 182.662 73.0682C183.023 74.5107 183.407 75.9355 183.79 77.3688C183.265 77.398 182.741 77.4274 182.194 77.4567C181.875 76.1664 181.556 74.8762 181.238 73.5777C181.109 73.1542 180.981 72.8039 180.851 72.5269C180.7 72.2591 180.527 72.0494 180.331 71.9061C180.136 71.7628 179.918 71.6775 179.677 71.6341C179.437 71.5908 179.175 71.5812 178.891 71.597C178.191 71.6366 177.491 71.6745 176.813 71.7127C176.799 73.7362 176.785 75.7515 176.772 77.7588C176.247 77.788 175.722 77.8173 175.197 77.8467Z" fill="#7B3F2B"/>
<path d="M185.493 77.6798C185.407 77.4813 185.321 77.2668 185.236 77.0277C185.128 76.79 185.042 76.5753 184.956 76.377C185.395 76.1005 185.769 75.8207 186.055 75.5365C186.341 75.2521 186.562 74.8741 186.74 74.4009C186.919 73.9276 187.032 73.3359 187.124 72.6155C187.195 71.8962 187.224 70.96 187.232 69.7973C187.246 67.797 187.26 65.7968 187.274 63.7966C189.701 63.6603 192.151 63.524 194.6 63.3862C194.568 67.852 194.536 72.3176 194.505 76.7752C193.958 76.8046 193.433 76.8339 192.93 76.8621C192.958 72.9011 192.987 68.9238 193.015 64.9464C191.572 65.027 190.172 65.1062 188.751 65.1855C188.738 66.9988 188.725 68.8121 188.712 70.6173C188.705 71.6988 188.633 72.6295 188.518 73.4082C188.381 74.1799 188.18 74.8496 187.935 75.4078C187.691 75.958 187.338 76.4155 186.942 76.7709C186.546 77.1263 186.063 77.4296 185.493 77.6798Z" fill="#7B3F2B"/>
<path d="M204.133 75.0937C203.802 75.6085 203.34 75.9666 202.77 76.1939C202.2 76.4129 201.609 76.5437 200.931 76.5804C199.751 76.6466 198.857 76.3293 198.25 75.6233C197.665 74.9323 197.365 74.0302 197.373 72.9238C197.377 72.3706 197.447 71.8299 197.603 71.3088C197.782 70.7946 198.025 70.3497 198.356 69.9652C198.687 69.5888 199.104 69.2724 199.653 69.0231C200.157 68.7831 200.77 68.6346 201.492 68.594C202.41 68.5433 203.328 68.4915 204.269 68.4396C204.273 67.8211 204.278 67.2026 204.282 66.5841C204.288 65.8515 204.073 65.2862 203.682 64.8933C203.248 64.4937 202.637 64.3168 201.806 64.364C201.238 64.395 200.712 64.5305 200.251 64.768C199.791 65.0056 199.417 65.3589 199.151 65.8458C198.977 65.7499 198.781 65.6227 198.563 65.4725C198.346 65.322 198.15 65.1867 197.976 65.0746C198.33 64.4039 198.815 63.8723 199.474 63.4688C200.132 63.0668 200.899 62.8444 201.818 62.7934C202.386 62.7612 202.911 62.7965 203.413 62.89C203.936 62.9917 204.351 63.1796 204.72 63.468C205.068 63.7573 205.349 64.1481 205.564 64.6497C205.779 65.142 205.862 65.7718 205.856 66.5287C205.833 69.7438 205.81 72.9506 205.787 76.1493C205.24 76.1787 204.715 76.2081 204.212 76.2364C204.215 75.8702 204.218 75.4958 204.22 75.1214C204.177 75.1157 204.155 75.1087 204.133 75.0937ZM204.258 69.9372C203.296 69.9901 202.377 70.0419 201.437 70.0936C200.694 70.1355 200.08 70.3654 199.596 70.7911C199.09 71.2169 198.845 71.8651 198.839 72.7357C198.834 73.4436 199.048 74.009 199.461 74.4249C199.917 74.8479 200.549 75.0239 201.402 74.976C201.774 74.9564 202.124 74.8879 202.452 74.78C202.781 74.6802 203.088 74.5247 203.352 74.3147C203.616 74.1139 203.836 73.8495 203.992 73.5235C204.147 73.1975 204.237 72.8019 204.241 72.3299C204.246 71.5322 204.252 70.7347 204.258 69.9372Z" fill="#7B3F2B"/>
<path d="M209.412 79.4382C208.909 79.4664 208.406 79.4945 207.903 79.5213C207.915 77.9178 207.927 76.3061 207.938 74.6942C208.267 74.6282 208.573 74.554 208.88 74.4799C209.144 74.2535 209.364 73.997 209.541 73.7022C209.718 73.4156 209.874 73.0407 209.965 72.5962C210.077 72.1422 210.169 71.5756 210.239 70.888C210.31 70.2086 210.382 69.3663 210.454 68.3695C210.534 66.4118 210.636 64.4449 210.738 62.4778C213.253 62.3374 215.746 62.1969 218.282 62.0552C218.253 66.0297 218.224 70.0043 218.194 73.9627C218.523 73.9442 218.872 73.9246 219.244 73.9049C219.232 75.5746 219.219 77.2444 219.207 78.8977C218.682 78.926 218.179 78.9542 217.677 78.9822C217.685 77.8257 217.694 76.6611 217.702 75.4882C214.926 75.6416 212.171 75.7938 209.437 75.9458C209.429 77.1182 209.42 78.2822 209.412 79.4382ZM212.148 63.872C212.118 65.013 212.066 66.1311 211.993 67.2176C211.941 68.3111 211.868 69.3244 211.774 70.2493C211.702 71.1812 211.564 72.0028 211.406 72.7196C211.248 73.4285 211.025 73.9862 210.76 74.3743C212.684 74.2674 214.652 74.1593 216.598 74.0512C216.624 70.5819 216.649 67.1043 216.675 63.6188C215.166 63.7031 213.657 63.7875 212.148 63.872Z" fill="#7B3F2B"/>
<path d="M52.0684 74.261C47.8487 70.4475 43.6462 66.6326 39.4301 62.8177C35.2269 59.0146 31.0101 55.187 26.8104 51.3744C27.6927 49.9542 28.5532 48.534 29.4355 47.1137C35.6866 51.6477 41.9154 56.1847 48.1654 60.7169C49.1802 59.1106 50.2168 57.503 51.2316 55.8872C46.7019 52.5971 42.1506 49.2997 37.6199 46.0136C33.0897 42.7278 28.5363 39.4369 24.0051 36.147C22.9685 37.7615 21.9541 39.3678 20.9394 40.9728C20.9394 40.9809 20.9612 40.9876 20.9831 40.9944C17.5947 44.9203 14.2067 48.837 10.8186 52.7503C7.43134 56.6627 4.04374 60.5744 0.700195 64.4839C1.89643 65.7513 3.11426 67.0177 4.33227 68.2843C7.74128 64.3242 11.1888 60.3561 14.6044 56.3982C18.0301 52.4285 21.4684 48.4663 24.9229 44.4893C21.4597 50.1181 18.0112 55.7402 14.5785 61.3601C11.1529 66.9685 7.72074 72.5763 4.30353 78.1852C5.71934 79.1842 7.13515 80.1833 8.5729 81.1746C11.1082 77.032 13.6378 72.8765 16.1578 68.7433C18.6876 64.5939 21.252 60.4329 23.8104 56.2753C27.9229 60.0209 32.0507 63.7834 36.1687 67.5171C40.2955 71.2587 44.435 75.0029 48.5894 78.7478C49.7564 77.2551 50.9014 75.7621 52.0684 74.261Z" fill="#3D7738"/>
<path d="M28.2787 83.3142C28.3365 72.5206 28.3945 61.7187 28.4524 50.9251C28.5104 40.1314 28.5686 29.3216 28.6266 18.5117C26.8978 18.6143 25.1693 18.7168 23.4406 18.818C23.3781 30.5758 23.3158 42.3256 23.2534 54.067C23.1911 65.8086 23.1286 77.5421 23.0664 89.2755C27.177 89.0492 31.2874 88.8213 35.4197 88.5933C35.43 86.6983 35.4404 84.8032 35.4507 82.9162C33.0673 83.0488 30.6621 83.1815 28.2787 83.3142Z" fill="#643C2D"/>
<path d="M46.5733 40.3192C43.5091 36.8512 40.4408 33.3633 37.3797 29.9025C34.3111 26.4335 31.2495 22.9506 28.184 19.4805C29.8815 17.0197 31.5575 14.5505 33.2772 12.0715C31.8829 10.9931 30.5107 9.91493 29.1382 8.81934C25.3017 14.4471 21.4422 20.0551 17.6301 25.6536C13.8156 31.2557 9.98239 36.8496 6.16992 42.4402C7.52026 43.5289 8.89254 44.6083 10.2866 45.6878C12.7106 42.1261 15.1788 38.5451 17.603 34.9814C20.0276 31.4171 22.4962 27.8249 24.943 24.2491C27.8998 27.6132 30.8349 30.9778 33.7907 34.3359C36.7471 37.6948 39.7245 41.054 42.7018 44.4141C43.9996 43.0493 45.2756 41.6844 46.5733 40.3192Z" fill="#3D7738"/>
<path fill-rule="evenodd" clip-rule="evenodd" d="M0 101.229L220.14 90.9492V109.558L0 119.838V101.229Z" fill="#3D7738"/>
<path d="M9.65234 113.218C9.68038 111.69 9.70824 110.161 9.7361 108.634C9.76378 107.109 9.79199 105.58 9.81968 104.053C12.1077 103.945 14.3953 103.838 16.7034 103.729C16.676 105.258 16.6487 106.789 16.6215 108.315C16.5944 109.843 16.567 111.373 16.5397 112.902C16.1982 112.917 15.877 112.933 15.5557 112.947C15.5806 111.571 15.605 110.197 15.6297 108.822C15.6543 107.448 15.6788 106.074 15.7035 104.7C14.0377 104.777 12.392 104.855 10.7462 104.931C10.7213 106.305 10.696 107.678 10.6711 109.051C10.6462 110.425 10.6212 111.799 10.5961 113.174C10.2748 113.189 9.9534 113.203 9.65234 113.218ZM18.5275 112.812C18.5463 111.758 18.5649 110.703 18.5836 109.649C18.6024 108.596 18.6208 107.541 18.6396 106.487C18.9207 106.473 19.2217 106.459 19.5228 106.446C19.5083 107.261 19.4939 108.077 19.4796 108.892C19.4652 109.708 19.4507 110.523 19.4364 111.338C19.9927 110.498 20.5562 109.661 21.1258 108.816C21.6889 107.98 22.2583 107.133 22.8547 106.291C23.1157 106.278 23.3967 106.265 23.6776 106.252C23.6593 107.307 23.6408 108.362 23.6226 109.416C23.6043 110.471 23.586 111.526 23.5677 112.581C23.2663 112.594 22.9652 112.608 22.684 112.621C22.6983 111.805 22.7128 110.989 22.7269 110.173C22.741 109.357 22.7552 108.541 22.7695 107.724C22.1731 108.568 21.6036 109.414 21.0405 110.251C20.4711 111.096 19.9074 111.933 19.3507 112.774C19.0697 112.786 18.7887 112.799 18.5275 112.812ZM25.1514 112.651C25.0358 112.379 24.9201 112.106 24.8043 111.834C25.1686 111.653 25.4672 111.417 25.6798 111.097C25.8794 110.797 26.023 110.37 26.123 109.833C26.2219 109.302 26.2647 108.603 26.2794 107.744C26.2886 107.205 26.2978 106.668 26.3072 106.13C27.6922 106.065 29.0972 106 30.5223 105.934C30.5043 106.989 30.4862 108.046 30.4685 109.101C30.4505 110.156 30.4328 111.213 30.4148 112.268C30.0734 112.283 29.7521 112.298 29.451 112.312C29.4665 111.398 29.4822 110.482 29.4977 109.568C29.5132 108.653 29.5287 107.739 29.5445 106.824C28.7415 106.861 27.9588 106.897 27.1959 106.933C27.1912 107.202 27.1865 107.473 27.182 107.741C27.1651 108.731 27.0906 109.55 26.9391 110.199C26.7876 110.848 26.5917 111.362 26.2905 111.753C25.9967 112.134 25.6367 112.438 25.1514 112.651ZM34.75 112.186C34.1878 112.212 33.6856 112.105 33.271 111.85C32.8714 111.604 32.5512 111.238 32.3265 110.752C32.1059 110.276 32.003 109.697 32.0143 109.028C32.0255 108.359 32.1477 107.77 32.385 107.272C32.626 106.767 32.9586 106.372 33.3676 106.089C33.7907 105.795 34.2978 105.641 34.8599 105.615C35.4216 105.589 35.9039 105.697 36.3183 105.952C36.7178 106.198 37.0422 106.57 37.263 107.047C37.4874 107.531 37.5863 108.103 37.5754 108.773C37.5644 109.442 37.446 110.023 37.2053 110.529C36.968 111.028 36.6316 111.432 36.2226 111.716C35.7995 112.009 35.3123 112.161 34.75 112.186ZM34.7643 111.339C35.3062 111.315 35.7376 111.089 36.0798 110.646C36.4143 110.214 36.5787 109.6 36.5917 108.817C36.6048 108.026 36.461 107.425 36.14 107.027C35.8123 106.621 35.3875 106.438 34.8456 106.463C34.3037 106.488 33.8522 106.712 33.5102 107.148C33.1757 107.576 33.0314 108.191 33.0182 108.983C33.0049 109.765 33.1293 110.364 33.4496 110.767C33.7773 111.179 34.2222 111.364 34.7643 111.339ZM39.0892 111.872C39.1066 110.815 39.124 109.758 39.1413 108.701C39.1587 107.645 39.1761 106.587 39.1933 105.531C39.4543 105.519 39.7152 105.507 39.9762 105.494C40.326 106.185 40.688 106.877 41.0256 107.563C41.3673 108.257 41.7453 108.943 42.0951 109.632C42.4679 108.909 42.8691 108.189 43.2337 107.462C43.5945 106.742 43.9793 106.015 44.372 105.291C44.613 105.279 44.8738 105.267 45.1548 105.254C45.1378 106.311 45.1209 107.369 45.1038 108.427C45.0869 109.483 45.07 110.542 45.053 111.599C44.7517 111.613 44.4507 111.626 44.1895 111.639C44.2019 110.869 44.2144 110.097 44.2267 109.328C44.2389 108.559 44.2517 107.787 44.264 107.017C43.933 107.632 43.574 108.245 43.2712 108.863C42.9724 109.471 42.6295 110.092 42.3185 110.706C42.138 110.714 41.9973 110.721 41.8367 110.728C41.5252 110.142 41.2017 109.553 40.9222 108.972C40.6391 108.382 40.2995 107.8 40.0082 107.213C39.9955 107.983 39.983 108.755 39.9704 109.524C39.9579 110.292 39.9452 111.064 39.9327 111.833C39.6514 111.846 39.3704 111.859 39.0892 111.872ZM48.8059 111.544C48.4045 111.562 48.0464 111.49 47.7458 111.339C47.4293 111.179 47.17 110.961 46.9939 110.674C46.8181 110.386 46.7232 110.059 46.7288 109.694C46.7359 109.232 46.8627 108.861 47.0875 108.582C47.3126 108.302 47.6765 108.089 48.1808 107.95C48.704 107.807 49.388 107.718 50.2715 107.677C50.3916 107.672 50.5123 107.667 50.6528 107.66C50.6549 107.526 50.6572 107.391 50.6593 107.256C50.6676 106.716 50.5731 106.331 50.3765 106.101C50.1792 105.87 49.84 105.766 49.3986 105.787C49.0573 105.803 48.7141 105.87 48.3723 105.997C48.0484 106.117 47.7254 106.312 47.3601 106.573C47.2438 106.322 47.1275 106.071 47.0312 105.819C47.356 105.569 47.719 105.362 48.1442 105.206C48.5865 105.043 49.0107 104.956 49.412 104.937C50.1745 104.902 50.7281 105.083 51.0685 105.462C51.4179 105.85 51.6145 106.458 51.6013 107.303C51.591 107.97 51.5804 108.637 51.5699 109.303C51.5597 109.969 51.549 110.637 51.5388 111.303C51.2175 111.317 50.9161 111.331 50.6351 111.344C50.6408 110.979 50.6466 110.612 50.6523 110.246C50.4858 110.628 50.2403 110.935 49.9156 111.167C49.591 111.4 49.2476 111.524 48.8059 111.544ZM48.9791 110.74C49.4409 110.719 49.8402 110.516 50.1524 110.145C50.474 109.763 50.6272 109.302 50.6358 108.745C50.6379 108.614 50.6398 108.483 50.6419 108.353C50.5215 108.358 50.4009 108.364 50.2805 108.369C49.6182 108.399 49.1153 108.454 48.7331 108.539C48.3706 108.618 48.097 108.735 47.9448 108.914C47.8104 109.072 47.738 109.304 47.7336 109.583C47.7279 109.94 47.8334 110.237 48.041 110.443C48.2682 110.669 48.5778 110.759 48.9791 110.74ZM54.6511 111.16C54.6654 110.243 54.6795 109.325 54.6936 108.408C54.7077 107.49 54.722 106.573 54.7361 105.656C54.0136 105.689 53.311 105.722 52.6084 105.754C52.6128 105.473 52.6171 105.19 52.6217 104.906C54.3478 104.826 56.0941 104.745 57.8404 104.664C57.836 104.948 57.8318 105.231 57.8275 105.512C57.1249 105.546 56.4023 105.579 55.6997 105.611C55.6856 106.528 55.6715 107.446 55.6574 108.363C55.6432 109.28 55.629 110.199 55.6149 111.116C55.2936 111.131 54.9723 111.146 54.6511 111.16ZM61.3761 110.97C60.4526 111.012 59.7279 110.757 59.2006 110.188C58.6817 109.628 58.4388 108.835 58.4541 107.823C58.4641 107.17 58.6018 106.59 58.8419 106.074C59.0786 105.566 59.4171 105.159 59.843 104.865C60.2684 104.571 60.7327 104.412 61.2946 104.386C62.0773 104.349 62.703 104.607 63.1287 105.13C63.5698 105.672 63.7916 106.412 63.7771 107.381C63.7752 107.517 63.7731 107.653 63.7712 107.787C62.3056 107.854 60.84 107.922 59.3744 107.99C59.4037 108.711 59.6021 109.248 59.9518 109.616C60.2934 109.976 60.7665 110.149 61.3888 110.121C61.7301 110.105 62.0723 110.029 62.3953 109.897C62.7183 109.765 63.0427 109.556 63.3077 109.272C63.4043 109.517 63.521 109.761 63.6378 110.004C63.3727 110.286 63.0472 110.51 62.6244 110.685C62.2196 110.852 61.7977 110.951 61.3761 110.97ZM61.3229 105.169C60.761 105.195 60.342 105.406 60.0096 105.791C59.6681 106.186 59.4745 106.683 59.4052 107.295C60.5694 107.241 61.7538 107.187 62.9584 107.132C62.948 106.488 62.7885 105.998 62.4992 105.65C62.2172 105.31 61.8245 105.146 61.3229 105.169ZM65.2182 113.03C65.2398 111.578 65.2614 110.125 65.283 108.672C65.3044 107.22 65.3258 105.767 65.3472 104.315C65.6685 104.3 65.9896 104.285 66.3108 104.271C66.3051 104.65 66.2995 105.029 66.2939 105.408C66.4604 105.008 66.7291 104.694 67.0904 104.45C67.4381 104.216 67.8581 104.08 68.3197 104.059C68.8416 104.035 69.2844 104.142 69.6788 104.395C70.0594 104.639 70.3634 105.011 70.5656 105.492C70.7705 105.979 70.871 106.557 70.8612 107.238C70.8517 107.911 70.7341 108.494 70.5147 109.001C70.2983 109.501 69.983 109.906 69.5947 110.189C69.1921 110.482 68.7453 110.634 68.2232 110.657C67.7817 110.677 67.3639 110.583 67.0234 110.385C66.6676 110.178 66.4083 109.894 66.2536 109.518C66.245 110.096 66.2365 110.674 66.228 111.252C66.2194 111.83 66.2109 112.409 66.2024 112.986C65.8609 113.001 65.5396 113.016 65.2182 113.03ZM68.0348 109.816C68.5767 109.792 69.008 109.564 69.3493 109.12C69.6829 108.686 69.8663 108.069 69.8776 107.283C69.8889 106.488 69.7239 105.885 69.4022 105.486C69.0737 105.078 68.6485 104.895 68.1066 104.92C67.5447 104.946 67.1054 105.179 66.7724 105.607C66.4308 106.047 66.2755 106.655 66.2638 107.45C66.2523 108.235 66.3906 108.827 66.7192 109.24C67.0404 109.644 67.4729 109.841 68.0348 109.816ZM72.4016 110.349C72.4167 109.289 72.432 108.227 72.4472 107.166C72.4625 106.106 72.4776 105.044 72.493 103.983C72.794 103.969 73.0953 103.956 73.3963 103.942C73.3845 104.762 73.3728 105.583 73.361 106.404C73.3493 107.225 73.3375 108.045 73.3258 108.866C73.8795 108.02 74.4536 107.173 75.0272 106.327C75.6009 105.48 76.1947 104.632 76.7684 103.784C77.0493 103.771 77.3303 103.758 77.6114 103.746C77.5964 104.807 77.5814 105.869 77.5666 106.931C77.5518 107.992 77.5368 109.054 77.522 110.116C77.2206 110.129 76.9196 110.143 76.6183 110.156C76.6298 109.335 76.6415 108.513 76.653 107.692C76.6646 106.871 76.6763 106.05 76.6878 105.228C76.1142 106.077 75.5201 106.924 74.9466 107.771C74.3728 108.617 73.8187 109.465 73.245 110.311C72.9638 110.324 72.6828 110.337 72.4016 110.349ZM81.2952 110.06C80.9136 110.077 80.5536 110.009 80.2347 109.854C79.9159 109.698 79.6652 109.47 79.4813 109.186C79.292 108.894 79.2091 108.569 79.2142 108.203C79.2205 107.738 79.3207 107.363 79.5506 107.087C79.7898 106.8 80.1602 106.596 80.6828 106.452C81.1872 106.313 81.8699 106.219 82.7731 106.178C82.8936 106.172 83.0141 106.167 83.1546 106.16C83.1565 106.026 83.1585 105.89 83.1602 105.754C83.1675 105.212 83.078 104.821 82.8752 104.594C82.6631 104.358 82.3382 104.26 81.8764 104.281C81.5353 104.297 81.1943 104.369 80.8706 104.49C80.529 104.618 80.1842 104.809 79.8395 105.069C79.7228 104.817 79.6058 104.565 79.509 104.312C79.8135 104.063 80.1973 103.856 80.6408 103.696C81.0839 103.536 81.4869 103.446 81.8882 103.428C82.6509 103.393 83.2211 103.559 83.5861 103.953C83.933 104.328 84.094 104.954 84.0824 105.802C84.0733 106.472 84.0641 107.142 84.0549 107.811C84.0458 108.479 84.0366 109.149 84.0275 109.818C83.7265 109.832 83.4252 109.846 83.1242 109.859C83.129 109.493 83.1341 109.125 83.1391 108.757C82.9934 109.139 82.7487 109.448 82.4242 109.681C82.1003 109.914 81.7165 110.04 81.2952 110.06ZM81.4668 109.253C81.9485 109.23 82.3531 109.032 82.6589 108.655C82.9652 108.277 83.132 107.808 83.1397 107.249C83.1414 107.118 83.1433 106.987 83.1451 106.855C83.0045 106.862 82.8839 106.867 82.7637 106.873C82.1212 106.902 81.5992 106.962 81.2365 107.042C80.855 107.127 80.5971 107.255 80.4489 107.419C80.2917 107.593 80.2227 107.811 80.2191 108.091C80.214 108.449 80.3154 108.733 80.548 108.954C80.7707 109.167 81.0853 109.27 81.4668 109.253ZM85.6321 109.889C85.5154 109.614 85.3986 109.34 85.2819 109.066C85.6457 108.883 85.9363 108.64 86.155 108.323C86.3662 108.016 86.5154 107.59 86.6134 107.05C86.7104 106.515 86.7505 105.811 86.7622 104.945C86.7695 104.403 86.7769 103.861 86.7843 103.319C88.1893 103.253 89.6143 103.187 91.0596 103.12C91.0454 104.183 91.0313 105.248 91.0172 106.311C91.0033 107.374 90.9892 108.438 90.9753 109.501C90.6338 109.516 90.3126 109.531 89.9913 109.545C90.0035 108.625 90.0158 107.702 90.028 106.781C90.0402 105.86 90.0524 104.939 90.0648 104.017C89.2617 104.054 88.4588 104.092 87.696 104.128C87.6925 104.399 87.6887 104.671 87.685 104.942C87.6718 105.939 87.6002 106.764 87.4512 107.417C87.3021 108.072 87.0879 108.589 86.7881 108.983C86.4956 109.367 86.1167 109.674 85.6321 109.889ZM92.9028 109.412C92.9168 108.349 92.9307 107.284 92.9446 106.221C92.9584 105.158 92.9725 104.094 92.9864 103.03C93.3075 103.015 93.6286 103.001 93.9699 102.985C93.9601 103.741 93.9502 104.499 93.9404 105.256C94.5225 105.229 95.125 105.201 95.7271 105.174C96.4498 105.14 97.0252 105.294 97.4064 105.626C97.7991 105.968 97.9777 106.456 97.9695 107.104C97.9613 107.743 97.7538 108.259 97.3477 108.65C96.9411 109.041 96.3766 109.254 95.6739 109.286C94.7503 109.329 93.8266 109.37 92.9028 109.412ZM98.8264 109.142C98.84 108.077 98.8537 107.012 98.867 105.948C98.8805 104.885 98.8941 103.819 98.9077 102.755C99.2288 102.74 99.5501 102.725 99.8912 102.71C99.8778 103.774 99.8642 104.839 99.8508 105.903C99.8374 106.967 99.8238 108.033 99.8102 109.097C99.4689 109.112 99.1477 109.127 98.8264 109.142ZM93.8966 108.605C94.4588 108.579 95.0212 108.554 95.5833 108.528C96.0451 108.507 96.3681 108.387 96.6315 108.164C96.8955 107.941 97.02 107.608 97.0256 107.161C97.0313 106.723 96.911 106.409 96.6566 106.206C96.4146 106.012 96.0784 105.918 95.6168 105.939C95.0547 105.965 94.4926 105.991 93.9303 106.017C93.9192 106.879 93.9081 107.742 93.8966 108.605ZM107.359 108.87C106.777 108.896 106.276 108.784 105.858 108.531C105.44 108.279 105.115 107.914 104.888 107.424C104.666 106.943 104.56 106.36 104.569 105.685C104.577 105.01 104.696 104.415 104.932 103.913C105.17 103.404 105.505 103.01 105.929 102.719C106.354 102.427 106.858 102.267 107.44 102.24C108.002 102.214 108.502 102.327 108.92 102.579C109.338 102.831 109.655 103.2 109.89 103.684C110.125 104.168 110.218 104.75 110.21 105.425C110.202 106.1 110.094 106.691 109.847 107.197C109.6 107.705 109.274 108.104 108.85 108.394C108.425 108.686 107.921 108.844 107.359 108.87ZM107.369 108.015C107.911 107.991 108.362 107.762 108.702 107.315C109.035 106.879 109.217 106.26 109.226 105.47C109.236 104.672 109.069 104.066 108.746 103.664C108.417 103.255 107.971 103.071 107.429 103.096C106.867 103.122 106.417 103.347 106.077 103.788C105.744 104.219 105.582 104.84 105.572 105.639C105.563 106.427 105.71 107.032 106.032 107.438C106.361 107.853 106.807 108.041 107.369 108.015ZM111.778 108.55C111.791 107.485 111.803 106.418 111.816 105.352C111.829 104.286 111.842 103.22 111.854 102.154C113.56 102.074 115.267 101.995 116.993 101.915C116.98 102.981 116.968 104.049 116.955 105.115C116.943 106.181 116.931 107.249 116.918 108.315C116.577 108.331 116.256 108.345 115.934 108.36C115.945 107.436 115.956 106.511 115.967 105.587C115.977 104.663 115.988 103.739 115.999 102.815C114.935 102.864 113.871 102.914 112.828 102.962C112.817 103.886 112.806 104.809 112.795 105.733C112.784 106.657 112.773 107.582 112.762 108.505C112.42 108.521 112.099 108.536 111.778 108.55ZM120.111 108.169C120.122 107.244 120.132 106.319 120.143 105.394C120.153 104.47 120.164 103.545 120.174 102.621C119.452 102.654 118.729 102.688 118.027 102.72C118.03 102.436 118.033 102.151 118.036 101.866C119.783 101.785 121.569 101.703 123.335 101.62C123.332 101.905 123.329 102.19 123.326 102.475C122.603 102.509 121.881 102.542 121.158 102.575C121.147 103.5 121.137 104.424 121.126 105.349C121.116 106.273 121.105 107.199 121.095 108.124C120.754 108.139 120.432 108.154 120.111 108.169ZM126.736 107.984C126.154 108.01 125.673 107.897 125.255 107.644C124.836 107.391 124.508 107.018 124.284 106.534C124.057 106.045 123.955 105.467 123.962 104.791C123.969 104.114 124.084 103.527 124.323 103.015C124.557 102.513 124.895 102.108 125.319 101.817C125.744 101.525 126.227 101.366 126.809 101.339C127.371 101.313 127.869 101.431 128.29 101.678C128.726 101.934 129.057 102.303 129.281 102.785C129.508 103.275 129.63 103.853 129.623 104.53C129.616 105.207 129.481 105.795 129.243 106.307C129.008 106.811 128.668 107.21 128.226 107.507C127.799 107.795 127.298 107.958 126.736 107.984ZM126.745 107.127C127.307 107.102 127.746 106.863 128.078 106.426C128.417 105.978 128.591 105.367 128.599 104.576C128.608 103.776 128.448 103.178 128.118 102.766C127.795 102.365 127.362 102.169 126.8 102.195C126.238 102.222 125.8 102.458 125.468 102.889C125.128 103.332 124.954 103.945 124.946 104.745C124.937 105.536 125.097 106.132 125.427 106.548C125.75 106.955 126.183 107.153 126.745 107.127ZM131.175 107.663C131.186 106.595 131.198 105.526 131.209 104.458C131.221 103.389 131.232 102.32 131.244 101.252C131.525 101.24 131.806 101.226 132.087 101.213C132.441 101.91 132.814 102.607 133.168 103.304C133.522 104.002 133.896 104.699 134.29 105.396C134.659 104.665 135.027 103.933 135.396 103.202C135.765 102.47 136.154 101.737 136.543 101.006C136.804 100.994 137.065 100.981 137.346 100.968C137.335 102.037 137.323 103.107 137.312 104.176C137.301 105.245 137.29 106.315 137.279 107.384C136.978 107.398 136.697 107.411 136.416 107.424C136.424 106.646 136.432 105.866 136.44 105.088C136.448 104.31 136.456 103.529 136.464 102.75C136.137 103.373 135.789 103.997 135.482 104.617C135.174 105.237 134.827 105.86 134.519 106.482C134.338 106.49 134.178 106.497 134.017 106.505C133.682 105.913 133.347 105.321 133.053 104.729C132.758 104.137 132.423 103.544 132.128 102.951C132.12 103.73 132.112 104.51 132.103 105.288C132.095 106.065 132.087 106.845 132.078 107.622C131.777 107.636 131.476 107.65 131.175 107.663ZM142.399 107.15C142.41 106.081 142.421 105.01 142.432 103.94C142.442 102.871 142.453 101.8 142.464 100.731C142.765 100.716 143.066 100.702 143.367 100.688C143.359 101.516 143.351 102.343 143.342 103.171C143.334 103.999 143.326 104.827 143.318 105.654C143.888 104.801 144.479 103.947 145.049 103.093C145.619 102.239 146.209 101.384 146.82 100.528C147.101 100.515 147.382 100.502 147.663 100.489C147.652 101.559 147.642 102.63 147.631 103.7C147.621 104.771 147.61 105.842 147.6 106.913C147.299 106.926 146.998 106.94 146.696 106.954C146.705 106.126 146.713 105.297 146.721 104.469C146.729 103.641 146.737 102.813 146.745 101.984C146.135 102.84 145.544 103.695 144.974 104.549C144.404 105.403 143.813 106.258 143.243 107.111C142.962 107.124 142.681 107.137 142.399 107.15ZM152.72 106.679C152.731 105.608 152.741 104.536 152.751 103.465C152.761 102.394 152.771 101.322 152.781 100.251C153.745 100.206 154.728 100.16 155.692 100.115C156.414 100.082 156.911 100.205 157.253 100.471C157.608 100.747 157.769 101.156 157.764 101.711C157.761 102.047 157.657 102.342 157.474 102.597C157.291 102.852 157.049 103.045 156.747 103.173C157.127 103.252 157.413 103.42 157.625 103.689C157.83 103.948 157.921 104.279 157.917 104.668C157.912 105.215 157.727 105.656 157.343 105.991C156.958 106.325 156.435 106.51 155.753 106.541C154.728 106.587 153.704 106.633 152.72 106.679ZM153.698 102.996C154.341 102.967 154.983 102.936 155.626 102.907C156.007 102.89 156.309 102.786 156.511 102.596C156.714 102.406 156.817 102.143 156.82 101.808C156.823 101.482 156.724 101.235 156.526 101.068C156.326 100.901 156.026 100.827 155.645 100.844C155.002 100.874 154.36 100.905 153.718 100.934C153.711 101.622 153.705 102.309 153.698 102.996ZM153.671 105.907C154.354 105.876 155.016 105.846 155.719 105.814C156.121 105.796 156.438 105.684 156.645 105.494C156.863 105.294 156.971 105.019 156.974 104.657C156.977 104.305 156.875 104.045 156.66 103.865C156.457 103.695 156.141 103.612 155.739 103.631C155.037 103.663 154.374 103.693 153.692 103.724C153.685 104.452 153.678 105.179 153.671 105.907ZM162.619 108.608C162.632 107.138 162.645 105.669 162.658 104.199C162.671 102.729 162.684 101.26 162.697 99.7903C163.018 99.7753 163.339 99.7602 163.68 99.745C163.677 100.128 163.674 100.513 163.67 100.896C163.854 100.49 164.121 100.172 164.481 99.9253C164.827 99.6886 165.267 99.5517 165.729 99.53C166.251 99.5056 166.734 99.613 167.13 99.868C167.513 100.114 167.839 100.492 168.044 100.978C168.252 101.471 168.355 102.056 168.35 102.745C168.344 103.425 168.23 104.016 168.014 104.528C167.8 105.035 167.467 105.444 167.08 105.731C166.679 106.028 166.193 106.182 165.671 106.206C165.229 106.226 164.791 106.131 164.449 105.931C164.092 105.722 163.831 105.435 163.654 105.054C163.649 105.639 163.643 106.224 163.638 106.808C163.633 107.393 163.628 107.979 163.623 108.563C163.261 108.578 162.94 108.593 162.619 108.608ZM165.477 105.354C166.019 105.33 166.49 105.099 166.828 104.649C167.159 104.21 167.339 103.586 167.346 102.791C167.353 101.987 167.184 101.377 166.86 100.973C166.529 100.56 166.063 100.375 165.521 100.4C164.939 100.427 164.501 100.664 164.17 101.097C163.831 101.542 163.659 102.158 163.652 102.962C163.645 103.756 163.807 104.354 164.138 104.773C164.462 105.181 164.895 105.381 165.477 105.354ZM172.458 105.895C171.856 105.923 171.357 105.805 170.935 105.555C170.499 105.296 170.17 104.933 169.941 104.439C169.716 103.955 169.609 103.367 169.615 102.687C169.62 102.007 169.738 101.407 169.971 100.901C170.207 100.388 170.543 99.994 170.984 99.6963C171.411 99.4077 171.911 99.2425 172.513 99.2146C173.075 99.1885 173.596 99.3017 174.015 99.5551C174.434 99.8086 174.773 100.18 175.009 100.668C175.246 101.156 175.342 101.742 175.336 102.423C175.331 103.103 175.225 103.699 174.981 104.208C174.735 104.72 174.391 105.123 173.967 105.416C173.543 105.71 173.02 105.87 172.458 105.895ZM172.465 105.035C173.007 105.01 173.477 104.779 173.816 104.329C174.146 103.889 174.326 103.264 174.332 102.469C174.339 101.664 174.17 101.053 173.846 100.649C173.514 100.236 173.048 100.051 172.506 100.076C171.924 100.103 171.474 100.331 171.136 100.775C170.805 101.21 170.625 101.835 170.618 102.64C170.612 103.435 170.781 104.044 171.105 104.453C171.436 104.871 171.883 105.061 172.465 105.035ZM178.904 105.6C178.402 105.623 177.919 105.578 177.439 105.449C176.997 105.329 176.639 105.134 176.36 104.882C176.462 104.626 176.565 104.369 176.687 104.11C176.966 104.346 177.307 104.516 177.707 104.629C178.088 104.737 178.468 104.784 178.89 104.765C179.492 104.738 179.922 104.635 180.197 104.428C180.447 104.24 180.583 103.948 180.585 103.587C180.591 102.887 180.172 102.558 179.349 102.596C178.847 102.618 178.385 102.64 177.923 102.661C177.925 102.393 177.927 102.123 177.93 101.853C178.351 101.833 178.773 101.813 179.234 101.792C179.576 101.777 179.853 101.669 180.06 101.488C180.278 101.297 180.384 101.049 180.387 100.731C180.389 100.413 180.283 100.173 180.031 99.9838C179.804 99.8138 179.451 99.7253 178.929 99.7496C178.147 99.7859 177.422 100.054 176.816 100.551C176.698 100.306 176.599 100.058 176.501 99.8103C177.168 99.258 178.033 98.958 179.077 98.9092C179.839 98.8737 180.416 99.0102 180.779 99.3061C181.154 99.6115 181.355 100.045 181.351 100.619C181.348 100.947 181.246 101.241 181.063 101.502C180.881 101.762 180.658 101.956 180.356 102.084C180.717 102.165 180.997 102.336 181.215 102.595C181.434 102.855 181.532 103.186 181.529 103.584C181.524 104.159 181.312 104.619 180.855 104.995C180.423 105.349 179.767 105.561 178.904 105.6ZM183.081 105.291C183.089 104.216 183.097 103.14 183.106 102.065C183.114 100.991 183.122 99.9148 183.13 98.8399C183.451 98.8248 183.792 98.8096 184.134 98.7934C184.127 99.6862 184.12 100.58 184.113 101.474C185.198 101.424 186.281 101.374 187.386 101.323C187.392 100.429 187.399 99.5345 187.405 98.6414C187.727 98.6261 188.068 98.6108 188.409 98.5948C188.401 99.6702 188.393 100.747 188.386 101.822C188.378 102.898 188.37 103.974 188.362 105.05C188.021 105.066 187.679 105.081 187.358 105.096C187.365 104.131 187.372 103.165 187.379 102.199C186.275 102.249 185.191 102.299 184.107 102.349C184.1 103.315 184.092 104.281 184.085 105.245C183.744 105.261 183.402 105.276 183.081 105.291ZM190.35 104.959C190.358 103.883 190.365 102.806 190.373 101.731C190.381 100.655 190.389 99.5782 190.396 98.5025C190.697 98.4884 191.019 98.4739 191.319 98.4596C191.314 99.2921 191.307 100.125 191.302 100.957C191.296 101.789 191.29 102.622 191.284 103.454C191.872 102.595 192.447 101.741 193.028 100.877C193.603 100.023 194.204 99.1581 194.812 98.2977C195.093 98.2845 195.374 98.2711 195.675 98.2578C195.668 99.3341 195.66 100.412 195.653 101.488C195.646 102.564 195.638 103.642 195.631 104.718C195.31 104.732 195.008 104.746 194.707 104.761C194.713 103.928 194.719 103.094 194.725 102.261C194.73 101.428 194.736 100.595 194.742 99.7614C194.134 100.623 193.533 101.488 192.958 102.342C192.377 103.206 191.802 104.061 191.213 104.92C190.932 104.933 190.631 104.946 190.35 104.959ZM202.828 106.119C202.832 105.542 202.836 104.965 202.84 104.388C201.093 104.468 199.346 104.548 197.619 104.627C197.626 103.551 197.633 102.473 197.641 101.396C197.648 100.32 197.655 99.2418 197.662 98.1654C197.984 98.15 198.305 98.1347 198.666 98.1185C198.66 99.0504 198.653 99.985 198.647 100.917C198.641 101.849 198.635 102.783 198.628 103.716C199.653 103.669 200.697 103.622 201.741 103.574C201.747 102.64 201.753 101.705 201.759 100.773C201.765 99.8406 201.771 98.9059 201.777 97.9735C202.098 97.9582 202.419 97.943 202.781 97.9268C202.775 98.8593 202.768 99.7941 202.763 100.727C202.757 101.659 202.751 102.594 202.745 103.528C203.046 103.513 203.367 103.498 203.708 103.483C203.703 104.349 203.697 105.214 203.692 106.08C203.391 106.093 203.11 106.106 202.828 106.119ZM205.736 106.649C206.083 105.8 206.429 104.95 206.796 104.101C206.361 103.06 205.926 102.02 205.511 100.979C205.096 99.938 204.681 98.8979 204.266 97.8572C204.627 97.8408 204.989 97.8237 205.37 97.8065C205.686 98.6639 206.021 99.5225 206.337 100.381C206.653 101.24 207.009 102.098 207.345 102.957C207.692 102.067 208.027 101.181 208.365 100.288C208.7 99.4024 209.058 98.5084 209.404 97.6191C209.766 97.6029 210.107 97.5867 210.488 97.5693C209.857 99.0759 209.226 100.582 208.615 102.087C208.003 103.593 207.412 105.097 206.801 106.602C206.439 106.617 206.098 106.633 205.736 106.649Z" fill="#FCFCFC"/>
</svg>
