<svg width="40" height="40" viewBox="0 0 40 40" fill="none" xmlns="http://www.w3.org/2000/svg">
<circle cx="20" cy="20" r="20" fill="#FF784B"/>
<path d="M28.7211 24.8261C28.7603 25.126 28.6689 25.3867 28.4473 25.6083L25.8463 28.1897C25.7289 28.3201 25.5758 28.431 25.3867 28.5222C25.1977 28.6135 25.0119 28.6722 24.8295 28.6982C24.8164 28.6982 24.7772 28.7016 24.712 28.7081C24.6469 28.7146 24.5622 28.7179 24.4579 28.7179C24.2101 28.7179 23.8091 28.6755 23.255 28.5907C22.7009 28.506 22.023 28.2973 21.2212 27.9649C20.4193 27.6325 19.5099 27.1337 18.493 26.4688C17.4761 25.804 16.3939 24.8913 15.2466 23.7309C14.3339 22.8313 13.5778 21.9708 12.978 21.1495C12.3783 20.328 11.8959 19.5686 11.5308 18.8711C11.1657 18.1735 10.8919 17.5412 10.7094 16.9741C10.5269 16.4069 10.403 15.918 10.3378 15.5073C10.2726 15.0966 10.2466 14.7739 10.2596 14.5393C10.2726 14.3046 10.2792 14.1742 10.2792 14.1481C10.3052 13.9656 10.3639 13.7798 10.4552 13.5908C10.5464 13.4017 10.6573 13.2485 10.7876 13.1312L13.3887 10.5301C13.5712 10.3476 13.7798 10.2563 14.0145 10.2563C14.184 10.2563 14.3339 10.3052 14.4643 10.403C14.5947 10.5008 14.7055 10.6214 14.7968 10.7648L16.8893 14.7348C17.0067 14.9434 17.0393 15.1716 16.9871 15.4193C16.935 15.667 16.8241 15.8756 16.6546 16.0451L15.6964 17.0034C15.6703 17.0295 15.6475 17.0719 15.6279 17.1305C15.6084 17.1892 15.5986 17.2381 15.5986 17.2772C15.6507 17.551 15.7681 17.8639 15.9506 18.2159C16.1071 18.5288 16.3483 18.9102 16.6742 19.36C17.0001 19.8098 17.463 20.328 18.0627 20.9147C18.6494 21.5145 19.1709 21.9805 19.6273 22.3131C20.0835 22.6454 20.465 22.89 20.7714 23.0464C21.0777 23.2029 21.3124 23.2974 21.4754 23.3299L21.7198 23.3788C21.7458 23.3788 21.7883 23.369 21.8469 23.3495C21.9056 23.3299 21.948 23.3071 21.9741 23.281L23.0888 22.1467C23.3236 21.9381 23.5972 21.8338 23.9102 21.8338C24.1319 21.8338 24.3078 21.8729 24.4382 21.9512H24.4577L28.2321 24.1806C28.506 24.3503 28.6689 24.5653 28.7211 24.8261Z" fill="white"/>
</svg>
