<svg width="40" height="40" viewBox="0 0 40 40" fill="none" xmlns="http://www.w3.org/2000/svg">
<path d="M19.6146 39.2301C30.4475 39.2301 39.2292 30.4482 39.2292 19.6151C39.2292 8.78196 30.4475 0 19.6146 0C8.78176 0 0 8.78196 0 19.6151C0 30.4482 8.78176 39.2301 19.6146 39.2301Z" fill="#FCFCFC"/>
<path d="M13.1034 14.1384H11.0864C10.5095 14.1384 10.3945 14.4101 10.3945 14.7098C10.3945 15.2435 11.0781 17.8935 13.5796 21.3993C15.2464 23.7928 17.5965 25.0899 19.7339 25.0899C21.0169 25.0899 21.1751 24.8027 21.1751 24.3055V22.4974C21.1751 21.9203 21.297 21.8055 21.7032 21.8055C22.0016 21.8055 22.5155 21.9553 23.7117 23.1094C25.0801 24.4764 25.3056 25.0899 26.076 25.0899H28.0929C28.6699 25.0899 28.9584 24.8027 28.7918 24.2341C28.6097 23.6669 27.957 22.8446 27.09 21.8699C26.6193 21.3137 25.9135 20.7158 25.7005 20.416C25.4008 20.0308 25.4863 19.8599 25.7005 19.5182C25.7005 19.5182 28.1587 16.0558 28.415 14.8807C28.5438 14.4535 28.415 14.1384 27.8057 14.1384H25.7874C25.2747 14.1384 25.038 14.4101 24.9092 14.7098C24.9092 14.7098 23.8826 17.21 22.4287 18.8346C21.9595 19.3039 21.7453 19.4538 21.4889 19.4538C21.36 19.4538 21.1751 19.3039 21.1751 18.8767V14.8807C21.1751 14.3682 21.0267 14.1384 20.5981 14.1384H17.4271C17.1064 14.1384 16.9145 14.3765 16.9145 14.602C16.9145 15.0895 17.6414 15.2014 17.7157 16.5685V19.5392C17.7157 20.1905 17.598 20.3096 17.3417 20.3096C16.6581 20.3096 14.9942 17.7968 14.0068 14.9228C13.8135 14.3639 13.6188 14.1384 13.1034 14.1384Z" fill="#2D2D2D"/>
</svg>
